<svg width="24" height="24" viewBox="0 0 24 24" fill="none" xmlns="http://www.w3.org/2000/svg">
<path d="M12.0191 0.032959C10.0316 0.032959 8.41992 1.62425 8.41992 3.58662C8.41992 5.54921 10.0316 7.14027 12.0191 7.14027C14.0067 7.14027 15.6179 5.54921 15.6179 3.58662C15.6179 1.62425 14.0067 0.032959 12.0191 0.032959ZM20.3494 8.40856C18.3619 8.40856 16.7506 9.99985 16.7506 11.9622C16.7506 13.925 18.3619 15.5159 20.3494 15.5159C22.3371 15.5159 23.9484 13.925 23.9484 11.9622C23.9484 9.99985 22.3371 8.40856 20.3494 8.40856ZM3.68876 8.40856C1.70126 8.40856 0.0895996 9.99985 0.0895996 11.9622C0.0895996 13.925 1.70126 15.5159 3.68876 15.5159C5.67641 15.5159 7.28759 13.925 7.28759 11.9622C7.28759 9.99985 5.67641 8.40856 3.68876 8.40856ZM12.0191 8.40856C10.0316 8.40856 8.41992 9.99985 8.41992 11.9622C8.41992 13.925 10.0316 15.5159 12.0191 15.5159C14.0067 15.5159 15.6179 13.925 15.6179 11.9622C15.6179 9.99985 14.0067 8.40856 12.0191 8.40856ZM12.0191 16.7843C10.0316 16.7843 8.41992 18.3756 8.41992 20.3379C8.41992 22.3006 10.0316 23.8914 12.0191 23.8914C14.0067 23.8914 15.6179 22.3006 15.6179 20.3379C15.6179 18.3756 14.0067 16.7843 12.0191 16.7843Z" fill="#8D1B3D"/>
</svg>
