<svg width="164" height="27" viewBox="0 0 164 27" fill="none" xmlns="http://www.w3.org/2000/svg">
<rect width="164" height="27" rx="13.5" fill="#0F9AFE"/>
<path d="M33.0043 19H34.8487V15.5597H36.7976C39.1491 15.5597 40.4119 14.1477 40.4119 12.1889C40.4119 10.245 39.1641 8.81818 36.8224 8.81818H33.0043V19ZM34.8487 14.0433V10.3594H36.5391C37.9212 10.3594 38.5327 11.1051 38.5327 12.1889C38.5327 13.2727 37.9212 14.0433 36.549 14.0433H34.8487ZM44.814 19H46.6585V15.2713H48.5377L50.5363 19H52.5946L50.3922 14.9631C51.5903 14.4808 52.2217 13.4567 52.2217 12.0746C52.2217 10.1307 50.9689 8.81818 48.6322 8.81818H44.814V19ZM46.6585 13.7401V10.3594H48.3488C49.726 10.3594 50.3424 10.9908 50.3424 12.0746C50.3424 13.1584 49.726 13.7401 48.3588 13.7401H46.6585ZM56.7195 19H63.3814V17.4538H58.564V14.6747H62.9986V13.1286H58.564V10.3643H63.3417V8.81818H56.7195V19ZM68.0234 19H69.8679V14.6747H74.0987V13.1286H69.8679V10.3643H74.5461V8.81818H68.0234V19ZM79.0265 19H85.6885V17.4538H80.871V14.6747H85.3056V13.1286H80.871V10.3643H85.6487V8.81818H79.0265V19ZM90.3304 19H92.1749V15.2713H94.0542L96.0527 19H98.111L95.9086 14.9631C97.1067 14.4808 97.7381 13.4567 97.7381 12.0746C97.7381 10.1307 96.4853 8.81818 94.1486 8.81818H90.3304V19ZM92.1749 13.7401V10.3594H93.8652C95.2424 10.3594 95.8588 10.9908 95.8588 12.0746C95.8588 13.1584 95.2424 13.7401 93.8752 13.7401H92.1749ZM104.08 8.81818H102.236V19H104.08V8.81818ZM112.328 19C115.43 19 117.27 17.081 117.27 13.8991C117.27 10.7273 115.43 8.81818 112.398 8.81818H108.878V19H112.328ZM110.722 17.4041V10.4141H112.293C114.361 10.4141 115.44 11.5675 115.44 13.8991C115.44 16.2408 114.361 17.4041 112.238 17.4041H110.722ZM130.92 13.9091C130.92 10.6179 128.912 8.67898 126.242 8.67898C123.567 8.67898 121.564 10.6179 121.564 13.9091C121.564 17.1953 123.567 19.1392 126.242 19.1392C128.912 19.1392 130.92 17.2003 130.92 13.9091ZM129.066 13.9091C129.066 16.2259 127.902 17.4837 126.242 17.4837C124.586 17.4837 123.418 16.2259 123.418 13.9091C123.418 11.5923 124.586 10.3345 126.242 10.3345C127.902 10.3345 129.066 11.5923 129.066 13.9091Z" fill="white"/>
</svg>
