<svg width="298" height="54" viewBox="0 0 298 54" fill="none" xmlns="http://www.w3.org/2000/svg">
<rect width="298" height="54" rx="6" fill="#FFF2F6"/>
<path d="M51.1178 20.9091L54.5248 31.2131H54.659L58.0596 20.9091H60.6675L56.0525 34H53.1249L48.5162 20.9091H51.1178ZM62.3918 34V20.9091H70.906V22.897H64.7632V26.451H70.4649V28.4389H64.7632V32.0121H70.9571V34H62.3918ZM73.3254 34V20.9091H78.2345C79.2401 20.9091 80.0839 21.0838 80.7657 21.4332C81.4518 21.7827 81.9695 22.2727 82.319 22.9034C82.6727 23.5298 82.8495 24.2607 82.8495 25.0959C82.8495 25.9354 82.6705 26.6641 82.3126 27.282C81.9589 27.8956 81.4369 28.3707 80.7465 28.7074C80.0562 29.0398 79.2082 29.206 78.2025 29.206H74.7061V27.2372H77.8829C78.471 27.2372 78.9525 27.1562 79.3275 26.9943C79.7025 26.8281 79.9795 26.5874 80.1585 26.272C80.3417 25.9524 80.4333 25.5604 80.4333 25.0959C80.4333 24.6314 80.3417 24.2351 80.1585 23.907C79.9752 23.5746 79.6961 23.3232 79.3211 23.1527C78.9461 22.978 78.4624 22.8906 77.8701 22.8906H75.6968V34H73.3254ZM80.0882 28.0682L83.3289 34H80.6826L77.4994 28.0682H80.0882ZM88.922 22.897V20.9091H99.3666V22.897H95.3204V34H92.9681V22.897H88.922ZM112.497 27.4545C112.497 28.8651 112.233 30.0732 111.705 31.0788C111.181 32.0803 110.465 32.8473 109.557 33.38C108.654 33.9126 107.629 34.179 106.483 34.179C105.336 34.179 104.309 33.9126 103.402 33.38C102.498 32.843 101.782 32.0739 101.254 31.0724C100.73 30.0668 100.468 28.8608 100.468 27.4545C100.468 26.044 100.73 24.8381 101.254 23.8366C101.782 22.831 102.498 22.0618 103.402 21.5291C104.309 20.9964 105.336 20.7301 106.483 20.7301C107.629 20.7301 108.654 20.9964 109.557 21.5291C110.465 22.0618 111.181 22.831 111.705 23.8366C112.233 24.8381 112.497 26.044 112.497 27.4545ZM110.113 27.4545C110.113 26.4616 109.958 25.6243 109.647 24.9425C109.34 24.2564 108.914 23.7386 108.368 23.3892C107.823 23.0355 107.194 22.8587 106.483 22.8587C105.771 22.8587 105.142 23.0355 104.597 23.3892C104.051 23.7386 103.623 24.2564 103.312 24.9425C103.005 25.6243 102.852 26.4616 102.852 27.4545C102.852 28.4474 103.005 29.2869 103.312 29.973C103.623 30.6548 104.051 31.1726 104.597 31.5263C105.142 31.8757 105.771 32.0504 106.483 32.0504C107.194 32.0504 107.823 31.8757 108.368 31.5263C108.914 31.1726 109.34 30.6548 109.647 29.973C109.958 29.2869 110.113 28.4474 110.113 27.4545ZM119.176 34H114.739V20.9091H119.265C120.565 20.9091 121.681 21.1712 122.614 21.6953C123.552 22.2152 124.272 22.9631 124.775 23.9389C125.278 24.9148 125.529 26.0824 125.529 27.4418C125.529 28.8054 125.276 29.9773 124.769 30.9574C124.266 31.9375 123.539 32.6896 122.589 33.2138C121.643 33.7379 120.505 34 119.176 34ZM117.111 31.9482H119.06C119.972 31.9482 120.733 31.782 121.342 31.4496C121.952 31.1129 122.41 30.6122 122.717 29.9474C123.024 29.2784 123.177 28.4432 123.177 27.4418C123.177 26.4403 123.024 25.6094 122.717 24.9489C122.41 24.2841 121.956 23.7876 121.355 23.4595C120.759 23.1271 120.017 22.9609 119.131 22.9609H117.111V31.9482ZM139.48 27.4545C139.48 28.8651 139.216 30.0732 138.687 31.0788C138.163 32.0803 137.447 32.8473 136.54 33.38C135.636 33.9126 134.611 34.179 133.465 34.179C132.319 34.179 131.292 33.9126 130.384 33.38C129.481 32.843 128.765 32.0739 128.236 31.0724C127.712 30.0668 127.45 28.8608 127.45 27.4545C127.45 26.044 127.712 24.8381 128.236 23.8366C128.765 22.831 129.481 22.0618 130.384 21.5291C131.292 20.9964 132.319 20.7301 133.465 20.7301C134.611 20.7301 135.636 20.9964 136.54 21.5291C137.447 22.0618 138.163 22.831 138.687 23.8366C139.216 24.8381 139.48 26.044 139.48 27.4545ZM137.096 27.4545C137.096 26.4616 136.94 25.6243 136.629 24.9425C136.322 24.2564 135.896 23.7386 135.351 23.3892C134.805 23.0355 134.177 22.8587 133.465 22.8587C132.753 22.8587 132.125 23.0355 131.579 23.3892C131.034 23.7386 130.606 24.2564 130.294 24.9425C129.988 25.6243 129.834 26.4616 129.834 27.4545C129.834 28.4474 129.988 29.2869 130.294 29.973C130.606 30.6548 131.034 31.1726 131.579 31.5263C132.125 31.8757 132.753 32.0504 133.465 32.0504C134.177 32.0504 134.805 31.8757 135.351 31.5263C135.896 31.1726 136.322 30.6548 136.629 29.973C136.94 29.2869 137.096 28.4474 137.096 27.4545ZM148.836 24.5078C148.777 23.9496 148.525 23.5149 148.082 23.2038C147.643 22.8928 147.072 22.7372 146.369 22.7372C145.875 22.7372 145.451 22.8118 145.097 22.9609C144.743 23.1101 144.473 23.3125 144.285 23.5682C144.098 23.8239 144.002 24.1158 143.997 24.4439C143.997 24.7166 144.059 24.9531 144.183 25.1534C144.311 25.3537 144.483 25.5241 144.701 25.6648C144.918 25.8011 145.159 25.9162 145.423 26.0099C145.687 26.1037 145.953 26.1825 146.222 26.2464L147.449 26.5533C147.943 26.6683 148.419 26.8239 148.875 27.0199C149.335 27.2159 149.746 27.4631 150.108 27.7614C150.475 28.0597 150.764 28.4197 150.978 28.8416C151.191 29.2635 151.297 29.7578 151.297 30.3246C151.297 31.0916 151.101 31.767 150.709 32.3509C150.317 32.9304 149.75 33.3842 149.009 33.7124C148.272 34.0362 147.379 34.1982 146.331 34.1982C145.312 34.1982 144.428 34.0405 143.678 33.7251C142.932 33.4098 142.348 32.9496 141.926 32.3445C141.509 31.7393 141.283 31.0021 141.249 30.1328H143.582C143.616 30.5888 143.757 30.968 144.004 31.2706C144.251 31.5732 144.573 31.799 144.969 31.9482C145.37 32.0973 145.817 32.1719 146.311 32.1719C146.827 32.1719 147.279 32.0952 147.666 31.9418C148.059 31.7841 148.365 31.5668 148.587 31.2898C148.809 31.0085 148.921 30.6804 148.926 30.3054C148.921 29.9645 148.821 29.6832 148.625 29.4616C148.429 29.2358 148.154 29.0483 147.801 28.8991C147.451 28.7457 147.042 28.6094 146.573 28.4901L145.084 28.1065C144.006 27.8295 143.154 27.4098 142.527 26.8473C141.905 26.2805 141.594 25.5284 141.594 24.5909C141.594 23.8196 141.803 23.1442 142.22 22.5646C142.642 21.9851 143.215 21.5355 143.94 21.2159C144.664 20.892 145.485 20.7301 146.401 20.7301C147.33 20.7301 148.144 20.892 148.843 21.2159C149.546 21.5355 150.098 21.9808 150.498 22.5518C150.899 23.1186 151.105 23.7706 151.118 24.5078H148.836ZM169.574 27.4545C169.574 28.8651 169.309 30.0732 168.781 31.0788C168.257 32.0803 167.541 32.8473 166.633 33.38C165.73 33.9126 164.705 34.179 163.559 34.179C162.412 34.179 161.385 33.9126 160.478 33.38C159.574 32.843 158.858 32.0739 158.33 31.0724C157.806 30.0668 157.544 28.8608 157.544 27.4545C157.544 26.044 157.806 24.8381 158.33 23.8366C158.858 22.831 159.574 22.0618 160.478 21.5291C161.385 20.9964 162.412 20.7301 163.559 20.7301C164.705 20.7301 165.73 20.9964 166.633 21.5291C167.541 22.0618 168.257 22.831 168.781 23.8366C169.309 24.8381 169.574 26.044 169.574 27.4545ZM167.189 27.4545C167.189 26.4616 167.034 25.6243 166.723 24.9425C166.416 24.2564 165.99 23.7386 165.444 23.3892C164.899 23.0355 164.27 22.8587 163.559 22.8587C162.847 22.8587 162.218 23.0355 161.673 23.3892C161.128 23.7386 160.699 24.2564 160.388 24.9425C160.081 25.6243 159.928 26.4616 159.928 27.4545C159.928 28.4474 160.081 29.2869 160.388 29.973C160.699 30.6548 161.128 31.1726 161.673 31.5263C162.218 31.8757 162.847 32.0504 163.559 32.0504C164.27 32.0504 164.899 31.8757 165.444 31.5263C165.99 31.1726 166.416 30.6548 166.723 29.973C167.034 29.2869 167.189 28.4474 167.189 27.4545ZM178.93 24.5078C178.87 23.9496 178.619 23.5149 178.176 23.2038C177.737 22.8928 177.166 22.7372 176.463 22.7372C175.968 22.7372 175.544 22.8118 175.191 22.9609C174.837 23.1101 174.566 23.3125 174.379 23.5682C174.191 23.8239 174.095 24.1158 174.091 24.4439C174.091 24.7166 174.153 24.9531 174.277 25.1534C174.404 25.3537 174.577 25.5241 174.794 25.6648C175.012 25.8011 175.252 25.9162 175.517 26.0099C175.781 26.1037 176.047 26.1825 176.316 26.2464L177.543 26.5533C178.037 26.6683 178.512 26.8239 178.968 27.0199C179.429 27.2159 179.84 27.4631 180.202 27.7614C180.568 28.0597 180.858 28.4197 181.071 28.8416C181.284 29.2635 181.391 29.7578 181.391 30.3246C181.391 31.0916 181.195 31.767 180.803 32.3509C180.411 32.9304 179.844 33.3842 179.103 33.7124C178.365 34.0362 177.473 34.1982 176.424 34.1982C175.406 34.1982 174.522 34.0405 173.772 33.7251C173.026 33.4098 172.442 32.9496 172.02 32.3445C171.603 31.7393 171.377 31.0021 171.343 30.1328H173.676C173.71 30.5888 173.85 30.968 174.098 31.2706C174.345 31.5732 174.666 31.799 175.063 31.9482C175.463 32.0973 175.911 32.1719 176.405 32.1719C176.921 32.1719 177.372 32.0952 177.76 31.9418C178.152 31.7841 178.459 31.5668 178.681 31.2898C178.902 31.0085 179.015 30.6804 179.019 30.3054C179.015 29.9645 178.915 29.6832 178.719 29.4616C178.523 29.2358 178.248 29.0483 177.894 28.8991C177.545 28.7457 177.136 28.6094 176.667 28.4901L175.178 28.1065C174.1 27.8295 173.247 27.4098 172.621 26.8473C171.999 26.2805 171.688 25.5284 171.688 24.5909C171.688 23.8196 171.897 23.1442 172.314 22.5646C172.736 21.9851 173.309 21.5355 174.034 21.2159C174.758 20.892 175.578 20.7301 176.495 20.7301C177.424 20.7301 178.237 20.892 178.936 21.2159C179.639 21.5355 180.191 21.9808 180.592 22.5518C180.992 23.1186 181.199 23.7706 181.212 24.5078H178.93ZM193.135 20.9091H195.487V30.1136C195.483 30.9574 195.304 31.6839 194.95 32.2933C194.596 32.8984 194.102 33.3651 193.467 33.6932C192.836 34.017 192.101 34.179 191.262 34.179C190.495 34.179 189.804 34.0426 189.191 33.7699C188.581 33.4929 188.098 33.0838 187.74 32.5426C187.382 32.0014 187.203 31.3281 187.203 30.5227H189.562C189.566 30.8764 189.642 31.1811 189.792 31.4368C189.945 31.6925 190.156 31.8885 190.424 32.0249C190.693 32.1612 191.002 32.2294 191.351 32.2294C191.731 32.2294 192.052 32.1506 192.316 31.9929C192.581 31.831 192.781 31.5923 192.917 31.277C193.058 30.9616 193.13 30.5739 193.135 30.1136V20.9091ZM209.757 27.4545C209.757 28.8651 209.493 30.0732 208.965 31.0788C208.44 32.0803 207.725 32.8473 206.817 33.38C205.913 33.9126 204.889 34.179 203.742 34.179C202.596 34.179 201.569 33.9126 200.661 33.38C199.758 32.843 199.042 32.0739 198.514 31.0724C197.989 30.0668 197.727 28.8608 197.727 27.4545C197.727 26.044 197.989 24.8381 198.514 23.8366C199.042 22.831 199.758 22.0618 200.661 21.5291C201.569 20.9964 202.596 20.7301 203.742 20.7301C204.889 20.7301 205.913 20.9964 206.817 21.5291C207.725 22.0618 208.44 22.831 208.965 23.8366C209.493 24.8381 209.757 26.044 209.757 27.4545ZM207.373 27.4545C207.373 26.4616 207.217 25.6243 206.906 24.9425C206.6 24.2564 206.173 23.7386 205.628 23.3892C205.082 23.0355 204.454 22.8587 203.742 22.8587C203.031 22.8587 202.402 23.0355 201.857 23.3892C201.311 23.7386 200.883 24.2564 200.572 24.9425C200.265 25.6243 200.112 26.4616 200.112 27.4545C200.112 28.4474 200.265 29.2869 200.572 29.973C200.883 30.6548 201.311 31.1726 201.857 31.5263C202.402 31.8757 203.031 32.0504 203.742 32.0504C204.454 32.0504 205.082 31.8757 205.628 31.5263C206.173 31.1726 206.6 30.6548 206.906 29.973C207.217 29.2869 207.373 28.4474 207.373 27.4545ZM220.769 25.0895C220.663 24.7443 220.516 24.4354 220.328 24.1626C220.145 23.8857 219.923 23.6491 219.663 23.4531C219.408 23.2571 219.114 23.1101 218.781 23.0121C218.449 22.9098 218.087 22.8587 217.695 22.8587C216.991 22.8587 216.365 23.0355 215.815 23.3892C215.266 23.7429 214.833 24.2628 214.518 24.9489C214.207 25.6307 214.051 26.4616 214.051 27.4418C214.051 28.4304 214.207 29.2678 214.518 29.9538C214.829 30.6399 215.261 31.1619 215.815 31.5199C216.369 31.8736 217.013 32.0504 217.746 32.0504C218.41 32.0504 218.986 31.9226 219.472 31.6669C219.962 31.4112 220.339 31.049 220.603 30.5803C220.867 30.1072 220.999 29.5533 220.999 28.9183L221.536 29.0014H217.982V27.1477H223.294V28.7202C223.294 29.8409 223.055 30.8104 222.578 31.6286C222.101 32.4467 221.445 33.0774 220.609 33.5206C219.774 33.9595 218.815 34.179 217.733 34.179C216.527 34.179 215.468 33.9084 214.556 33.3672C213.648 32.8217 212.939 32.0483 212.427 31.0469C211.92 30.0412 211.667 28.848 211.667 27.4673C211.667 26.4105 211.816 25.4666 212.114 24.6357C212.417 23.8047 212.839 23.0994 213.38 22.5199C213.921 21.9361 214.556 21.4929 215.285 21.1903C216.013 20.8835 216.806 20.7301 217.663 20.7301C218.387 20.7301 219.062 20.8366 219.689 21.0497C220.315 21.2585 220.871 21.5568 221.357 21.9446C221.847 22.3324 222.25 22.7926 222.565 23.3253C222.881 23.858 223.087 24.446 223.185 25.0895H220.769ZM237.285 27.4545C237.285 28.8651 237.02 30.0732 236.492 31.0788C235.968 32.0803 235.252 32.8473 234.344 33.38C233.441 33.9126 232.416 34.179 231.27 34.179C230.123 34.179 229.096 33.9126 228.189 33.38C227.285 32.843 226.569 32.0739 226.041 31.0724C225.517 30.0668 225.255 28.8608 225.255 27.4545C225.255 26.044 225.517 24.8381 226.041 23.8366C226.569 22.831 227.285 22.0618 228.189 21.5291C229.096 20.9964 230.123 20.7301 231.27 20.7301C232.416 20.7301 233.441 20.9964 234.344 21.5291C235.252 22.0618 235.968 22.831 236.492 23.8366C237.02 24.8381 237.285 26.044 237.285 27.4545ZM234.9 27.4545C234.9 26.4616 234.745 25.6243 234.434 24.9425C234.127 24.2564 233.701 23.7386 233.155 23.3892C232.61 23.0355 231.981 22.8587 231.27 22.8587C230.558 22.8587 229.929 23.0355 229.384 23.3892C228.839 23.7386 228.41 24.2564 228.099 24.9425C227.792 25.6243 227.639 26.4616 227.639 27.4545C227.639 28.4474 227.792 29.2869 228.099 29.973C228.41 30.6548 228.839 31.1726 229.384 31.5263C229.929 31.8757 230.558 32.0504 231.27 32.0504C231.981 32.0504 232.61 31.8757 233.155 31.5263C233.701 31.1726 234.127 30.6548 234.434 29.973C234.745 29.2869 234.9 28.4474 234.9 27.4545ZM246.641 24.5078C246.581 23.9496 246.33 23.5149 245.887 23.2038C245.448 22.8928 244.877 22.7372 244.174 22.7372C243.679 22.7372 243.255 22.8118 242.902 22.9609C242.548 23.1101 242.277 23.3125 242.09 23.5682C241.902 23.8239 241.806 24.1158 241.802 24.4439C241.802 24.7166 241.864 24.9531 241.987 25.1534C242.115 25.3537 242.288 25.5241 242.505 25.6648C242.723 25.8011 242.963 25.9162 243.228 26.0099C243.492 26.1037 243.758 26.1825 244.027 26.2464L245.254 26.5533C245.748 26.6683 246.223 26.8239 246.679 27.0199C247.139 27.2159 247.551 27.4631 247.913 27.7614C248.279 28.0597 248.569 28.4197 248.782 28.8416C248.995 29.2635 249.102 29.7578 249.102 30.3246C249.102 31.0916 248.906 31.767 248.514 32.3509C248.122 32.9304 247.555 33.3842 246.813 33.7124C246.076 34.0362 245.184 34.1982 244.135 34.1982C243.117 34.1982 242.233 34.0405 241.483 33.7251C240.737 33.4098 240.153 32.9496 239.731 32.3445C239.313 31.7393 239.088 31.0021 239.054 30.1328H241.387C241.421 30.5888 241.561 30.968 241.809 31.2706C242.056 31.5732 242.377 31.799 242.774 31.9482C243.174 32.0973 243.622 32.1719 244.116 32.1719C244.632 32.1719 245.083 32.0952 245.471 31.9418C245.863 31.7841 246.17 31.5668 246.392 31.2898C246.613 31.0085 246.726 30.6804 246.73 30.3054C246.726 29.9645 246.626 29.6832 246.43 29.4616C246.234 29.2358 245.959 29.0483 245.605 28.8991C245.256 28.7457 244.847 28.6094 244.378 28.4901L242.889 28.1065C241.811 27.8295 240.958 27.4098 240.332 26.8473C239.71 26.2805 239.399 25.5284 239.399 24.5909C239.399 23.8196 239.608 23.1442 240.025 22.5646C240.447 21.9851 241.02 21.5355 241.745 21.2159C242.469 20.892 243.289 20.7301 244.206 20.7301C245.134 20.7301 245.948 20.892 246.647 21.2159C247.35 21.5355 247.902 21.9808 248.303 22.5518C248.703 23.1186 248.91 23.7706 248.923 24.5078H246.641Z" fill="#8D1B3D"/>
</svg>
