<svg width="107" height="80" viewBox="0 0 107 80" fill="none" xmlns="http://www.w3.org/2000/svg">
<g clip-path="url(#clip0_152542_2596)">
<path d="M-0.000152588 0H107V80H-0.000152588V0Z" fill="#74ACDF"/>
<path d="M0 26.6667H107V53.3334H0V26.6667Z" fill="white"/>
<path d="M52.9866 40.2081L57.5608 50.1281C57.5608 50.1281 57.6411 50.3201 57.7695 50.2721C57.8979 50.2081 57.8176 50.0161 57.8176 50.0161L54.0138 39.7761M53.9014 43.6481C53.8372 45.1521 54.7681 45.9841 54.6558 47.3281C54.5274 48.6881 55.2657 49.4401 55.4583 49.9681C55.6188 50.4961 55.2657 50.8001 55.4101 50.8801C55.5706 50.9601 55.8916 50.5441 55.7953 49.7921C55.683 49.0561 55.1212 48.8321 55.2496 47.1841C55.378 45.5361 54.5755 45.1521 54.7681 43.6641" fill="#F6B40E"/>
<path d="M52.9866 40.2081L57.5608 50.1281C57.5608 50.1281 57.6411 50.3201 57.7695 50.2721C57.8979 50.2081 57.8176 50.0161 57.8176 50.0161L54.0138 39.7761M53.9014 43.6481C53.8372 45.1521 54.7681 45.9841 54.6558 47.3281C54.5274 48.6881 55.2657 49.4401 55.4583 49.9681C55.6188 50.4961 55.2657 50.8001 55.4101 50.8801C55.5706 50.9601 55.8916 50.5441 55.7953 49.7921C55.683 49.0561 55.1212 48.8321 55.2496 47.1841C55.378 45.5361 54.5755 45.1521 54.7681 43.6641" stroke="#85340A" stroke-width="0.109046"/>
<path d="M52.9456 39.996L53.3636 50.906C53.3636 50.906 53.364 51.114 53.5011 51.1186C53.6443 51.1085 53.6439 50.9005 53.6439 50.9005L54.0605 39.9888M52.4703 43.5232C51.8336 44.8882 52.3743 46.012 51.7546 47.2108C51.1139 48.4183 51.5073 49.3947 51.4825 49.956C51.4281 50.5051 50.9852 50.6512 51.0879 50.7802C51.2055 50.9154 51.6618 50.6535 51.8615 49.922C52.0402 49.1992 51.6072 48.7779 52.3585 47.3044C53.1097 45.8308 52.5157 45.1699 53.2649 43.8686" fill="#F6B40E"/>
<path d="M52.9456 39.996L53.3636 50.906C53.3636 50.906 53.364 51.114 53.5011 51.1186C53.6443 51.1085 53.6439 50.9005 53.6439 50.9005L54.0605 39.9888M52.4703 43.5232C51.8336 44.8882 52.3743 46.012 51.7546 47.2108C51.1139 48.4183 51.5073 49.3947 51.4825 49.956C51.4281 50.5051 50.9852 50.6512 51.0879 50.7802C51.2055 50.9154 51.6618 50.6535 51.8615 49.922C52.0402 49.1992 51.6072 48.7779 52.3585 47.3044C53.1097 45.8308 52.5157 45.1699 53.2649 43.8686" stroke="#85340A" stroke-width="0.109046"/>
<path d="M52.9894 39.7852L49.1874 50.0241C49.1874 50.0241 49.108 50.2165 49.2328 50.273C49.369 50.3183 49.4484 50.1259 49.4484 50.1259L54.0221 40.2038M51.1962 42.8625C50.084 43.8808 50.1521 45.1253 49.1193 45.9964C48.0639 46.8676 48.0525 47.9198 47.8142 48.4289C47.5532 48.9154 47.0878 48.8814 47.1332 49.0398C47.19 49.2095 47.712 49.1416 48.1773 48.542C48.62 47.9424 48.3816 47.388 49.6414 46.3132C50.9011 45.2384 50.6061 44.4012 51.7977 43.4848" fill="#F6B40E"/>
<path d="M52.9894 39.7852L49.1874 50.0241C49.1874 50.0241 49.108 50.2164 49.2328 50.273C49.369 50.3183 49.4484 50.1259 49.4484 50.1259L54.0221 40.2038M51.1962 42.8625C50.084 43.8808 50.1521 45.1253 49.1193 45.9964C48.0639 46.8676 48.0525 47.9198 47.8142 48.4289C47.5532 48.9154 47.0878 48.8814 47.1332 49.0398C47.19 49.2095 47.712 49.1416 48.1773 48.542C48.62 47.9424 48.3816 47.388 49.6414 46.3132C50.9011 45.2384 50.6061 44.4012 51.7977 43.4848" stroke="#85340A" stroke-width="0.109046"/>
<path d="M53.1113 39.6061L45.6683 47.6152C45.6683 47.6152 45.5211 47.7626 45.6147 47.8625C45.7231 47.9563 45.8704 47.8089 45.8704 47.8089L53.9048 40.3869M50.2733 41.7651C48.8549 42.2816 48.4401 43.4573 47.1515 43.8682C45.842 44.2704 45.4276 45.2381 45.012 45.6175C44.5841 45.9674 44.1672 45.7586 44.1483 45.9222C44.1356 46.1006 44.644 46.2371 45.3041 45.8606C45.9432 45.4755 45.9358 44.8724 47.5122 44.36C49.0887 43.8476 49.1375 42.9615 50.5902 42.5695" fill="#F6B40E"/>
<path d="M53.1113 39.6061L45.6683 47.6152C45.6683 47.6152 45.5211 47.7626 45.6147 47.8625C45.7231 47.9563 45.8704 47.8089 45.8704 47.8089L53.9048 40.3869M50.2733 41.7651C48.8549 42.2816 48.4401 43.4573 47.1515 43.8682C45.842 44.2704 45.4276 45.2381 45.012 45.6175C44.5841 45.9674 44.1672 45.7586 44.1483 45.9222C44.1356 46.1006 44.644 46.2371 45.3041 45.8606C45.9432 45.4755 45.9358 44.8724 47.5122 44.36C49.0887 43.8476 49.1375 42.9615 50.5902 42.5695" stroke="#85340A" stroke-width="0.109046"/>
<path d="M54.1904 43.9042C54.2707 45.3442 55.0892 45.9842 54.9287 47.3122C55.2818 46.2722 54.4312 45.4562 54.4794 43.9202M53.2435 40.1122L56.3732 46.9282L53.7571 39.9042" fill="#85340A"/>
<path d="M52.6389 43.8697C52.1603 45.2307 52.6708 46.1343 52.0127 47.2999C52.7382 46.4738 52.2655 45.3954 52.8997 43.9947M53.2197 40.0051L53.4947 47.4962L53.7741 40.0089" fill="#85340A"/>
<path d="M51.2191 43.2469C50.2545 44.3217 50.3793 45.3513 49.3238 46.1772C50.3112 45.6907 50.2885 44.5141 51.4121 43.4619M53.2393 39.8981L50.6176 46.9239L53.75 40.113" fill="#85340A"/>
<path d="M50.1463 42.1297C48.8425 42.7547 48.5626 43.7535 47.2704 44.1139C48.3694 44.0411 48.8001 42.9454 50.242 42.4019M53.2982 39.8065L48.1791 45.2973L53.6875 40.1999" fill="#85340A"/>
<path d="M53.2916 39.4883L43.3406 44.0483C43.3406 44.0483 43.148 44.1283 43.1961 44.2563C43.2603 44.3843 43.4529 44.3043 43.4529 44.3043L53.7249 40.5123M49.8408 40.4003C48.3321 40.3363 47.4975 41.2643 46.1493 41.1523C44.7851 41.0243 44.0307 41.7603 43.5011 41.9523C42.9714 42.1123 42.6665 41.7603 42.5862 41.9043C42.506 42.0643 42.9233 42.3843 43.6776 42.2883C44.4159 42.1763 44.6406 41.6163 46.2938 41.7443C47.9469 41.8723 48.3321 41.0723 49.8248 41.2643" fill="#F6B40E"/>
<path d="M53.2916 39.4883L43.3406 44.0483C43.3406 44.0483 43.148 44.1283 43.1961 44.2563C43.2603 44.3843 43.4529 44.3043 43.4529 44.3043L53.7249 40.5123M49.8408 40.4003C48.3321 40.3363 47.4975 41.2643 46.1493 41.1523C44.7851 41.0243 44.0307 41.7603 43.5011 41.9523C42.9714 42.1123 42.6665 41.7603 42.5862 41.9043C42.506 42.0643 42.9233 42.3843 43.6776 42.2883C44.4159 42.1763 44.6406 41.6163 46.2938 41.7443C47.9469 41.8723 48.3321 41.0723 49.8248 41.2643" stroke="#85340A" stroke-width="0.109046"/>
<path d="M53.504 39.4477L42.56 39.8643C42.56 39.8643 42.3513 39.8648 42.3467 40.0014C42.3568 40.1441 42.5655 40.1437 42.5655 40.1437L53.5112 40.559M49.9658 38.9738C48.5965 38.3391 47.4692 38.8781 46.2666 38.2603C45.0554 37.6216 44.0759 38.0138 43.5129 37.9891C42.9621 37.9349 42.8155 37.4933 42.6861 37.5958C42.5505 37.713 42.8132 38.1678 43.547 38.3669C44.2721 38.5451 44.6947 38.1134 46.1728 38.8623C47.651 39.6112 48.314 39.0191 49.6193 39.7659" fill="#F6B40E"/>
<path d="M53.504 39.4477L42.56 39.8643C42.56 39.8643 42.3513 39.8648 42.3467 40.0014C42.3568 40.1441 42.5655 40.1437 42.5655 40.1437L53.5112 40.559M49.9658 38.9738C48.5965 38.3391 47.4692 38.8781 46.2666 38.2603C45.0554 37.6216 44.0759 38.0138 43.5129 37.9891C42.9621 37.9349 42.8155 37.4933 42.6861 37.5958C42.5505 37.713 42.8132 38.1678 43.547 38.3669C44.2721 38.5451 44.6947 38.1134 46.1728 38.8623C47.651 39.6112 48.314 39.0191 49.6193 39.7659" stroke="#85340A" stroke-width="0.109046"/>
<path d="M53.7157 39.4912L43.4448 35.7011C43.4448 35.7011 43.2518 35.6219 43.1951 35.7464C43.1497 35.8822 43.3426 35.9613 43.3426 35.9613L53.2957 40.5208M50.6287 37.7037C49.6073 36.5949 48.3589 36.6628 47.485 35.6333C46.6111 34.5811 45.5557 34.5698 45.045 34.3322C44.557 34.072 44.591 33.6081 44.4321 33.6534C44.2619 33.7099 44.33 34.2303 44.9315 34.6942C45.533 35.1354 46.0891 34.8979 47.1672 36.1537C48.2454 37.4095 49.0852 37.1153 50.0045 38.3033" fill="#F6B40E"/>
<path d="M53.7157 39.4912L43.4448 35.7011C43.4448 35.7011 43.2518 35.6219 43.1951 35.7464C43.1497 35.8822 43.3426 35.9613 43.3426 35.9613L53.2957 40.5208M50.6287 37.7037C49.6073 36.5949 48.3589 36.6628 47.485 35.6333C46.6111 34.5811 45.5557 34.5698 45.045 34.3322C44.557 34.072 44.591 33.6081 44.4321 33.6534C44.2619 33.7099 44.33 34.2303 44.9315 34.6942C45.533 35.1354 46.0891 34.8979 47.1672 36.1537C48.2454 37.4095 49.0852 37.1153 50.0045 38.3033" stroke="#85340A" stroke-width="0.109046"/>
<path d="M53.8946 39.6121L45.8605 32.1923C45.8605 32.1923 45.7126 32.0455 45.6124 32.1388C45.5184 32.2469 45.6662 32.3937 45.6662 32.3937L53.1114 40.4031M51.7288 36.783C51.2108 35.369 50.0314 34.9554 49.6192 33.6709C49.2158 32.3654 48.245 31.9523 47.8644 31.538C47.5134 31.1114 47.7229 30.6958 47.5588 30.677C47.3798 30.6644 47.2429 31.1711 47.6206 31.8292C48.0069 32.4663 48.6119 32.4589 49.1259 34.0305C49.6399 35.602 50.5287 35.6506 50.922 37.0988" fill="#F6B40E"/>
<path d="M53.8946 39.6121L45.8605 32.1923C45.8605 32.1923 45.7126 32.0455 45.6124 32.1388C45.5184 32.2469 45.6662 32.3937 45.6662 32.3937L53.1114 40.4031M51.7288 36.783C51.2108 35.369 50.0314 34.9554 49.6192 33.6709C49.2158 32.3654 48.245 31.9523 47.8644 31.538C47.5134 31.1114 47.7229 30.6958 47.5588 30.677C47.3798 30.6644 47.2429 31.1711 47.6206 31.8292C48.0069 32.4663 48.6119 32.4589 49.1259 34.0305C49.6399 35.602 50.5287 35.6506 50.922 37.0988" stroke="#85340A" stroke-width="0.109046"/>
<path d="M49.5838 40.6883C48.1393 40.7683 47.4973 41.5843 46.1651 41.4243C47.2084 41.7763 48.0269 40.9283 49.5677 40.9763M53.3876 39.7443L46.5503 42.8643L53.5963 40.2563" fill="#85340A"/>
<path d="M49.6182 39.142C48.253 38.6649 47.3466 39.1738 46.1773 38.5178C47.006 39.241 48.0878 38.7698 49.4928 39.402M53.4949 39.721L45.9804 39.9951L53.4911 40.2736" fill="#85340A"/>
<path d="M50.2429 37.7257C49.1647 36.764 48.132 36.8885 47.3035 35.8363C47.7915 36.8206 48.9718 36.798 50.0273 37.918M53.6022 39.7395L46.5545 37.1261L53.3866 40.2486" fill="#85340A"/>
<path d="M51.3642 36.6565C50.7373 35.3567 49.7353 35.0777 49.3738 33.7895C49.4468 34.8851 50.546 35.3144 51.0911 36.7519M53.6947 39.7986L48.1867 34.6954L53.3001 40.1867" fill="#85340A"/>
<path d="M54.0141 39.7919L49.4398 29.8719C49.4398 29.8719 49.3596 29.6799 49.2312 29.7279C49.1028 29.7919 49.183 29.9839 49.183 29.9839L52.9869 40.2239M53.0992 36.3519C53.1634 34.8479 52.2325 34.0159 52.3449 32.6719C52.4733 31.3119 51.735 30.5599 51.5424 30.0319C51.3819 29.5039 51.735 29.1999 51.5905 29.1199C51.43 29.0399 51.109 29.4559 51.2053 30.2079C51.3177 30.9439 51.8794 31.1679 51.751 32.8159C51.6226 34.4639 52.4251 34.8479 52.2325 36.3359" fill="#F6B40E"/>
<path d="M54.0141 39.7919L49.4398 29.8719C49.4398 29.8719 49.3596 29.6799 49.2312 29.7279C49.1028 29.7919 49.183 29.9839 49.183 29.9839L52.9869 40.2239M53.0992 36.3519C53.1634 34.8479 52.2325 34.0159 52.3449 32.6719C52.4733 31.3119 51.735 30.5599 51.5424 30.0319C51.3819 29.5039 51.735 29.1999 51.5905 29.1199C51.43 29.0399 51.109 29.4559 51.2053 30.2079C51.3177 30.9439 51.8794 31.1679 51.751 32.8159C51.6226 34.4639 52.4251 34.8479 52.2325 36.3359" stroke="#85340A" stroke-width="0.109046"/>
<path d="M54.0546 40.0043L53.6367 29.0944C53.6367 29.0944 53.6362 28.8864 53.4992 28.8818C53.356 28.8919 53.3564 29.0999 53.3564 29.0999L52.9398 40.0116M54.53 36.4772C55.1666 35.1122 54.626 33.9884 55.2457 32.7895C55.8864 31.582 55.493 30.6056 55.5177 30.0443C55.5722 29.4953 56.0151 29.3491 55.9123 29.2201C55.7948 29.085 55.3385 29.3469 55.1388 30.0784C54.9601 30.8012 55.3931 31.2224 54.6418 32.696C53.8905 34.1696 54.4845 34.8305 53.7354 36.1318" fill="#F6B40E"/>
<path d="M54.0546 40.0043L53.6367 29.0944C53.6367 29.0944 53.6362 28.8864 53.4992 28.8818C53.356 28.8919 53.3564 29.0999 53.3564 29.0999L52.9398 40.0116M54.53 36.4772C55.1666 35.1122 54.626 33.9884 55.2457 32.7895C55.8864 31.582 55.493 30.6056 55.5177 30.0443C55.5722 29.4953 56.0151 29.3491 55.9123 29.2201C55.7948 29.085 55.3385 29.3469 55.1388 30.0784C54.9601 30.8012 55.3931 31.2224 54.6418 32.696C53.8905 34.1696 54.4845 34.8305 53.7354 36.1318" stroke="#85340A" stroke-width="0.109046"/>
<path d="M54.0106 40.2152L57.8125 29.9763C57.8125 29.9763 57.8919 29.784 57.7671 29.7274C57.6309 29.6822 57.5515 29.8745 57.5515 29.8745L52.9778 39.7966M55.8037 37.1379C56.9159 36.1197 56.8478 34.8752 57.8806 34.004C58.936 33.1328 58.9474 32.0807 59.1857 31.5715C59.4468 31.0851 59.9121 31.119 59.8667 30.9606C59.8099 30.7909 59.2879 30.8588 58.8226 31.4584C58.3799 32.058 58.6183 32.6124 57.3585 33.6872C56.0988 34.762 56.3939 35.5992 55.2022 36.5156" fill="#F6B40E"/>
<path d="M54.0106 40.2152L57.8125 29.9763C57.8125 29.9763 57.8919 29.784 57.7671 29.7274C57.6309 29.6822 57.5515 29.8745 57.5515 29.8745L52.9778 39.7966M55.8037 37.1379C56.9159 36.1197 56.8478 34.8752 57.8806 34.004C58.936 33.1328 58.9474 32.0807 59.1857 31.5715C59.4468 31.0851 59.9121 31.119 59.8667 30.9606C59.8099 30.7909 59.2879 30.8588 58.8226 31.4584C58.3799 32.058 58.6183 32.6124 57.3585 33.6872C56.0988 34.762 56.3939 35.5992 55.2022 36.5156" stroke="#85340A" stroke-width="0.109046"/>
<path d="M53.8897 40.3935L61.3327 32.3844C61.3327 32.3844 61.48 32.237 61.3864 32.1371C61.2779 32.0434 61.1307 32.1908 61.1307 32.1908L53.0963 39.6128M56.7277 38.2345C58.1461 37.7181 58.5609 36.5423 59.8495 36.1315C61.159 35.7293 61.5734 34.7615 61.9891 34.3821C62.417 34.0322 62.8338 34.2411 62.8527 34.0774C62.8654 33.899 62.3571 33.7625 61.697 34.139C61.0579 34.5241 61.0652 35.1272 59.4888 35.6396C57.9124 36.1521 57.8636 37.0381 56.4108 37.4302" fill="#F6B40E"/>
<path d="M53.8897 40.3935L61.3327 32.3844C61.3327 32.3844 61.48 32.237 61.3864 32.1371C61.2779 32.0434 61.1307 32.1908 61.1307 32.1908L53.0963 39.6128M56.7277 38.2345C58.1461 37.7181 58.5609 36.5423 59.8495 36.1315C61.159 35.7293 61.5734 34.7615 61.9891 34.3821C62.417 34.0322 62.8338 34.2411 62.8527 34.0774C62.8654 33.899 62.3571 33.7625 61.697 34.139C61.0579 34.5241 61.0652 35.1272 59.4888 35.6396C57.9124 36.1521 57.8636 37.0381 56.4108 37.4302" stroke="#85340A" stroke-width="0.109046"/>
<path d="M52.8098 36.0965C52.7296 34.6565 51.911 34.0165 52.0715 32.6885C51.7184 33.7285 52.5691 34.5445 52.5209 36.0805M53.7568 39.8885L50.627 33.0725L53.2432 40.0965" fill="#85340A"/>
<path d="M54.3614 36.1304C54.84 34.7694 54.3295 33.8658 54.9876 32.7001C54.2621 33.5263 54.7347 34.6047 54.1006 36.0054M53.7806 39.995L53.5056 32.5038L53.2262 39.9912" fill="#85340A"/>
<path d="M55.7815 36.7532C56.7462 35.6784 56.6214 34.6489 57.6768 33.823C56.6895 34.3094 56.7122 35.4861 55.5886 36.5382M53.7614 40.1021L56.383 33.0763L53.2507 39.8871" fill="#85340A"/>
<path d="M56.854 37.8704C58.1578 37.2454 58.4377 36.2466 59.7299 35.8862C58.6309 35.959 58.2002 37.0547 56.7582 37.5982M53.7021 40.1937L58.8212 34.7028L53.3127 39.8002" fill="#85340A"/>
<path d="M53.7091 40.5117L63.6601 35.9517C63.6601 35.9517 63.8527 35.8717 63.8045 35.7437C63.7403 35.6157 63.5477 35.6957 63.5477 35.6957L53.2757 39.4877M57.1598 39.5997C58.6685 39.6637 59.5031 38.7357 60.8513 38.8477C62.2156 38.9757 62.9699 38.2397 63.4996 38.0477C64.0292 37.8877 64.3342 38.2397 64.4144 38.0957C64.4947 37.9357 64.0774 37.6157 63.323 37.7117C62.5847 37.8237 62.36 38.3837 60.7069 38.2557C59.0537 38.1277 58.6685 38.9277 57.1759 38.7357" fill="#F6B40E"/>
<path d="M53.7091 40.5117L63.6601 35.9517C63.6601 35.9517 63.8527 35.8717 63.8045 35.7437C63.7403 35.6157 63.5477 35.6957 63.5477 35.6957L53.2757 39.4877M57.1598 39.5997C58.6685 39.6637 59.5031 38.7357 60.8513 38.8477C62.2156 38.9757 62.9699 38.2397 63.4996 38.0477C64.0292 37.8877 64.3342 38.2397 64.4144 38.0957C64.4947 37.9357 64.0774 37.6157 63.323 37.7117C62.5847 37.8237 62.36 38.3837 60.7069 38.2557C59.0537 38.1277 58.6685 38.9277 57.1759 38.7357" stroke="#85340A" stroke-width="0.109046"/>
<path d="M53.4967 40.5531L64.4407 40.1365C64.4407 40.1365 64.6493 40.136 64.654 39.9994C64.6438 39.8567 64.4352 39.8571 64.4352 39.8571L53.4894 39.4418M57.0349 41.027C58.4041 41.6617 59.5314 41.1227 60.734 41.7405C61.9453 42.3792 62.9248 41.987 63.4878 42.0117C64.0386 42.0659 64.1852 42.5075 64.3146 42.405C64.4501 42.2878 64.1875 41.833 63.4537 41.6339C62.7286 41.4557 62.306 41.8874 60.8278 41.1385C59.3497 40.3895 58.6867 40.9817 57.3814 40.2349" fill="#F6B40E"/>
<path d="M53.4967 40.5531L64.4407 40.1365C64.4407 40.1365 64.6493 40.136 64.654 39.9994C64.6438 39.8567 64.4352 39.8571 64.4352 39.8571L53.4894 39.4418M57.0349 41.027C58.4041 41.6617 59.5314 41.1227 60.734 41.7405C61.9453 42.3792 62.9248 41.987 63.4878 42.0117C64.0386 42.0659 64.1852 42.5075 64.3146 42.405C64.4501 42.2878 64.1875 41.833 63.4537 41.6339C62.7286 41.4557 62.306 41.8874 60.8278 41.1385C59.3497 40.3895 58.6867 40.9817 57.3814 40.2349" stroke="#85340A" stroke-width="0.109046"/>
<path d="M53.2846 40.5099L63.5555 44.3C63.5555 44.3 63.7485 44.3792 63.8052 44.2547C63.8506 44.1189 63.6577 44.0398 63.6577 44.0398L53.7046 39.4803M56.3716 42.2974C57.393 43.4062 58.6414 43.3383 59.5153 44.3678C60.3891 45.42 61.4446 45.4313 61.9553 45.6689C62.4433 45.9291 62.4093 46.393 62.5682 46.3477C62.7384 46.2912 62.6703 45.7708 62.0688 45.3069C61.4673 44.8657 60.9112 45.1032 59.833 43.8474C58.7549 42.5916 57.9151 42.8858 56.9958 41.6978" fill="#F6B40E"/>
<path d="M53.2846 40.5099L63.5555 44.3C63.5555 44.3 63.7485 44.3792 63.8052 44.2547C63.8506 44.1189 63.6577 44.0398 63.6577 44.0398L53.7046 39.4803M56.3716 42.2974C57.393 43.4062 58.6414 43.3383 59.5153 44.3678C60.3891 45.42 61.4446 45.4313 61.9553 45.6689C62.4433 45.9291 62.4093 46.393 62.5682 46.3477C62.7384 46.2912 62.6703 45.7708 62.0688 45.3069C61.4673 44.8657 60.9112 45.1032 59.833 43.8474C58.7549 42.5916 57.9151 42.8858 56.9958 41.6978" stroke="#85340A" stroke-width="0.109046"/>
<path d="M53.1057 40.3883L61.1398 47.8082C61.1398 47.8082 61.2877 47.9549 61.3879 47.8616C61.4819 47.7535 61.3341 47.6067 61.3341 47.6067L53.8888 39.5973M55.2714 43.2174C55.7895 44.6315 56.9689 45.045 57.381 46.3295C57.7845 47.635 58.7553 48.0481 59.1359 48.4624C59.4869 48.889 59.2773 49.3046 59.4415 49.3234C59.6205 49.3361 59.7574 48.8293 59.3797 48.1713C58.9934 47.5341 58.3884 47.5415 57.8744 45.97C57.3604 44.3984 56.4716 44.3498 56.0783 42.9016" fill="#F6B40E"/>
<path d="M53.1057 40.3883L61.1398 47.8082C61.1398 47.8082 61.2877 47.9549 61.3879 47.8616C61.4819 47.7535 61.3341 47.6067 61.3341 47.6067L53.8888 39.5973M55.2714 43.2174C55.7895 44.6315 56.9689 45.045 57.381 46.3295C57.7845 47.635 58.7553 48.0481 59.1359 48.4624C59.4869 48.889 59.2773 49.3046 59.4415 49.3234C59.6205 49.3361 59.7574 48.8293 59.3797 48.1713C58.9934 47.5341 58.3884 47.5415 57.8744 45.97C57.3604 44.3984 56.4716 44.3498 56.0783 42.9016" stroke="#85340A" stroke-width="0.109046"/>
<path d="M57.4165 39.3118C58.861 39.2318 59.503 38.4158 60.8351 38.5758C59.7919 38.2238 58.9733 39.0718 57.4325 39.0238M53.6126 40.2558L60.4499 37.1358L53.404 39.7438" fill="#85340A"/>
<path d="M57.3828 40.8581C58.7481 41.3353 59.6544 40.8263 60.8238 41.4823C59.9951 40.7591 58.9133 41.2303 57.5082 40.5982M53.5061 40.2791L61.0207 40.005L53.5099 39.7265" fill="#85340A"/>
<path d="M56.7574 42.2744C57.8356 43.236 58.8683 43.1116 59.6968 44.1638C59.2088 43.1795 58.0285 43.2021 56.973 42.082M53.3981 40.2605L60.4458 42.874L53.6137 39.7514" fill="#85340A"/>
<path d="M55.6368 43.3437C56.2638 44.6434 57.2657 44.9225 57.6272 46.2106C57.5542 45.1151 56.455 44.6857 55.9099 43.2482M53.3063 40.2016L58.8143 45.3048L53.701 39.8135" fill="#85340A"/>
<path d="M53.5002 44.4502C55.9655 44.4502 57.9641 42.4578 57.9641 40.0002C57.9641 37.5425 55.9655 35.5502 53.5002 35.5502C51.0348 35.5502 49.0363 37.5425 49.0363 40.0002C49.0363 42.4578 51.0348 44.4502 53.5002 44.4502Z" fill="#F6B40E" stroke="#85340A" stroke-width="0.144568"/>
<path d="M55.005 39.0504C54.7207 39.0504 54.4198 39.1837 54.2526 39.4504C54.587 39.767 55.356 39.7837 55.8743 39.417C55.7648 39.3011 55.6327 39.2088 55.486 39.1458C55.3394 39.0827 55.1814 39.0502 55.0217 39.0504H55.005ZM55.005 39.117C55.3059 39.117 55.5901 39.2504 55.6235 39.3837C55.2892 39.767 54.7375 39.717 54.3864 39.4504C54.5535 39.217 54.7876 39.117 55.0217 39.117H55.005Z" fill="#843511"/>
<path d="M55.0717 38.8337C54.6203 38.8337 54.5199 38.9337 54.3193 39.1171C54.1187 39.2837 54.0017 39.2504 53.9849 39.2837C53.9348 39.3171 53.9849 39.4171 54.0351 39.3837C54.1187 39.3504 54.2524 39.2837 54.4531 39.1171C54.6537 38.9504 54.871 38.9504 55.0717 38.9504C55.6903 38.9504 56.0246 39.4504 56.0915 39.4171C56.1751 39.3837 55.7571 38.8337 55.0717 38.8337Z" fill="#85340A"/>
<path d="M56.309 39.0499C55.5232 38.3666 54.5201 38.2499 53.9683 38.7666C53.8413 38.9332 53.7554 39.1273 53.7176 39.3332C53.6507 39.7332 53.7677 40.1499 54.0687 40.5832L53.9349 40.6499C53.6674 40.1332 53.5671 39.5999 53.6674 39.0832L53.7677 38.6999C54.5201 38.0832 55.5566 38.0332 56.309 39.0332V39.0499Z" fill="#85340A"/>
<path d="M55.0028 39.6795C55.1681 39.6795 55.302 39.546 55.302 39.3812C55.302 39.2165 55.1681 39.0829 55.0028 39.0829C54.8376 39.0829 54.7036 39.2165 54.7036 39.3812C54.7036 39.546 54.8376 39.6795 55.0028 39.6795Z" fill="#85340A"/>
<path d="M55.8911 39.5833C55.3059 40.0333 54.7208 40 54.3864 39.8C54.052 39.5833 54.052 39.5167 54.1189 39.5167C54.1858 39.5167 54.2526 39.5833 54.5201 39.7333C54.8043 39.8667 55.2056 39.8667 55.8911 39.5833Z" fill="#85340A"/>
<path d="M52.8318 40.6169C52.7853 40.6279 52.7421 40.6497 52.7058 40.6805C52.6695 40.7114 52.641 40.7504 52.6228 40.7944C52.6046 40.8384 52.5971 40.886 52.601 40.9335C52.6049 40.9809 52.6201 41.0267 52.6452 41.0671C52.6704 41.1075 52.7049 41.1414 52.7458 41.166C52.7867 41.1905 52.8328 41.205 52.8804 41.2082C52.9281 41.2115 52.9758 41.2034 53.0196 41.1846C53.0635 41.1658 53.1022 41.1369 53.1327 41.1003C53.243 41.1685 53.3708 41.2032 53.5005 41.2003H53.5339C53.6343 41.2003 53.8014 41.1836 53.9185 41.1003C53.9686 41.1836 54.0689 41.2169 54.1693 41.2169C54.2491 41.2236 54.3283 41.1983 54.3894 41.1468C54.4505 41.0952 54.4886 41.0215 54.4953 40.9419C54.5019 40.8624 54.4766 40.7834 54.4249 40.7225C54.3731 40.6615 54.2992 40.6236 54.2194 40.6169C54.303 40.6503 54.3532 40.7169 54.3532 40.8169C54.3532 40.87 54.332 40.9209 54.2944 40.9584C54.2568 40.9959 54.2057 41.0169 54.1525 41.0169C54.0993 41.0169 54.0483 40.9959 54.0107 40.9584C53.973 40.9209 53.9519 40.87 53.9519 40.8169C53.9123 40.8992 53.8508 40.9691 53.7742 41.0191C53.6976 41.069 53.6087 41.0971 53.5172 41.1003C53.4286 41.0942 53.3433 41.0647 53.2698 41.0149C53.1964 40.9652 53.1375 40.8968 53.0993 40.8169C53.0993 40.9336 52.9989 41.0169 52.8819 41.0169C52.7816 41.0169 52.6813 40.9169 52.6813 40.8169C52.6813 40.7169 52.7314 40.6503 52.815 40.6169H52.8318ZM53.1661 41.5169C52.815 41.5169 52.6646 41.8503 52.3636 42.0336C52.5308 41.9669 52.6646 41.8336 52.9153 41.7003C53.1494 41.5669 53.35 41.7336 53.5005 41.7336C53.6343 41.7336 53.8349 41.5669 54.0857 41.7003C54.3197 41.8336 54.4702 41.9669 54.6374 42.0336C54.3197 41.8336 54.186 41.5336 53.8349 41.5336C53.768 41.5336 53.6343 41.5669 53.5005 41.6336L53.1661 41.5169Z" fill="#85340A"/>
<path d="M53.0321 41.9335C52.8984 41.9335 52.7312 41.9668 52.4637 42.0335C53.0823 41.9001 53.216 42.1168 53.5002 42.1168C53.7678 42.1168 53.9182 41.9001 54.5201 42.0335C53.8513 41.8335 53.7009 41.9668 53.5002 41.9668C53.3665 41.9668 53.2662 41.9168 53.0321 41.9335Z" fill="#85340A"/>
<path d="M52.4974 42.0334H52.3636C53.0825 42.1167 52.7482 42.5334 53.5005 42.5334C54.2528 42.5334 53.9185 42.1167 54.6374 42.0334C53.885 41.9667 54.1191 42.4167 53.5005 42.4167C52.9153 42.4167 53.0993 42.0334 52.4974 42.0334Z" fill="#85340A"/>
<path d="M54.1184 43.1502C54.1184 42.9867 54.0532 42.8298 53.9372 42.7142C53.8212 42.5985 53.6639 42.5336 53.4998 42.5336C53.3357 42.5336 53.1784 42.5985 53.0624 42.7142C52.9464 42.8298 52.8812 42.9867 52.8812 43.1502C52.9139 43.0111 52.9928 42.8871 53.1051 42.7983C53.2174 42.7096 53.3565 42.6612 53.4998 42.6612C53.6431 42.6612 53.7822 42.7096 53.8945 42.7983C54.0068 42.8871 54.0857 43.0111 54.1184 43.1502Z" fill="#85340A"/>
<path d="M50.7248 39.0499C51.5106 38.3666 52.5137 38.2499 53.0654 38.7666C53.1925 38.9332 53.2784 39.1273 53.3162 39.3332C53.3831 39.7332 53.266 40.1499 52.9651 40.5832L53.0989 40.6499C53.3664 40.1332 53.4667 39.5999 53.3664 39.0832L53.266 38.6999C52.5137 38.0832 51.4771 38.0332 50.7248 39.0332V39.0499Z" fill="#85340A"/>
<path d="M51.9621 38.8337C52.4135 38.8337 52.5138 38.9337 52.7144 39.1171C52.9151 39.2837 53.0321 39.2504 53.0488 39.2837C53.099 39.3171 53.0488 39.4171 52.9987 39.3837C52.9151 39.3504 52.7813 39.2837 52.5807 39.1171C52.3801 38.9504 52.1627 38.9504 51.9621 38.9504C51.3435 38.9504 51.0091 39.4504 50.9423 39.4171C50.8587 39.3837 51.2766 38.8337 51.9621 38.8337Z" fill="#85340A"/>
<path d="M51.9285 39.0504C51.6443 39.0504 51.3433 39.1837 51.1761 39.4504C51.5105 39.767 52.2796 39.7837 52.7979 39.417C52.6884 39.3011 52.5562 39.2088 52.4096 39.1458C52.2629 39.0827 52.1049 39.0502 51.9452 39.0504H51.9285ZM51.9285 39.117C52.2294 39.117 52.5136 39.2504 52.5471 39.3837C52.2127 39.767 51.661 39.717 51.3099 39.4504C51.4771 39.217 51.7111 39.117 51.9452 39.117H51.9285Z" fill="#843511"/>
<path d="M51.9768 39.6795C52.142 39.6795 52.276 39.546 52.276 39.3812C52.276 39.2165 52.142 39.0829 51.9768 39.0829C51.8115 39.0829 51.6776 39.2165 51.6776 39.3812C51.6776 39.546 51.8115 39.6795 51.9768 39.6795Z" fill="#85340A"/>
<path d="M51.1427 39.5833C51.7278 40.0333 52.313 40 52.6474 39.8C52.9817 39.5833 52.9817 39.5167 52.9149 39.5167C52.848 39.5167 52.7811 39.5833 52.5136 39.7333C52.2294 39.8667 51.8282 39.8667 51.1427 39.5833Z" fill="#85340A"/>
</g>
<defs>
<clipPath id="clip0_152542_2596">
<rect width="107" height="80" fill="white"/>
</clipPath>
</defs>
</svg>
