<svg width="107" height="80" viewBox="0 0 107 80" fill="none" xmlns="http://www.w3.org/2000/svg">
<g clip-path="url(#clip0_152542_2601)">
<path fill-rule="evenodd" clip-rule="evenodd" d="M0 0H107V80H0V0Z" fill="#FFE800"/>
<path fill-rule="evenodd" clip-rule="evenodd" d="M0 40.0001H107V80.0001H0V40.0001Z" fill="#00148E"/>
<path fill-rule="evenodd" clip-rule="evenodd" d="M0 59.9999H107V79.9999H0V59.9999Z" fill="#DA0010"/>
<path fill-rule="evenodd" clip-rule="evenodd" d="M45.0738 48.4663L32.936 61.2163L32.7354 60.9496L44.8397 48.1996L45.0404 48.4663H45.0738ZM53.5 50.5496L37.6507 67.2163L37.3832 66.9496L53.2158 50.2829L53.5 50.5496Z" fill="black"/>
<path fill-rule="evenodd" clip-rule="evenodd" d="M37.6996 67.0214L36.2183 68.498L34.5299 69.7682L35.804 68.085L37.2853 66.6084L37.6996 67.0214Z" fill="#808080" stroke="black" stroke-width="0.0613628"/>
<path fill-rule="evenodd" clip-rule="evenodd" d="M33.6202 60.5048L32.139 61.9815L30.4505 63.2516L31.7247 61.5685L33.2059 60.0918L33.6202 60.5048Z" fill="#808080" stroke="black" stroke-width="0.0613628"/>
<path fill-rule="evenodd" clip-rule="evenodd" d="M34.765 19.1317C34.765 19.1317 33.4334 55.0357 38.76 55.0357C44.0866 55.0357 46.7574 51.2597 46.7574 51.2597L46.6972 31.5264L34.765 19.1317Z" fill="#FFDF00" stroke="black" stroke-width="0.0905091"/>
<path fill-rule="evenodd" clip-rule="evenodd" d="M38.0228 22.4808C38.0228 24.3688 37.4284 51.2595 40.0917 51.2595C42.755 51.2595 46.7575 49.3715 46.7575 49.3715L46.6973 31.5262L38.0228 22.4808Z" fill="#0000C4" stroke="black" stroke-width="0.0905091"/>
<path fill-rule="evenodd" clip-rule="evenodd" d="M39.7531 24.2944C39.7531 26.1824 40.0916 47.4837 42.7624 47.4837H46.7574L46.6972 31.5264L39.7531 24.2944Z" fill="#E10000" stroke="black" stroke-width="0.0905091"/>
<path fill-rule="evenodd" clip-rule="evenodd" d="M34.4744 19.3328L46.5787 32.0828L46.7961 31.8162L34.6917 19.0662L34.4744 19.3328Z" fill="black"/>
<path fill-rule="evenodd" clip-rule="evenodd" d="M30.8119 26.4893C30.8119 26.4893 27.3792 61.2714 37.6773 61.2714C46.259 61.2714 46.259 55.7843 47.9754 55.7843L46.259 42.971L30.8022 26.4893H30.8119Z" fill="#FFDF00" stroke="black" stroke-width="0.101136"/>
<path d="M39.3191 32.2718C39.3926 32.2663 41.9974 26.647 48.5077 23.0901" stroke="black" stroke-width="0.10956"/>
<path fill-rule="evenodd" clip-rule="evenodd" d="M38.2537 26.9748C39.1615 27.3972 39.736 27.8832 40.259 28.4498C39.2201 28.2328 38.6841 28.1452 37.7762 27.7228C36.8684 27.3005 36.1749 26.6545 35.6239 26.1318C36.2996 26.3368 37.3409 26.5502 38.2537 26.9748Z" fill="#005B00" stroke="black" stroke-width="0.0495537"/>
<path fill-rule="evenodd" clip-rule="evenodd" d="M40.5269 30.4172C40.5934 30.5298 40.5362 30.6886 40.3955 30.7665C40.2549 30.8444 40.0864 30.8144 40.0182 30.6989C39.95 30.5834 40.0106 30.4303 40.1512 30.3524C40.2918 30.2745 40.4604 30.3045 40.5269 30.4172Z" fill="#FF0000" stroke="black" stroke-width="0.0339879"/>
<path fill-rule="evenodd" clip-rule="evenodd" d="M43.3838 23.3782C42.9904 24.3737 42.5564 25.0297 42.0562 25.6417C42.281 24.5342 42.3765 23.9657 42.7699 22.9702C43.1633 21.9747 43.7374 21.1757 44.2015 20.5397C44.0012 21.2677 43.7794 22.3772 43.3838 23.3782Z" fill="#005B00" stroke="black" stroke-width="0.0467173"/>
<path fill-rule="evenodd" clip-rule="evenodd" d="M42.0555 23.3262C41.9647 24.3217 41.7658 25.0927 41.5043 25.8747C41.4359 24.9072 41.3849 24.4237 41.4757 23.4282C41.5665 22.4327 41.845 21.4637 42.0724 20.6877C42.0756 21.3582 42.1468 22.3252 42.0555 23.3262Z" fill="#005B00" stroke="black" stroke-width="0.0403367"/>
<path fill-rule="evenodd" clip-rule="evenodd" d="M42.923 24.4649C42.4086 25.0682 41.9759 25.3299 41.5212 25.4999C41.9794 24.6632 42.204 24.2182 42.7184 23.6149C43.2328 23.0116 43.7842 22.7282 44.2269 22.5082C43.8976 23.0174 43.4403 23.8582 42.923 24.4649Z" fill="#005B00" stroke="black" stroke-width="0.0438128"/>
<path fill-rule="evenodd" clip-rule="evenodd" d="M38.5401 25.3079C39.1454 26.0319 39.4463 26.7293 39.6737 27.4999C38.8812 26.9626 38.4632 26.7119 37.858 25.9879C37.2528 25.2639 36.9117 24.3573 36.6442 23.6266C37.1358 24.0459 37.9316 24.5799 38.5401 25.3079Z" fill="#005B00" stroke="black" stroke-width="0.0501338"/>
<path fill-rule="evenodd" clip-rule="evenodd" d="M37.3219 30.8881C38.0784 31.4914 38.4776 32.1134 38.796 32.8161C37.8335 32.4181 37.328 32.2394 36.5715 31.6361C35.815 31.0327 35.3546 30.2167 34.9921 29.5581C35.595 29.8871 36.5612 30.2814 37.3219 30.8881Z" fill="#005B00" stroke="black" stroke-width="0.0532287"/>
<path fill-rule="evenodd" clip-rule="evenodd" d="M40.8646 30.5575C40.2593 31.5228 39.6046 32.1715 38.8543 32.7835C39.2161 31.7248 39.3726 31.1828 39.9778 30.2175C40.583 29.2522 41.447 28.4588 42.1452 27.8268C41.8306 28.5265 41.4731 29.5868 40.8646 30.5575Z" fill="#005B00" stroke="black" stroke-width="0.0546813"/>
<path fill-rule="evenodd" clip-rule="evenodd" d="M41.4968 30.519C40.5285 31.1826 39.6855 31.528 38.7874 31.8C39.6153 30.9496 40.0169 30.5026 40.9852 29.839C41.9536 29.1753 43.0336 28.7786 43.9017 28.4666C43.2959 28.998 42.4705 29.8516 41.4968 30.519Z" fill="#005B00" stroke="black" stroke-width="0.0525492"/>
<path fill-rule="evenodd" clip-rule="evenodd" d="M48.0254 23.5819C47.6018 24.0646 47.2219 24.3506 46.8126 24.5999C47.1614 24.0239 47.3289 23.7246 47.7526 23.2419C48.1762 22.7593 48.6651 22.4193 49.0583 22.1499C48.7988 22.5189 48.4514 23.0966 48.0254 23.5819Z" fill="#005B00" stroke="black" stroke-width="0.0278286"/>
<path fill-rule="evenodd" clip-rule="evenodd" d="M47.1073 22.1583C46.8652 22.6712 46.6064 23.0565 46.3108 23.4418C46.4593 22.929 46.5242 22.6712 46.7662 22.1583C47.0083 21.6455 47.3494 21.1638 47.6249 20.7785C47.4975 21.1298 47.3507 21.6427 47.1073 22.1583Z" fill="#005B00" stroke="black" stroke-width="0.0231174"/>
<path fill-rule="evenodd" clip-rule="evenodd" d="M48.525 23.0784C48.1014 23.3197 47.7831 23.3937 47.4647 23.4164C47.8884 23.0444 48.1014 22.8437 48.525 22.6024C48.9487 22.3611 49.3466 22.2931 49.6649 22.2424C49.3747 22.4614 48.951 22.8357 48.525 23.0784Z" fill="#005B00" stroke="black" stroke-width="0.0253398"/>
<path fill-rule="evenodd" clip-rule="evenodd" d="M42.6786 25.7821C41.9221 26.2346 41.2998 26.4979 40.6518 26.7246C41.3427 26.1787 41.6833 25.8946 42.4398 25.4421C43.1964 24.9896 43.9865 24.6779 44.6205 24.4312C44.1291 24.7796 43.4393 25.3271 42.6786 25.7821Z" fill="#005B00" stroke="black" stroke-width="0.0318161"/>
<path fill-rule="evenodd" clip-rule="evenodd" d="M44.8866 26.4582C43.888 27.0615 43.0377 27.3462 42.1396 27.5502C43.0165 26.7415 43.4446 26.3135 44.4433 25.7102C45.4419 25.1068 46.5276 24.7895 47.3996 24.5415C46.7655 25.0392 45.8908 25.8515 44.8866 26.4582Z" fill="#005B00" stroke="black" stroke-width="0.05296"/>
<path d="M38.1003 36.2225C38.1647 36.1859 37.5561 30.8925 41.6183 25.3865" stroke="black" stroke-width="0.107842"/>
<path fill-rule="evenodd" clip-rule="evenodd" d="M44.3222 25.0666C44.3886 25.1793 44.3315 25.3381 44.1908 25.416C44.0502 25.4938 43.8816 25.4639 43.8135 25.3483C43.7453 25.2328 43.8058 25.0797 43.9465 25.0018C44.0871 24.924 44.2557 24.954 44.3222 25.0666Z" fill="#FF0000" stroke="black" stroke-width="0.0339879"/>
<path fill-rule="evenodd" clip-rule="evenodd" d="M46.1279 24.0166C46.1944 24.1293 46.1372 24.288 45.9966 24.3659C45.856 24.4438 45.6874 24.4138 45.6193 24.2983C45.5511 24.1828 45.6116 24.0297 45.7523 23.9518C45.8929 23.8739 46.0614 23.9039 46.1279 24.0166Z" fill="#FF0000" stroke="black" stroke-width="0.0339879"/>
<path fill-rule="evenodd" clip-rule="evenodd" d="M41.0891 27.5458C41.1356 27.632 41.0489 27.7682 40.8926 27.8461C40.7364 27.924 40.5716 27.9159 40.5239 27.8275C40.4762 27.7392 40.5653 27.6073 40.7216 27.5294C40.8778 27.4515 41.0425 27.4597 41.0891 27.5458Z" fill="#FF0000" stroke="black" stroke-width="0.0306445"/>
<path fill-rule="evenodd" clip-rule="evenodd" d="M41.6242 27.312C41.6708 27.3981 41.584 27.5343 41.4278 27.6122C41.2715 27.6901 41.1068 27.682 41.0591 27.5937C41.0114 27.5053 41.1005 27.3734 41.2567 27.2955C41.413 27.2177 41.5777 27.2258 41.6242 27.312Z" fill="#FF0000" stroke="black" stroke-width="0.0306445"/>
<path fill-rule="evenodd" clip-rule="evenodd" d="M41.3065 27.8129C41.353 27.8991 41.2663 28.0353 41.11 28.1132C40.9538 28.1911 40.789 28.1829 40.7413 28.0946C40.6936 28.0063 40.7827 27.8744 40.939 27.7965C41.0952 27.7186 41.26 27.7267 41.3065 27.8129Z" fill="#FF0000" stroke="black" stroke-width="0.0306445"/>
<path fill-rule="evenodd" clip-rule="evenodd" d="M42.245 27.8824C42.3114 28.015 42.245 28.1807 42.0787 28.2636C41.9125 28.3464 41.7463 28.2967 41.6798 28.1476C41.6133 27.9984 41.6798 27.8493 41.846 27.7664C42.0122 27.6836 42.1785 27.7333 42.2283 27.8824H42.245Z" fill="#FF0000" stroke="black" stroke-width="0.0379471"/>
<path fill-rule="evenodd" clip-rule="evenodd" d="M42.633 27.4831C42.6831 27.6164 42.633 27.7831 42.4658 27.8664C42.2986 27.9498 42.1314 27.8998 42.0478 27.7664C41.9642 27.6331 42.0478 27.4498 42.215 27.3664C42.3822 27.2831 42.5494 27.3498 42.6162 27.4831H42.633Z" fill="#FF0000" stroke="black" stroke-width="0.0379471"/>
<path fill-rule="evenodd" clip-rule="evenodd" d="M42.713 27.6654C42.7795 27.7979 42.713 27.9802 42.5467 28.0465C42.3805 28.1128 42.2143 28.0796 42.1478 27.9471C42.0813 27.8145 42.1478 27.6488 42.314 27.5659C42.4803 27.4831 42.6465 27.5328 42.713 27.6654Z" fill="#FF0000" stroke="black" stroke-width="0.0379471"/>
<path fill-rule="evenodd" clip-rule="evenodd" d="M34.2447 30.1573C34.2447 31.9863 30.812 52.126 39.4035 57.613C42.8361 59.442 47.9852 55.784 47.9852 57.613L46.2688 42.9707L34.2447 30.1573Z" fill="#0000C4" stroke="black" stroke-width="0.101136"/>
<path fill-rule="evenodd" clip-rule="evenodd" d="M37.6776 33.8152C37.6776 35.6442 35.9612 50.2865 41.12 53.9548C44.5526 57.6128 53.1441 56.6208 53.1441 56.6208L46.269 42.9705L37.6776 33.8152Z" fill="#E10000" stroke="black" stroke-width="0.101136"/>
<path fill-rule="evenodd" clip-rule="evenodd" d="M30.7291 26.3328L46.5785 42.9995L46.8627 42.7328L31.0133 26.0828L30.7458 26.3495L30.7291 26.3328Z" fill="black"/>
<path fill-rule="evenodd" clip-rule="evenodd" d="M28.2903 24.3574L29.2964 24.5344L29.5923 24.8294C29.5519 24.8264 29.8882 25.1244 29.474 25.5374C29.0597 25.9504 28.4702 25.3581 28.4702 25.3581C28.4702 25.3581 28.6477 26.3611 29.2412 26.9527C29.8347 27.5444 30.5433 27.4247 30.5433 27.4247C30.5433 27.4247 29.8688 26.8737 30.3657 26.4217C30.8633 25.9657 31.0759 26.3037 31.0759 26.3037L31.6678 26.8937L32.0844 26.4784L29.7154 24.1167L29.5378 23.1137L28.0117 22.8617L28.2909 24.3534L28.2903 24.3574Z" fill="#CECECC" stroke="black" stroke-width="0.0282212"/>
<path fill-rule="evenodd" clip-rule="evenodd" d="M30.6252 17.3533L31.8426 19.2346L33.3838 19.6493L32.3776 20.2983L34.2123 20.2393L35.0433 20.8309L35.3409 20.3563L34.5076 19.7629L33.8582 17.9313L33.679 19.1729L32.7314 17.8116L30.6245 17.3489L30.6252 17.3533Z" fill="#CECECC" stroke="black" stroke-width="0.0303866"/>
<path fill-rule="evenodd" clip-rule="evenodd" d="M35.5777 18.4834C35.5777 18.5834 35.444 18.6684 35.2902 18.6684C35.1364 18.6684 34.9959 18.5834 34.9959 18.4834C34.9959 18.3834 35.1297 18.2934 35.2902 18.2934C35.4507 18.2934 35.5777 18.3784 35.5777 18.4834ZM35.1631 18.8784C35.1631 20.6684 36.5608 28.2684 36.6745 28.4534C36.6812 28.6784 36.3535 28.7734 36.1997 28.4984C35.7583 27.6284 34.8087 20.4984 34.7752 18.8334C34.7552 18.1484 35.0227 18.0934 35.3303 18.1084C35.5777 18.1184 35.8854 18.2934 35.8854 18.5034C35.8854 18.7534 35.4975 18.9384 35.1631 18.8784Z" fill="#E10000" stroke="black" stroke-width="0.0584234"/>
<path fill-rule="evenodd" clip-rule="evenodd" d="M36.1125 20.2581C36.0624 20.3581 35.8927 20.4098 35.7465 20.3715C35.6004 20.3331 35.5096 20.2131 35.5598 20.1131C35.61 20.0131 35.7822 19.9565 35.9346 19.9965C36.0871 20.0365 36.1652 20.1531 36.1125 20.2581ZM35.5205 20.5498C35.9819 24.1448 34.434 29.6965 34.4467 29.9148C34.3427 30.1365 33.9812 30.1548 33.9755 29.8365C33.8995 29.6298 35.6815 24.6148 35.1746 20.4081C35.4991 19.7181 35.7808 19.7298 36.0655 19.8215C36.2956 19.8931 36.5001 20.1448 36.3947 20.3548C36.2693 20.6048 35.8081 20.6931 35.5205 20.5498Z" fill="#0000C4" stroke="black" stroke-width="0.0612274"/>
<path fill-rule="evenodd" clip-rule="evenodd" d="M31.2139 25.2499C31.2139 25.4166 31.0467 25.5832 30.8461 25.5832C30.6455 25.5832 30.4783 25.4166 30.4783 25.2499C30.4783 25.0832 30.6455 24.9499 30.8461 24.9499C31.0467 24.9499 31.1972 25.0832 31.1972 25.2499H31.2139ZM30.6789 25.9166C30.6789 28.8999 32.4344 41.5666 32.5681 41.8832C32.5681 42.2499 32.1836 42.4166 31.983 41.9499C31.4313 40.4999 30.2442 28.6166 30.1941 25.8499C30.1774 24.6999 30.5117 24.6166 30.8963 24.6332C31.2139 24.6499 31.5817 24.9499 31.5817 25.2999C31.5817 25.6999 31.0969 26.0166 30.6789 25.9166Z" fill="#E10000" stroke="black" stroke-width="0.0885432"/>
<path fill-rule="evenodd" clip-rule="evenodd" d="M32.1167 26.7888C32.0498 26.9488 31.8325 27.0348 31.6479 26.9773C31.4633 26.9198 31.3517 26.7313 31.4185 26.5713C31.4854 26.4113 31.7061 26.3173 31.8987 26.3773C32.0913 26.4373 32.1869 26.6208 32.1167 26.7888ZM31.355 27.2658C31.8298 32.9653 29.6892 41.8193 29.6985 42.1658C29.5594 42.5203 29.0993 42.5578 29.102 42.0523C29.0117 41.7258 31.4333 33.7188 30.9197 27.0488C31.3537 25.9453 31.7115 25.9573 32.0706 26.0963C32.3608 26.2048 32.6129 26.5998 32.4725 26.9358C32.3053 27.3358 31.7161 27.4868 31.355 27.2658Z" fill="#0000C4" stroke="black" stroke-width="0.0862452"/>
<path fill-rule="evenodd" clip-rule="evenodd" d="M61.9264 48.4664L74.0475 61.2164L74.2648 60.9497L62.1437 48.1997L61.9264 48.4664ZM53.5001 50.5497L69.3495 67.2164L69.617 66.9497L53.7843 50.283L53.5001 50.5497Z" fill="black"/>
<path fill-rule="evenodd" clip-rule="evenodd" d="M69.3007 67.0214L70.7819 68.498L72.4704 69.7682L71.1962 68.085L69.7149 66.6084L69.3007 67.0214Z" fill="#808080" stroke="black" stroke-width="0.0613628"/>
<path fill-rule="evenodd" clip-rule="evenodd" d="M73.38 60.5048L74.8613 61.9815L76.5497 63.2516L75.2756 61.5685L73.7943 60.0918L73.38 60.5048Z" fill="#808080" stroke="black" stroke-width="0.0613628"/>
<path fill-rule="evenodd" clip-rule="evenodd" d="M72.2352 19.1315C72.2352 19.1315 73.5669 55.0355 68.2403 55.0355C62.9137 55.0355 60.2429 51.2595 60.2429 51.2595L60.303 31.5261L72.2352 19.1315Z" fill="#FFDF00" stroke="black" stroke-width="0.0905091"/>
<path fill-rule="evenodd" clip-rule="evenodd" d="M68.9775 22.481C68.9775 24.369 69.5718 51.2597 66.9085 51.2597C64.2452 51.2597 60.2427 49.3717 60.2427 49.3717L60.3029 31.5264L68.9775 22.481Z" fill="#0000C4" stroke="black" stroke-width="0.0905091"/>
<path fill-rule="evenodd" clip-rule="evenodd" d="M67.2474 24.2946C67.2474 26.1826 66.9089 47.484 64.2381 47.484H60.2431L60.3033 31.5266L67.2474 24.2946Z" fill="#E10000" stroke="black" stroke-width="0.0905091"/>
<path fill-rule="evenodd" clip-rule="evenodd" d="M72.5262 19.333L60.4218 32.083L60.2045 31.8164L72.3088 19.0664L72.5262 19.333Z" fill="black"/>
<path fill-rule="evenodd" clip-rule="evenodd" d="M62.9718 29.1788C62.9718 29.1788 66.365 33.5188 68.0021 36.8729C69.6379 40.2341 71.5478 45.3557 71.5478 45.3557C71.5478 45.3557 70.4564 40.3134 68.3967 36.2709C65.6976 31.1854 62.9704 29.4681 62.9718 29.1788Z" fill="#005B00" stroke="black" stroke-width="0.0422313"/>
<path fill-rule="evenodd" clip-rule="evenodd" d="M62.8542 25.732C62.8542 25.732 66.6408 31.0995 68.3692 35.0803C70.0954 39.0686 72.0174 45.0469 72.0174 45.0469C72.0174 45.0469 71.0845 39.2953 68.896 34.4828C66.0117 28.4103 62.8299 26.0511 62.8542 25.732Z" fill="#005B00" stroke="black" stroke-width="0.0487976"/>
<path fill-rule="evenodd" clip-rule="evenodd" d="M66.1221 20.4246C66.1221 20.4246 68.8011 28.3729 69.6175 33.2879C70.4295 38.2073 70.9254 44.9773 70.9254 44.9773C70.9254 44.9773 71.4414 39.2953 70.3471 33.2636C68.8332 25.5413 66.0111 20.6709 66.1221 20.4246Z" fill="#005B00" stroke="black" stroke-width="0.0554268"/>
<path fill-rule="evenodd" clip-rule="evenodd" d="M63.7169 20.0605C63.7169 20.0605 67.4266 27.1193 68.8716 31.9162C70.3128 36.7198 71.668 43.6502 71.668 43.6502C71.668 43.6502 71.4724 37.3545 69.6057 31.5153C67.1018 24.0975 63.6358 20.379 63.7169 20.0605Z" fill="#005B00" stroke="black" stroke-width="0.0561654"/>
<path fill-rule="evenodd" clip-rule="evenodd" d="M68.172 22.3071C68.172 22.3071 70.0181 29.9071 70.4819 34.4413C70.942 38.9784 71.0737 45.1001 71.0737 45.1001C71.0737 45.1001 71.715 40.1458 71.0714 34.5633C70.1562 27.3938 68.0727 22.5044 68.172 22.3071Z" fill="#005B00" stroke="black" stroke-width="0.0498086"/>
<path fill-rule="evenodd" clip-rule="evenodd" d="M63.2933 22.5161C63.2933 22.5161 66.8821 28.5627 68.3345 32.7894C69.7835 37.0227 71.2103 43.2094 71.2103 43.2094C71.2103 43.2094 70.8635 37.4761 68.9969 32.3427C66.5039 25.8361 63.2274 22.8161 63.2933 22.5161Z" fill="#005B00" stroke="black" stroke-width="0.051227"/>
<path fill-rule="evenodd" clip-rule="evenodd" d="M62.62 26.7278C62.62 26.7278 66.4067 31.5213 68.1351 35.1925C69.8613 38.8712 71.7833 44.4568 71.7833 44.4568C71.7833 44.4568 70.8503 38.9845 68.6619 34.557C65.7775 28.9835 62.5958 27.0397 62.62 26.7278Z" fill="#005B00" stroke="black" stroke-width="0.0482584"/>
<path fill-rule="evenodd" clip-rule="evenodd" d="M63.1116 24.5257C63.1116 24.5257 66.595 30.1649 68.1114 34.244C69.6252 38.3304 71.2369 44.392 71.2369 44.392C71.2369 44.392 70.5916 38.6477 68.6606 33.7069C66.1026 27.4607 63.0723 24.8372 63.1116 24.5257Z" fill="#005B00" stroke="black" stroke-width="0.0481549"/>
<path fill-rule="evenodd" clip-rule="evenodd" d="M66.884 20.5451C66.884 20.5451 69.1235 28.327 69.6785 33.0798C70.2291 37.8365 70.3729 44.3388 70.3729 44.3388C70.3729 44.3388 71.1727 38.9471 70.4003 33.108C69.2999 25.6241 66.7618 20.7726 66.884 20.5451Z" fill="#005B00" stroke="black" stroke-width="0.0538782"/>
<path fill-rule="evenodd" clip-rule="evenodd" d="M63.8103 18.6054C63.8103 18.6054 67.0805 25.9359 68.2642 30.8311C69.4439 35.7328 70.447 42.7464 70.447 42.7464C70.447 42.7464 70.5353 36.4581 68.9904 30.4906C66.8999 22.8991 63.718 18.9163 63.8103 18.6054Z" fill="#005B00" stroke="black" stroke-width="0.0553912"/>
<path fill-rule="evenodd" clip-rule="evenodd" d="M69.0174 22.8638C69.0174 22.8638 70.4239 30.1615 70.6264 34.4843C70.825 38.8098 70.6047 44.6221 70.6047 44.6221C70.6047 44.6221 71.5299 39.9545 71.208 34.6286C70.7063 27.7845 68.9069 23.0461 69.0174 22.8638Z" fill="#005B00" stroke="black" stroke-width="0.0478924"/>
<path fill-rule="evenodd" clip-rule="evenodd" d="M63.3926 21.6274C63.3926 21.6274 66.6628 27.9457 67.8465 32.2707C69.0261 36.6021 70.0293 42.8721 70.0293 42.8721C70.0293 42.8721 70.1175 37.1461 68.5727 31.8844C66.4822 25.2041 63.3003 21.9197 63.3926 21.6274Z" fill="#005B00" stroke="black" stroke-width="0.0523459"/>
<path fill-rule="evenodd" clip-rule="evenodd" d="M76.1882 26.4896C76.1882 26.4896 79.6209 61.2716 69.3228 61.2716C60.7411 61.2716 60.7411 55.7846 59.0247 55.7846L60.7411 42.9713L76.1979 26.4896H76.1882Z" fill="#FFDF00" stroke="black" stroke-width="0.101136"/>
<path fill-rule="evenodd" clip-rule="evenodd" d="M72.7555 30.1576C72.7555 31.9866 76.1882 52.1263 67.5968 57.6133C64.1641 59.4423 59.0151 55.7843 59.0151 57.6133L60.7314 42.9709L72.7555 30.1576Z" fill="#0000C4" stroke="black" stroke-width="0.101136"/>
<path fill-rule="evenodd" clip-rule="evenodd" d="M69.3229 33.8154C69.3229 35.6444 71.0393 50.2867 65.8805 53.955C62.4478 57.613 53.8564 56.621 53.8564 56.621L60.7315 42.9707L69.3229 33.8154Z" fill="#E10000" stroke="black" stroke-width="0.101136"/>
<path fill-rule="evenodd" clip-rule="evenodd" d="M76.271 26.333L60.4217 42.9997L60.1375 42.733L75.9868 26.083L76.271 26.3497V26.333Z" fill="black"/>
<path fill-rule="evenodd" clip-rule="evenodd" d="M78.71 24.3576L77.7038 24.5346L77.4079 24.8296C77.4484 24.8266 77.112 25.1246 77.5263 25.5376C77.9406 25.9506 78.5301 25.3583 78.5301 25.3583C78.5301 25.3583 78.3525 26.3613 77.759 26.953C77.1655 27.5446 76.457 27.425 76.457 27.425C76.457 27.425 77.1314 26.874 76.6345 26.422C76.137 25.966 75.9243 26.304 75.9243 26.304L75.3325 26.894L74.9158 26.4786L77.2849 24.117L77.4624 23.114L78.9885 22.862L78.7093 24.3536L78.71 24.3576Z" fill="#CECECC" stroke="black" stroke-width="0.0282212"/>
<path fill-rule="evenodd" clip-rule="evenodd" d="M76.3751 17.353L75.1576 19.2344L73.6165 19.649L74.6226 20.298L72.7879 20.239L71.957 20.8307L71.6594 20.356L72.4926 19.7627L73.142 17.931L73.3212 19.1727L74.2688 17.8114L76.3757 17.3487L76.3751 17.353Z" fill="#CECECC" stroke="black" stroke-width="0.0303866"/>
<path fill-rule="evenodd" clip-rule="evenodd" d="M71.4392 18.4832C71.4392 18.5832 71.573 18.6682 71.7268 18.6682C71.8806 18.6682 72.0211 18.5832 72.0211 18.4832C72.0211 18.3832 71.8873 18.2932 71.7268 18.2932C71.5663 18.2932 71.4392 18.3782 71.4392 18.4832ZM71.8539 18.8782C71.8539 20.6682 70.4562 28.2682 70.3425 28.4532C70.3358 28.6782 70.6635 28.7732 70.8173 28.4982C71.2587 27.6282 72.2083 20.4982 72.2417 18.8332C72.2618 18.1482 71.9943 18.0932 71.6867 18.1082C71.4392 18.1182 71.1316 18.2932 71.1316 18.5032C71.1316 18.7532 71.5195 18.9382 71.8539 18.8782Z" fill="#E10000" stroke="black" stroke-width="0.0584234"/>
<path fill-rule="evenodd" clip-rule="evenodd" d="M70.8877 20.2579C70.9379 20.3579 71.1076 20.4096 71.2537 20.3712C71.3998 20.3329 71.4906 20.2129 71.4405 20.1129C71.3903 20.0129 71.2181 19.9562 71.0656 19.9962C70.9131 20.0362 70.8351 20.1529 70.8877 20.2579ZM71.4797 20.5496C71.0183 24.1446 72.5663 29.6962 72.5536 29.9146C72.6576 30.1362 73.019 30.1546 73.0247 29.8362C73.1008 29.6296 71.3187 24.6146 71.8256 20.4079C71.5011 19.7179 71.2194 19.7296 70.9347 19.8212C70.7047 19.8929 70.5002 20.1446 70.6055 20.3546C70.7309 20.6046 71.1922 20.6929 71.4797 20.5496Z" fill="#0000C4" stroke="black" stroke-width="0.0612274"/>
<path fill-rule="evenodd" clip-rule="evenodd" d="M75.8032 25.2496C75.8032 25.4163 75.9704 25.583 76.1543 25.583C76.3549 25.583 76.5221 25.4163 76.5221 25.2496C76.5221 25.083 76.3549 24.9496 76.1543 24.9496C75.9537 24.9496 75.8032 25.083 75.8032 25.2496ZM76.3047 25.9163C75.9045 31.2623 75.2797 36.5891 74.4323 41.883C74.4323 42.2496 74.8168 42.4163 75.0174 41.9496C75.5691 40.4996 76.7562 28.6163 76.8063 25.8496C76.823 24.6996 76.4887 24.6163 76.1041 24.633C75.7865 24.6496 75.4187 24.9496 75.4187 25.2996C75.4187 25.6996 75.9035 26.0163 76.3215 25.9163H76.3047Z" fill="#E10000" stroke="black" stroke-width="0.0885432"/>
<path fill-rule="evenodd" clip-rule="evenodd" d="M74.8835 26.789C74.9504 26.949 75.1677 27.035 75.3523 26.9775C75.5369 26.92 75.6486 26.7315 75.5817 26.5715C75.5148 26.4115 75.2941 26.3175 75.1015 26.3775C74.9089 26.4375 74.8133 26.621 74.8835 26.789ZM75.6452 27.266C75.1704 32.9655 77.3111 41.8195 77.3017 42.166C77.4408 42.5205 77.9009 42.558 77.8983 42.0525C77.9885 41.726 75.567 33.719 76.0806 27.049C75.6466 25.9455 75.2888 25.9575 74.9297 26.0965C74.6394 26.205 74.3873 26.6 74.5278 26.936C74.6949 27.336 75.2841 27.487 75.6452 27.266Z" fill="#0000C4" stroke="black" stroke-width="0.0862452"/>
<path fill-rule="evenodd" clip-rule="evenodd" d="M47.9948 70.4263C48.7782 70.9059 49.6659 71.1582 50.5693 71.1582C51.4728 71.1582 52.3605 70.9059 53.1438 70.4263V55.784H49.7112C51.4275 61.271 51.4275 66.7683 47.9851 70.4263H47.9948Z" fill="#E10000" stroke="black" stroke-width="0.101136"/>
<path fill-rule="evenodd" clip-rule="evenodd" d="M50.7129 56.1074C50.7129 66.4324 48.226 68.7307 48.226 70.8074C49.2617 70.8074 49.9522 69.839 50.7129 68.509C51.7486 66.4324 51.8481 55.9441 51.7486 56.1074H50.7129Z" fill="#0000C4" stroke="black" stroke-width="0.0834794"/>
<path fill-rule="evenodd" clip-rule="evenodd" d="M48.6414 56.1077C48.5887 62.1394 46.0199 67.7277 46.5055 68.9644C47.0556 70.0727 48.6414 66.4327 50.7128 68.4977C51.7485 66.4327 51.848 55.9444 51.7485 56.096H48.6414V56.1077Z" fill="#0000C4" stroke="black" stroke-width="0.0834794"/>
<path fill-rule="evenodd" clip-rule="evenodd" d="M48.8739 55.228C48.8739 62.013 46.4923 62.4654 46.4923 64.2747C47.528 64.2747 48.868 63.2857 48.8739 63.3777C49.9096 62.013 50.0091 55.1207 49.9096 55.228H48.8739Z" fill="#FFDF00" stroke="black" stroke-width="0.067672"/>
<path fill-rule="evenodd" clip-rule="evenodd" d="M46.8024 55.2282C46.7497 59.1918 44.2394 62.5652 44.7251 63.3778C45.281 64.0985 46.8024 62.0132 48.8738 63.3778C49.9095 62.0132 50.009 55.1208 49.9095 55.2282H46.8024Z" fill="#FFDF00" stroke="black" stroke-width="0.067672"/>
<path fill-rule="evenodd" clip-rule="evenodd" d="M59.005 70.4263C58.2216 70.9059 57.3339 71.1582 56.4304 71.1582C55.527 71.1582 54.6393 70.9059 53.8559 70.4263V55.784H57.2886C55.5723 61.271 55.5723 66.7683 59.0146 70.4263H59.005Z" fill="#E10000" stroke="black" stroke-width="0.101136"/>
<path fill-rule="evenodd" clip-rule="evenodd" d="M56.2868 56.1074C56.2868 66.4324 58.7737 68.7307 58.7737 70.8074C57.738 70.8074 57.0475 69.839 56.2868 68.509C55.251 66.4324 55.1516 55.9441 55.251 56.1074H56.2868Z" fill="#0000C4" stroke="black" stroke-width="0.0834794"/>
<path fill-rule="evenodd" clip-rule="evenodd" d="M58.3583 56.1077C58.4109 62.1394 60.9798 67.7277 60.4941 68.9644C59.9441 70.0727 58.3583 66.4327 56.2868 68.4977C55.2511 66.4327 55.1516 55.9444 55.2511 56.096H58.3583V56.1077Z" fill="#0000C4" stroke="black" stroke-width="0.0834794"/>
<path fill-rule="evenodd" clip-rule="evenodd" d="M58.1257 55.228C58.1257 62.013 60.5073 62.4654 60.5073 64.2747C59.4716 64.2747 58.1316 63.2857 58.1257 63.3777C57.09 62.013 56.9905 55.1207 57.09 55.228H58.1257Z" fill="#FFDF00" stroke="black" stroke-width="0.067672"/>
<path fill-rule="evenodd" clip-rule="evenodd" d="M60.1973 55.228C60.2499 59.1917 62.7603 62.565 62.2746 63.3777C61.7187 64.0984 60.1973 62.013 58.1258 63.3777C57.0901 62.013 56.9906 55.1207 57.0901 55.228H60.1973Z" fill="#FFDF00" stroke="black" stroke-width="0.067672"/>
<path fill-rule="evenodd" clip-rule="evenodd" d="M40.3979 56.926L38.5983 58.224L40.3979 59.522L41.2967 58.873L41.7461 59.522L42.1955 60.82L42.6469 59.522L43.0963 58.873H67.2094V57.575H43.0943L42.6449 56.9223C42.6449 56.2733 42.7392 55.6243 43.0963 55.6243H44.8939C44.8939 54.9753 43.9951 53.6773 42.1955 53.6773C40.3979 53.6773 39.4971 54.9753 39.4971 55.6243H41.2967C41.6518 55.6243 41.7461 56.2733 41.7461 56.926L41.2967 57.575L40.3959 56.9223L40.3979 56.926Z" fill="#908F8A" stroke="black" stroke-width="0.0924851"/>
<path fill-rule="evenodd" clip-rule="evenodd" d="M45.6761 60.0726H61.4379V60.8691H45.6808L45.6761 60.0726ZM45.6761 59.2716H61.4379V60.0726H45.6808L45.6761 59.2716ZM45.6761 58.4751H61.4379V59.2761H45.6808L45.6761 58.4751ZM45.6761 57.6786H61.4379V58.4751H45.6808L45.6761 57.6786ZM45.6761 56.8821H61.4379V57.6786H45.6808L45.6761 56.8821ZM45.6761 56.0811H61.4379V56.8821H45.6808L45.6761 56.0811ZM45.6761 55.2891H61.4379V56.0811H45.6808L45.6761 55.2891Z" fill="#B74D00" stroke="black" stroke-width="0.0626023"/>
<path fill-rule="evenodd" clip-rule="evenodd" d="M46.428 55.2421L52.1876 60.8221H53.011L47.2556 55.2466H46.4322L46.428 55.2421Z" fill="#908F8A" stroke="black" stroke-width="0.108448"/>
<path fill-rule="evenodd" clip-rule="evenodd" d="M46.428 60.9908L52.1876 55.4108H53.011L47.2556 60.9863H46.4322L46.428 60.9908Z" fill="#908F8A" stroke="black" stroke-width="0.108448"/>
<path fill-rule="evenodd" clip-rule="evenodd" d="M46.5878 55.2421V60.8221H47.4163V55.2421H46.5878Z" fill="#908F8A" stroke="black" stroke-width="0.107815"/>
<path fill-rule="evenodd" clip-rule="evenodd" d="M53.8344 55.2421L59.594 60.8221H60.4174L54.6619 55.2466H53.8385L53.8344 55.2421Z" fill="#908F8A" stroke="black" stroke-width="0.108448"/>
<path fill-rule="evenodd" clip-rule="evenodd" d="M53.8344 60.9908L59.594 55.4108H60.4174L54.6619 60.9863H53.8385L53.8344 60.9908Z" fill="#908F8A" stroke="black" stroke-width="0.108448"/>
<path fill-rule="evenodd" clip-rule="evenodd" d="M59.7622 55.2421V60.8221H60.5908V55.2421H59.7622Z" fill="#908F8A" stroke="black" stroke-width="0.107815"/>
<path fill-rule="evenodd" clip-rule="evenodd" d="M54.0111 55.2421V60.8221H54.8397V55.2421H54.0111Z" fill="#908F8A" stroke="black" stroke-width="0.107815"/>
<path fill-rule="evenodd" clip-rule="evenodd" d="M52.3391 55.2421V60.8221H53.1677V55.2421H52.3391Z" fill="#908F8A" stroke="black" stroke-width="0.107815"/>
<path fill-rule="evenodd" clip-rule="evenodd" d="M65.168 39.3128C65.168 48.4061 59.7765 55.7841 53.1439 55.7841C46.5112 55.7841 41.1198 48.4061 41.1198 39.3128C41.1198 30.2195 46.5015 22.8311 53.1439 22.8311C59.7862 22.8311 65.168 30.2091 65.168 39.3025V39.3128ZM63.4517 39.3128C63.4517 47.3935 58.8359 53.9551 53.1439 53.9551C47.4518 53.9551 42.8361 47.3935 42.8361 39.3128C42.8361 31.2218 47.4518 24.6601 53.1439 24.6601C58.8359 24.6601 63.4517 31.2218 63.4517 39.3128Z" fill="#FFDF00" stroke="black" stroke-width="0.101136"/>
<path fill-rule="evenodd" clip-rule="evenodd" d="M57.8276 24.1331C56.3828 23.2961 54.8022 22.8311 53.144 22.8311C51.4859 22.8311 49.9053 23.2961 48.4604 24.1228L49.1392 25.8174C50.3586 25.0684 51.7414 24.6741 53.1489 24.6741C54.5564 24.6741 55.9391 25.0684 57.1585 25.8174L57.8276 24.1228V24.1331Z" fill="#FFDF00" stroke="black" stroke-width="0.101136"/>
<path fill-rule="evenodd" clip-rule="evenodd" d="M57.8608 54.0498C56.416 54.8868 54.8354 55.3518 53.1772 55.3518C51.5191 55.3518 49.9385 54.8868 48.4937 54.0601L49.1724 52.3654C50.3918 53.1145 51.7746 53.5087 53.1821 53.5087C54.5896 53.5087 55.9723 53.1145 57.1917 52.3654L57.8608 54.0601V54.0498Z" fill="#FFDF00" stroke="black" stroke-width="0.101136"/>
<path fill-rule="evenodd" clip-rule="evenodd" d="M63.4644 39.3163C63.4644 47.3996 58.8333 53.9496 53.149 53.9496C47.4646 53.9496 42.8502 47.3996 42.8502 39.3163C42.8502 31.233 47.4646 24.6496 53.149 24.6496C58.8333 24.6496 63.4644 31.2163 63.4644 39.3163Z" fill="#A7CFFF"/>
<path fill-rule="evenodd" clip-rule="evenodd" d="M63.4516 39.3126C63.5583 42.0613 63.0055 43.4046 62.2977 46.267C62.1134 46.577 61.231 45.5953 60.7074 45.1096C60.1838 44.624 59.951 45.5436 59.2916 44.7996C58.642 44.035 58.225 45.0063 57.7401 44.3656C57.2553 43.725 52.7656 43.6423 52.7656 43.5803C53.2117 43.353 55.5002 43.601 55.1317 42.4333C54.7147 41.214 52.1256 42.392 51.7766 40.842C51.5341 39.292 46.579 39.23 46.2202 38.858C46.3657 39.4366 50.0796 39.6846 49.9923 41.183C49.9051 41.803 46.3366 41.9786 45.9875 42.4953C45.6966 43.1463 48.7996 42.3196 48.9063 43.1153C48.9063 43.446 48.4505 43.1153 46.8408 43.632C46.0263 43.8903 48.3342 44.6963 47.4614 45.1406C46.5887 45.585 44.7172 45.7813 44.7948 45.9673C45.0857 46.8973 49.1293 47.9926 48.7317 48.1476C47.2966 48.8296 46.5402 49.274 45.8518 49.6666C43.8345 46.6472 42.7776 43.0186 42.836 39.3126C45.9099 38.1346 45.2603 37.8866 50.9426 37.8866C56.625 37.8866 58.5062 38.1243 63.4516 39.3126Z" fill="#AFFF7B" stroke="black" stroke-width="0.101136"/>
<path fill-rule="evenodd" clip-rule="evenodd" d="M63.4517 39.3123C62.676 39.3123 61.8614 39.6636 61.0275 39.6636C60.1839 39.6636 59.3306 39.302 58.4578 39.302C57.5851 39.302 56.5863 39.7773 55.6942 39.7773C54.7924 39.7773 54.007 39.3123 53.1052 39.3123C52.2034 39.3123 51.3015 39.6636 50.4094 39.6636C49.5173 39.6636 48.6349 39.302 47.7719 39.302C46.9089 39.302 46.0555 39.6636 45.2313 39.6636C44.4071 39.6636 43.6022 39.302 42.8362 39.302C42.8362 37.287 43.1271 35.365 43.6507 33.6083C46.2689 33.815 44.7174 31.986 46.2689 31.986C46.7218 31.9598 47.1747 32.0366 47.5977 32.2112C48.0207 32.3858 48.404 32.6542 48.7222 32.9986C48.9549 32.9986 50.1185 31.8206 51.4276 31.986C52.727 32.1513 52.2518 34.807 53.9876 34.9413C54.8603 35.644 55.3742 36.0883 56.5767 36.3776C58.293 36.543 63.2093 36.1193 63.2384 36.357C63.38 37.3349 63.4513 38.3228 63.4517 39.3123Z" fill="white" stroke="black" stroke-width="0.101136"/>
<path fill-rule="evenodd" clip-rule="evenodd" d="M54.7004 47.8363C54.7004 47.3803 55.1518 47.0763 55.1518 46.3483C55.1518 45.6203 54.7505 45.6043 54.7371 44.9243C54.7305 44.6443 55.0816 44.3643 55.2354 44.3323C55.3892 44.3003 55.5196 44.9243 55.5196 45.0603C55.5196 45.1963 55.3624 44.7243 55.232 44.7163C55.1016 44.7083 54.8207 44.7643 54.8207 44.9003C54.8207 45.1723 55.3156 45.5083 55.2788 46.4203C55.2421 47.3163 54.8542 47.5883 54.8542 47.8603C54.8542 48.1323 55.0214 48.8843 55.0214 48.8843C55.0214 48.8843 54.697 48.2843 54.697 47.8283L54.7004 47.8363Z" fill="black" stroke="black" stroke-width="0.0522555"/>
<path fill-rule="evenodd" clip-rule="evenodd" d="M56.1448 47.7696C56.1448 47.3136 55.6934 47.0096 55.6934 46.2816C55.6934 45.5536 56.0947 45.5376 56.1081 44.8576C56.1415 44.5376 55.7135 44.3296 55.5597 44.3056C55.4059 44.2816 55.2253 44.9456 55.2253 45.0736C55.2253 45.2016 55.4059 44.6576 55.5363 44.6496C55.6667 44.6416 56.0245 44.6976 56.0245 44.8336C56.0245 45.1056 55.5296 45.4416 55.5664 46.3536C55.6032 47.2496 55.991 47.5216 55.991 47.7936C55.991 48.0656 55.8238 48.8176 55.8238 48.8176C55.8238 48.8176 56.1482 48.2176 56.1482 47.7616L56.1448 47.7696Z" fill="black" stroke="black" stroke-width="0.0522555"/>
<path fill-rule="evenodd" clip-rule="evenodd" d="M55.6737 44.1498C55.6737 44.3665 55.5567 44.5498 55.4229 44.5498C55.2892 44.5498 55.1888 44.3665 55.1888 44.1332C55.1888 43.8998 55.2892 43.7332 55.4229 43.7332C55.5567 43.7332 55.6737 43.9165 55.6737 44.1498ZM58.5159 45.6498H58.5827V48.8998H58.4992L58.5159 45.6498ZM59.2013 45.3832H59.2849V48.6665H59.2013V45.3832Z" fill="black"/>
<path fill-rule="evenodd" clip-rule="evenodd" d="M58.9503 46.8667V46.7834L59.6191 46.9V46.9834L58.9503 46.8667Z" fill="black"/>
<path fill-rule="evenodd" clip-rule="evenodd" d="M49.3931 47.8097C49.3931 47.8097 51.9143 48.9877 52.467 49.6903C53.0101 50.393 52.7967 50.393 52.7967 50.393L58.3918 50.6307C58.3918 50.2793 59.3809 50.2793 59.6039 49.4527C59.827 48.6363 59.827 48.3987 59.827 48.3987L58.0718 48.9877L58.1688 47.9337H56.6367L56.4137 48.9877L53.1167 48.874L53.3397 46.053L52.6804 46.1667L52.5834 48.8533C52.467 48.8533 49.4998 48.037 49.3834 47.8097H49.3931Z" fill="#B74D00" stroke="black" stroke-width="0.101136"/>
<path fill-rule="evenodd" clip-rule="evenodd" d="M44.3197 30.9841C44.3197 30.9841 47.9754 29.8267 53.2505 29.9094C58.5256 29.9921 62.1813 31.2321 62.1038 31.2321C62.0262 31.2321 61.0953 29.3307 61.0953 29.3307C61.0953 29.3307 57.3717 28.2457 53.1729 28.1631C48.9839 28.0804 45.3282 28.9897 45.4154 29.0724L44.3197 30.9841Z" fill="#FEDE00" stroke="#FEDE00" stroke-width="0.101136"/>
<path fill-rule="evenodd" clip-rule="evenodd" d="M51.1595 28.2997L53.4332 28.2664L53.4667 29.5831L51.1929 29.6331L51.1595 28.2997ZM45.9432 29.0164L45.1407 30.3331L47.8492 29.9997L47.6318 28.7164L45.9432 29.0497V29.0164ZM48.2337 28.5164L50.5075 28.3331L50.6078 29.6331L48.3507 29.8331L48.2337 28.5164ZM56.4092 28.3997L54.1522 28.2331L54.0686 29.5664L56.3256 29.6997L56.4092 28.3997ZM61.2911 29.2331L62.1103 30.8331L59.6693 30.2331L59.9368 28.9497L61.2743 29.2164L61.2911 29.2331ZM59.3182 28.7331L57.0779 28.4497L56.9107 29.7497L59.1678 30.0497L59.3182 28.7331Z" fill="#38A9F9"/>
<path fill-rule="evenodd" clip-rule="evenodd" d="M53.2506 31.7281L53.0082 30.3331L52.2713 31.5214L52.5428 30.1264L51.447 30.9221L52.184 29.7544L50.8846 30.0437L51.9998 29.2584L50.6907 29.0001L51.9998 28.7314L50.8846 27.9461L52.184 28.2354L51.4373 27.0677L52.5428 27.8634L52.2713 26.4684L53.0082 27.6567L53.2506 26.2617L53.5028 27.6567L54.23 26.4684L53.9682 27.8634L55.064 27.0677L54.3173 28.2354L55.6264 27.9461L54.5112 28.7314L55.8203 29.0001L54.5112 29.2584L55.6264 30.0437L54.3173 29.7544L55.064 30.9221L53.9682 30.1264L54.2397 31.5214L53.5028 30.3331L53.2506 31.7281Z" fill="#FFDF00" stroke="black" stroke-width="0.101136"/>
<path fill-rule="evenodd" clip-rule="evenodd" d="M55.187 28.1249C55.187 28.8999 54.558 29.5249 53.7766 29.5249C52.9952 29.5249 52.3662 28.8999 52.3662 28.1249C52.3662 27.3499 52.9952 26.7166 53.7766 26.7166C54.558 26.7166 55.187 27.3499 55.187 28.1333V28.1249Z" fill="#FFDF00" stroke="black" stroke-width="0.0900365"/>
<path fill-rule="evenodd" clip-rule="evenodd" d="M53.6174 28.4329C53.6174 28.5162 53.4001 28.5996 53.1493 28.5996C52.8985 28.5996 52.6812 28.5162 52.6812 28.4329C52.6812 28.3496 52.8818 28.2662 53.1493 28.2662C53.4168 28.2662 53.6174 28.3329 53.6174 28.4329ZM54.6205 28.4329C54.6205 28.5162 54.4701 28.5996 54.2862 28.5996C54.1022 28.5996 53.9183 28.5162 53.9183 28.4329C53.9183 28.3329 54.0855 28.2662 54.2694 28.2662C54.4533 28.2662 54.6205 28.3329 54.6205 28.4329Z" fill="black"/>
<path d="M53.5681 29.0077L53.6658 29.0637C53.431 28.9207 53.538 28.9737 53.9065 29.3357C54.117 29.2137 54.157 29.1027 54.2877 28.9517" stroke="black" stroke-width="0.102147"/>
<path d="M52.6345 29.7438L52.7121 29.8265C52.5278 29.6198 52.6151 29.7232 53.0224 29.9918C53.4102 30.0435 53.8078 29.8678 54.0405 29.5785" stroke="black" stroke-width="0.101136"/>
<path fill-rule="evenodd" clip-rule="evenodd" d="M47.0464 32.4661C47.0464 32.4661 47.2136 33.7995 46.1938 35.4661C45.1906 37.1161 45.3411 36.5328 45.3411 36.5328C45.3411 36.5328 45.8092 37.4495 45.7256 37.4495C45.642 37.4495 44.9399 36.6161 44.9399 36.6161L44.1039 37.5328C44.1039 37.5328 44.873 36.1161 44.7894 36.1161C44.7058 36.1161 44.5553 35.6161 44.5553 35.6161L45.1739 35.3661C45.1739 35.3661 46.1102 33.6328 46.1102 33.7161C46.1102 33.7995 43.3181 35.6161 43.3181 35.6161L47.0464 32.4828V32.4661ZM47.665 32.9661C47.5814 32.9661 48.0495 34.2995 48.4508 34.9661C48.8353 35.6328 48.8353 36.4495 48.8353 36.4495L50.1561 37.1161L48.4508 34.5495L49.5375 34.9495L47.665 32.9661ZM47.665 36.4495C47.665 36.4495 48.6013 37.4495 48.6681 37.7828C48.735 38.1161 48.7517 38.8495 48.7517 38.8495L48.3672 38.0161L47.8155 38.7661C47.8155 38.7661 48.2167 37.5995 48.1331 37.5161C48.0495 37.4328 47.5145 37.9328 47.5145 37.9328C47.5145 37.9328 47.7486 37.2661 47.7486 37.1995C47.7486 37.1328 47.7486 36.6995 47.665 36.4495ZM43.0005 38.7661C43.3181 38.5161 43.9367 38.3495 43.9367 38.3495C43.9367 38.3495 43.5522 39.0161 43.4686 39.0161C43.385 39.0161 43.1677 39.0161 43.0005 38.7661ZM53.7172 35.1328C53.7172 35.1328 55.7402 36.3661 55.7402 36.4495C55.7402 36.5328 54.4194 35.8661 54.4194 35.8661L53.7172 35.1328ZM50.0725 32.5495C50.2397 32.6328 53.0317 34.9495 52.9481 34.9495C52.8645 34.9495 51.711 34.2828 51.711 34.3828V34.9495L51.0756 33.6328L50.9252 34.1328L50.0892 32.5495H50.0725ZM50.7747 36.2828L51.5438 37.8495L52.3295 37.6828C52.3295 37.6828 50.8583 36.2828 50.7747 36.2828ZM53.1822 35.2828L53.2658 36.7828C53.2658 36.7828 53.7172 37.1995 53.7172 37.1161C53.7172 37.0328 53.2658 35.3661 53.1822 35.2828Z" fill="#B7E1FF"/>
<path fill-rule="evenodd" clip-rule="evenodd" d="M30.5286 14.9166C30.5286 14.9166 34.0395 12.9833 38.0353 11.5499C40.9751 10.4731 44.0086 9.66971 47.0968 9.14993C48.2672 9.14993 50.3068 12.1166 50.6412 12.1166C50.9756 12.1166 52.3298 11.2833 54.0351 11.2833C55.7404 11.2833 56.7268 12.6166 57.0779 12.6166H60.1207C60.4551 12.6166 59.1009 9.3166 60.1207 9.48327C60.6223 9.5666 64.9357 10.2333 68.9482 11.5166C72.9607 12.8166 78.6451 15.1166 78.6451 15.1166C78.6451 15.1166 69.3662 16.3333 66.8751 15.9833C66.5407 16.1499 66.8751 18.1499 66.3736 17.2666C65.6045 17.0999 62.7456 16.6499 62.244 16.6499C61.7425 16.6499 60.7895 17.2166 59.4353 17.5499C58.0978 17.8833 56.3925 18.3833 56.3925 18.3833L58.5993 21.8333L55.8909 23.1666C55.8909 23.1666 54.2023 19.1999 53.5168 19.1999C52.8314 19.1999 52.5137 21.9999 51.6611 21.8333C50.8251 21.6666 50.4907 19.1999 49.8053 18.5333C49.1365 17.8833 45.5587 17.6333 44.2045 17.3166C42.867 16.9833 40.6768 16.7333 39.4898 16.3999C38.3195 16.0666 37.1158 17.2333 36.6142 17.2333C36.1126 17.2333 37.2829 16.2333 36.7814 16.0666C36.2798 15.8999 35.9454 16.5666 35.6111 16.5666C35.2767 16.5666 31.7156 15.8999 31.3812 15.7333C31.0468 15.5666 32.2172 14.9166 31.8828 14.9166H30.5286Z" fill="#984000"/>
<path fill-rule="evenodd" clip-rule="evenodd" d="M55.7504 13.2663C55.7504 14.1849 54.9927 14.9303 54.0621 14.9303C53.1316 14.9303 52.3776 14.1849 52.3776 13.2663C52.3776 12.3476 53.1316 11.6066 54.0621 11.6066C54.9927 11.6066 55.7504 12.3519 55.7504 13.2663Z" fill="#808080" stroke="#772600" stroke-width="0.111933"/>
<path fill-rule="evenodd" clip-rule="evenodd" d="M47.1918 13.5832C47.4942 13.2312 47.8689 12.6979 48.8484 12.6979C49.0741 12.6072 49.0741 12.0739 49.5978 12.0739C50.1259 12.0739 49.9724 12.6072 50.3516 12.7886C50.7263 12.9646 53.8094 12.6072 53.8094 12.6072C53.8094 12.6072 54.1073 12.8739 54.1073 13.2312C54.1073 13.5886 53.8816 13.8499 53.8094 13.8499C53.7372 13.8499 50.7263 13.5832 50.5006 13.6739C50.2749 13.7646 50.1259 13.8499 49.5978 13.8499C49.0741 13.8499 48.9207 13.2312 48.546 13.2312C48.1713 13.2312 47.7967 13.1406 47.1918 13.5886V13.5832Z" fill="#984000" stroke="#772600" stroke-width="0.197056"/>
<path d="M56.3645 13.3974H57.5652C57.9986 13.4028 58.1476 13.5574 58.5448 13.5734H59.5966C59.9803 13.5574 60.1834 13.4508 60.5716 13.3974C61.2262 13.3868 61.005 13.3281 60.8741 12.8641C60.7567 12.5174 60.7386 12.3521 60.5716 12.1548C60.5084 11.7281 60.364 11.5788 60.3459 11.0881C60.2782 10.7148 60.1518 10.4641 60.2737 10.0214C60.4452 10.3254 60.5129 10.4481 60.9508 10.4694C61.4022 10.4694 61.5783 10.4534 61.8536 10.6454C62.0613 10.9068 62.3411 10.8214 62.7564 10.8214C63.0995 10.8961 63.1582 11.1041 63.429 11.2641C63.7495 11.4774 63.9572 11.5308 64.4041 11.5308C64.7652 11.6108 65.0812 11.6694 65.3069 11.7974C65.501 12.0694 65.8034 12.1388 66.2097 12.1548C66.4354 12.1548 66.6159 12.1281 66.81 12.0641C67.1576 12.0854 67.5097 12.0641 67.9386 12.0641C68.2184 12.4481 68.2816 12.5921 68.7646 12.5974C69.0987 12.8748 69.3785 12.9174 69.6674 13.0401H70.796C71.2022 13.0774 71.3286 13.2748 71.6988 13.3974C72.0163 13.567 72.3419 13.7148 72.6738 13.8401C72.9969 13.9092 73.3251 13.9396 73.6534 13.9308C73.9287 14.1014 74.2673 14.1121 74.4794 14.2828C74.7909 14.3628 75.2152 14.4588 75.4545 14.5494C75.8517 14.6134 76.0052 14.7628 76.3573 14.8161C76.6597 14.9228 76.258 15.0081 76.0548 15.0828C75.6125 15.0668 75.5809 14.8694 75.152 14.8161C74.9263 14.6614 74.5833 14.6828 74.2492 14.5494H74.177C74.4749 14.7628 74.7638 14.8961 74.6284 15.2641C74.2447 15.2641 73.9332 15.2054 73.5766 15.1734C73.1974 15.0881 73.0259 14.9974 72.6016 14.9974C73.0259 14.8748 73.1343 15.0081 73.4277 15.1734C73.536 15.6001 73.3013 15.4401 72.8995 15.4401C72.5564 15.2961 72.3488 15.1201 71.9245 15.0828H71.0217C71.4686 15.1041 71.5634 15.3014 71.8477 15.5308C71.8703 15.6694 71.8432 15.6588 71.622 15.7068C71.3873 15.4668 71.0849 15.3868 70.7192 15.2641C70.3626 15.2481 69.9879 15.2108 69.6674 15.0828C69.4463 15.0668 69.4824 14.7574 69.9699 15.2641C70.2633 15.4668 70.3671 15.6374 70.3446 15.7974C69.9563 15.6801 69.7668 15.4988 69.5185 15.3494C69.1808 15.2111 68.8236 15.1513 68.4667 15.1734C68.0785 15.0508 68.5073 14.9814 68.7646 15.4401C69.3244 15.9094 68.6924 15.7068 68.4667 15.6161C68.1282 15.5041 67.7761 15.3388 67.4872 15.2641C67.2615 15.1841 67.0628 15.1094 66.81 15.0828C67.2028 15.1254 67.3337 15.2908 67.4872 15.6161C67.8844 15.9361 67.4691 15.7814 67.1125 15.7068C66.8868 15.4721 66.5934 15.3494 66.4354 15.0828C66.0607 14.8641 66.0472 14.6028 66.2864 15.1734C66.3451 15.3548 66.3316 15.7494 66.3586 15.7974C66.0833 15.4401 66.142 15.3494 65.835 15.3494C65.6229 15.1788 65.3159 15.0454 65.1579 14.8161C64.869 14.7841 64.8509 14.6614 64.5575 14.5494C64.7968 14.8854 65.1173 15.2161 65.3069 15.5308C65.6499 15.7548 65.7447 15.9574 65.984 16.1494C66.0788 16.3468 66.3451 16.5068 66.0607 16.2401C65.7357 15.8668 65.4965 15.7761 65.0089 15.5308C64.7291 15.2641 64.6298 15.1574 64.3318 14.9068C63.9256 14.7521 64.0836 14.6668 64.3318 15.1734C64.6162 15.4828 64.8329 15.8241 65.0812 16.0641C65.2759 16.3389 65.5041 16.5779 65.7583 16.7734C65.826 16.8908 66.0291 16.9121 65.7583 16.9494C65.5326 16.7041 65.1985 16.5494 64.9322 16.3254C64.5575 16.2028 64.3815 15.9734 64.1061 15.7068C63.9256 15.3921 63.6367 15.1521 63.429 14.9068C62.9957 14.7041 63.5148 15.0988 63.6547 15.3494C63.7495 15.6748 63.8714 15.9361 63.9526 16.2401C64.079 16.5334 63.5735 16.1708 63.429 16.0641C63.132 15.8368 62.7986 15.6843 62.4495 15.6161C62.1503 15.5454 61.8492 15.4867 61.5467 15.4401C61.2081 15.3334 61.7317 15.6961 61.9258 16.0641C62.305 16.4854 61.5512 16.1388 61.3255 16.0641C60.9528 15.9893 60.5747 15.9589 60.1969 15.9734C59.7139 16.0054 60.0615 16.0801 60.1969 16.3254C60.3459 16.4641 60.4497 16.7521 60.4227 16.8588C60.1067 16.8054 59.8358 16.6988 59.4431 16.6828C59.1271 16.8054 58.7524 16.7734 58.3913 16.7734C58.3778 16.9974 58.459 16.8054 58.617 17.0401C58.8788 17.1628 59.0504 17.3121 58.9962 17.4828H56.8159C56.5767 17.5574 56.8656 17.5201 57.0416 17.8401C56.9423 18.1281 56.8159 18.0161 56.5135 18.0161C56.3103 17.9201 55.8996 17.8774 55.6874 17.7494C55.4752 17.7494 55.4933 17.6854 55.3127 17.6588C55.9447 18.1921 55.6287 18.0588 55.9898 18.4588C56.0485 18.4854 56.193 18.5494 56.0621 18.5494M51.1011 21.3921C51.056 21.3921 50.9567 21.1041 50.8032 20.8588C50.6948 20.5388 50.5594 20.7201 50.424 20.2348C50.4421 19.7334 50.4556 19.6481 50.424 19.1681C50.117 18.9121 49.9861 18.8374 49.7469 18.3681C49.3677 17.9948 49.8056 17.3548 49.8778 16.8854C49.5438 16.8001 49.3813 17.4988 48.8712 17.7494C48.501 18.0428 48.826 17.1414 48.6455 16.6188C48.5236 15.8774 48.1579 16.9921 48.0225 17.3068C47.7742 17.5041 47.6975 17.7601 47.3454 17.3921C47.3454 17.1201 47.5666 16.3521 47.4718 16.2028C47.1197 16.4108 46.6593 17.0294 46.2936 17.1254C45.9235 17.0348 46.3704 16.3361 46.3704 15.8188C46.235 15.7654 45.7068 17.1948 45.4901 17.2054C45.2735 17.2161 45.3683 15.8188 45.2644 15.8508C45.1064 16.1174 44.7859 16.6721 44.5648 16.8641C44.1359 16.7948 44.6279 15.9308 44.6911 15.6108C44.7634 15.2268 44.2894 16.3468 44.0366 16.4161C43.8515 16.6081 43.4859 16.7361 43.3595 16.7734C43.5039 16.4428 44.2172 15.7761 44.172 15.5841C43.7522 15.6001 43.1157 16.2508 42.7591 16.3308C42.5244 16.3308 42.1994 16.4214 42.1588 16.4161C42.1768 15.9894 43.0345 15.6374 43.1699 15.3761C42.7501 15.4561 41.9421 15.8934 41.7073 16.2401C41.4275 16.3094 41.0754 16.4001 40.8045 16.2401C40.8452 15.8401 41.4771 15.0668 41.6171 14.8108C41.2334 15.0081 41.0438 15.1628 40.6375 15.2534C40.5608 15.3441 40.3441 15.5361 40.4118 15.3441C40.5337 14.9708 40.7143 14.8108 40.8632 14.5441C40.5247 14.6188 40.3983 14.8481 40.0371 15.0774C39.8069 15.0881 39.1479 15.8721 38.9267 15.8828C38.5523 16.2314 38.1153 16.4741 37.6492 16.5921C37.3061 16.6668 37.1391 16.7521 36.9721 16.9494C37.1436 16.5921 37.4054 16.2561 37.6492 16.0641C37.798 15.7404 38.0373 15.4877 38.3263 15.3494C38.4121 15.2268 38.6468 15.1948 38.3985 15.1734C38.1864 15.3974 37.8253 15.6534 37.6492 15.7974C37.419 15.9681 37.1527 16.1388 37.0443 16.0641C37.1662 15.6801 37.3829 15.5841 37.5725 15.2641C37.9697 14.9654 37.5725 15.1574 37.27 15.2641C37.0759 15.4668 36.7283 15.6214 36.444 15.7974C36.128 15.8934 35.9158 16.1174 35.5411 16.2401C35.5411 16.3681 35.6495 16.0108 35.6946 15.8828C36.0016 15.4881 36.0828 15.3761 36.444 15.2641C36.5342 15.1094 36.6426 15.1734 36.3717 15.1734C36.1641 15.3868 35.8842 15.5041 35.6179 15.7068C35.3516 15.7761 35.004 15.7974 34.6428 15.7974C34.1734 15.8614 34.214 15.9041 34.6428 15.6161C34.8821 15.3494 35.0807 15.4188 35.0942 15.0828C34.8099 15.3281 34.4623 15.5094 34.1147 15.7068C33.8258 15.7174 33.7491 15.7974 33.4376 15.7974C33.5866 15.6161 33.6768 15.3868 33.889 15.2641C34.205 14.8534 33.6904 15.1841 33.5866 15.2641H32.458C32.2594 15.5628 32.449 15.2641 32.6115 15.0828C32.8056 14.9654 33.0088 14.8108 32.9862 14.7308C32.7605 14.9601 32.5032 15.0668 32.3091 15.2641C32.1014 15.3388 31.8577 15.3708 31.8577 15.4401C32.0247 15.1574 32.291 14.9814 32.4626 14.7308C32.7153 14.6668 32.932 14.5708 32.9862 14.4641H31.9344H32.6837C33.0674 14.4641 33.3924 14.4214 33.74 14.3734C34.3359 14.2561 33.6859 14.1974 33.3608 14.1974C33.3022 14.0588 33.5504 13.9841 33.8123 13.9308C34.038 13.8028 34.3223 13.6908 34.5661 13.5734C34.7813 13.496 34.9841 13.3771 35.1665 13.2214C34.9408 13.2321 34.9408 13.2961 34.7151 13.3068C35.0536 13.2801 35.2929 13.2214 35.6946 13.2214C36.0255 13.0926 36.3509 12.9448 36.6697 12.7788C36.8051 12.5868 36.8592 12.5974 36.5207 12.5974C36.8231 12.4854 37.252 12.4268 37.4957 12.3308C37.8069 12.2538 38.1097 12.1357 38.3985 11.9788C38.6197 11.8028 38.7461 11.5948 38.9989 11.4454C39.2923 11.6801 39.2968 11.7121 39.825 11.7121C40.2493 11.7068 40.5111 11.5841 40.7278 11.3548C41.0528 11.2481 41.1115 11.0668 41.4816 11.0028C41.8295 11.0673 42.1814 11.0959 42.5334 11.0881C42.8945 10.9761 43.2421 10.7681 43.5085 10.5548C43.7387 10.4214 44.014 10.2294 44.2623 10.1121C44.5332 10.2774 44.7498 10.4108 45.0884 10.4694C45.436 10.4054 45.621 10.2028 45.9145 10.1121C46.0954 9.88454 46.3322 9.72972 46.5916 9.66944C47.0294 9.41344 46.9978 9.74944 47.1919 10.0214C47.4176 10.2988 47.7065 10.1654 48.018 10.2881C48.1941 10.6081 48.3205 10.8214 48.5462 10.9974C48.7222 11.2534 48.9298 11.3174 49.3 11.3548C49.4354 11.5681 49.3271 11.7174 49.5979 11.7974C49.7063 11.9361 49.8913 11.9894 50.0493 12.0641" stroke="#772600" stroke-width="0.130131"/>
<path d="M55.498 19.1256V19.1683C55.498 19.0456 55.498 19.1149 55.5747 19.3496C55.6018 19.5416 55.5386 19.5203 55.4618 19.6589C55.4483 19.8563 55.4257 20.0003 55.4257 20.2349C55.3986 20.4269 55.3084 20.6082 55.2361 20.7682C55.1639 20.9336 54.8524 21.0296 54.8615 21.2589C54.6809 21.3176 54.6764 21.1789 54.6719 20.9443C54.5635 20.8003 54.5274 20.6029 54.4462 20.4109C54.401 20.2296 54.2927 20.0909 54.2205 19.8776C54.1121 19.6803 54.0173 19.6216 53.9225 19.3923C53.8819 19.2856 53.8909 19.1469 53.8097 19.0829C53.6878 18.8963 53.6066 18.8696 53.3944 18.8589C53.2319 18.9016 53.1687 18.9869 53.0197 19.0349C52.9024 19.0829 52.6767 19.0669 52.5322 19.1256C52.4961 19.1949 52.6044 19.2323 52.6451 19.3923C52.5458 19.4883 52.5096 19.6536 52.4555 19.7923C52.3652 19.9256 52.3065 19.9896 52.2659 20.1923C52.3291 20.3149 52.2749 20.4803 52.1937 20.5923C52.1666 20.7949 52.0808 20.9069 52.0402 21.0776C51.9228 21.1789 51.8777 21.2696 51.7784 21.4349C51.6926 21.5789 51.6159 21.5682 51.4037 21.5682C51.2367 21.5149 51.2141 21.4082 51.0651 21.3442C51.0516 21.2909 51.0381 21.2749 50.9884 21.2589" stroke="#782600" stroke-width="0.115259"/>
<path fill-rule="evenodd" clip-rule="evenodd" d="M51.4267 20.9162C51.4267 20.9162 51.3598 21.7495 50.8248 22.2995C50.2898 22.8495 49.1864 23.4828 49.1864 23.4828C49.1864 23.4828 50.6744 22.7828 50.8248 22.9328C50.992 23.0995 49.8719 24.3162 49.8719 24.3162C49.8719 24.3162 51.3264 23.0328 51.5103 23.0328C51.6942 23.0328 52.1122 24.2828 52.2794 24.2495C52.4298 24.2162 51.945 22.6662 52.0119 22.4162C52.0787 22.1828 52.0119 20.8662 52.0119 20.8662L51.4434 20.9162H51.4267ZM54.8541 20.8162C54.8541 20.8162 54.7872 21.6995 54.2522 22.2828C53.7172 22.8662 52.6137 23.5495 52.6137 23.5495C52.6137 23.5495 54.1017 22.7995 54.2522 22.9662C54.4194 23.1328 53.2992 24.4328 53.2992 24.4328C53.2992 24.4328 54.7537 23.0662 54.9376 23.0662C55.1216 23.0662 55.5395 24.3995 55.7067 24.3662C55.8572 24.3328 55.3723 22.6662 55.4392 22.4162C55.5061 22.1495 55.4392 20.7495 55.4392 20.7495L54.8541 20.8162ZM50.0558 12.8162C50.0558 12.9662 49.8886 13.0995 49.7047 13.0995C49.5208 13.0995 49.3369 12.9662 49.3369 12.7995C49.3369 12.6328 49.5041 12.4995 49.7047 12.4995C49.9053 12.4995 50.0558 12.6328 50.0558 12.7995V12.8162Z" fill="#812E00"/>
</g>
<defs>
<clipPath id="clip0_152542_2601">
<rect width="107" height="80" fill="white"/>
</clipPath>
</defs>
</svg>
