<svg width="107" height="80" viewBox="0 0 107 80" fill="none" xmlns="http://www.w3.org/2000/svg">
<g clip-path="url(#clip0_152542_2594)">
<path fill-rule="evenodd" clip-rule="evenodd" d="M-6.68726 0H113.688V80H-6.68726V0Z" fill="#199D00"/>
<path fill-rule="evenodd" clip-rule="evenodd" d="M23.6412 22.6716C23.5158 24.5466 23.3277 27.8279 24.9422 28.1716C26.87 28.3591 25.8042 24.9216 26.5095 24.2966C26.6349 23.9841 26.87 23.9841 26.8857 24.3748V27.2966C26.8857 28.2341 27.5127 28.5154 27.9829 28.7029C28.4844 28.6716 28.8293 28.7029 29.0173 29.1716L29.2681 34.2185C29.2681 34.2185 30.428 34.5623 30.4907 31.3904C30.5377 29.5154 30.1145 27.9685 30.3653 27.6091C30.3653 27.2498 30.8355 27.2341 31.149 27.406C31.6506 27.7498 31.87 28.1873 32.6537 28.031C33.8449 27.6873 34.5659 27.1091 34.5816 26.2029C34.558 25.3123 34.3721 24.4334 34.033 23.6091C34.0957 23.4529 33.8135 23.031 33.8762 22.8748C34.08 23.2185 34.4091 23.1873 34.4718 22.8748C34.2681 22.2185 33.9546 21.5779 33.453 21.3123C33.0298 20.9373 32.4029 20.9998 32.1991 21.781C32.0737 22.6716 32.5126 23.7185 33.1552 24.5935C33.2963 24.9216 33.4844 25.4841 33.406 25.9841C33.0612 26.1873 32.7164 26.0935 32.4186 25.7966C32.4186 25.7966 31.4781 25.0935 31.4781 24.9216C31.7289 23.3279 31.5252 23.1404 31.3841 22.6873C31.2901 22.0779 30.9923 21.8748 30.7571 21.4685C30.522 21.2185 30.2086 21.2185 30.0518 21.4685C29.6286 22.1873 29.8324 23.7341 30.1302 24.4373C30.3496 25.0779 30.6788 25.4841 30.522 25.4841C30.3966 25.8435 30.1302 25.7498 29.9264 25.3279C29.6971 24.4401 29.5864 23.5259 29.5973 22.6091C29.5189 21.8904 29.4249 20.3591 28.939 19.9529C28.6568 19.5779 28.2337 19.7654 28.0769 20.1091C28.0355 20.8072 28.0513 21.5074 28.1239 22.2029C28.4374 23.3591 28.5471 24.3904 28.7039 25.5623C28.7509 27.1404 27.7948 26.2498 27.8418 25.4529C28.0474 24.4511 28.0314 23.4166 27.7948 22.4216C27.6381 22.0154 27.4656 21.9216 27.0738 21.9841C26.776 21.9841 26.008 22.8123 25.7885 24.2185C25.7885 24.2185 25.6005 24.9373 25.5221 25.5779C25.4124 26.2966 24.9422 26.8279 24.5973 25.4841C24.3152 24.4998 24.1271 22.1091 23.6569 22.6716H23.6412Z" fill="white"/>
<path fill-rule="evenodd" clip-rule="evenodd" d="M28.892 30.3435L23.8763 32.7498C23.9234 31.6091 26.2431 29.5623 27.8418 29.5466C28.8606 29.5623 28.6098 29.9373 28.8763 30.3435H28.892Z" fill="white"/>
<path fill-rule="evenodd" clip-rule="evenodd" d="M27.9986 31.9065C25.3654 38.7033 34.1897 39.6565 35.1772 32.1877C35.2712 31.8752 35.6474 31.5783 35.7101 32.0783C35.5063 38.844 28.8763 39.2971 27.7478 37.1721C27.4823 36.4409 27.3496 35.6684 27.3559 34.8908C27.1992 33.5627 26.4939 34.0783 26.3842 35.3908C26.2744 36.1252 26.3058 36.3283 26.3058 37.0315C26.6506 42.3752 35.1928 40.0783 36.5878 35.6721C37.3245 33.2346 36.4624 31.4377 36.8543 31.4377C37.7007 32.344 38.8919 31.5627 39.1583 31.2502C39.268 31.094 39.5502 30.9846 39.7383 31.1877C40.3966 31.6565 41.5564 31.4377 41.8072 30.6096C41.9483 29.7815 42.058 28.9377 42.0893 28.0783C41.5407 28.2346 41.1489 28.344 41.1019 28.5783L40.9922 29.2971C40.9451 29.5315 40.4906 29.5315 40.4592 29.2346C40.2555 28.2971 39.4091 28.1877 38.8919 29.6252C38.5627 29.9065 37.9358 29.969 37.8731 29.5471C37.9514 28.5783 37.5596 28.4533 36.7759 28.9065L36.0236 23.2502C36.337 23.2502 36.6505 23.4846 36.9483 23.1096C36.6348 22.094 35.9295 20.0315 35.5377 19.8752C35.3653 19.6565 35.2085 19.7971 34.9577 19.8596C34.5502 19.9846 34.174 20.3283 34.2994 21.0158C34.7696 23.9533 35.0831 26.1877 35.569 29.1408C35.6474 29.469 35.3653 29.9221 34.9891 29.8752C34.3621 29.4533 34.2054 28.594 33.1082 28.6252C32.3245 28.6252 31.4468 29.4846 31.3371 30.2971C31.196 30.9533 31.149 31.6565 31.3371 32.219C31.8857 32.8752 32.544 32.8127 33.1239 32.6721C33.5941 32.469 33.986 32.0002 34.1584 32.1096C34.2681 32.2502 34.174 33.8127 31.917 35.0002C30.5534 35.6252 29.4562 35.7502 28.8763 34.6408C28.5158 33.9377 28.9076 31.2971 27.9986 31.9065Z" fill="white"/>
<path fill-rule="evenodd" clip-rule="evenodd" d="M39.237 25.0002C39.7543 24.8127 42.2621 21.9377 42.2621 21.9377L41.8859 21.6252C41.7448 21.5158 41.7605 21.3908 41.8859 21.2814C42.5129 20.9064 42.3091 20.1252 41.9956 19.7502C41.7828 19.6468 41.5487 19.5943 41.312 19.597C41.0752 19.5998 40.8424 19.6575 40.632 19.7658C40.1931 20.1877 40.0991 20.8596 40.4439 21.2658C40.7731 21.4221 41.1022 21.7658 40.8828 21.9533C39.8483 23.0471 37.0427 24.9377 37.3718 25.0002C37.4345 25.0939 39.1743 25.0939 39.2214 25.0002H39.237ZM24.0334 35.1564C23.093 36.6564 23.0146 38.8908 23.5319 39.5627C23.814 39.8752 24.2685 40.0158 24.5977 39.9064C25.1933 39.6564 25.4597 38.4533 25.3187 38.0314C25.1149 37.7189 24.9582 37.6721 24.7544 37.9221C24.3469 38.7658 24.1745 38.1877 24.1275 37.7189C24.0825 36.9251 24.1246 36.1287 24.2529 35.3439C24.3626 34.6877 24.2529 34.8752 24.0334 35.1564ZM64.3308 32.7658C63.4217 30.7971 62.1522 28.8596 61.7603 28.1252C60.5389 26.2003 59.2422 24.3238 57.8732 22.5002C56.9014 21.3439 59.4719 22.9846 57.5597 20.6721L56.1648 19.5002C55.8513 19.2814 55.0989 18.8752 54.9736 19.5314C54.9109 20.1252 54.9422 20.4377 55.0362 20.9221C55.1146 21.2346 55.5848 21.7814 55.8199 22.0939C59.0333 26.3368 61.8556 30.8604 64.2525 35.6096C64.66 35.4064 64.5659 33.0939 64.3308 32.7658Z" fill="white"/>
<path fill-rule="evenodd" clip-rule="evenodd" d="M60.3342 39.2973C60.1462 39.5004 60.7731 40.3598 61.5882 40.3598C62.9361 40.2036 64.1273 39.4536 65.2245 37.4536C65.6703 36.7883 65.9547 36.0286 66.0552 35.2348C66.1879 31.4417 65.8829 27.646 65.1461 23.9223C65.0991 23.6098 65.1461 23.2348 65.1775 23.1411C65.2715 23.0317 65.5693 23.1411 65.726 22.8754C65.9612 22.6411 65.0991 20.6879 64.6289 19.9536C64.4721 19.6098 64.3938 19.3911 64.1116 19.9848C63.7712 20.64 63.6091 21.3727 63.6414 22.1098C64.2841 26.5629 64.4878 30.4536 64.8953 34.9067C64.9424 35.3442 64.8797 35.9692 64.5819 36.2192C63.3992 37.5319 61.9517 38.5808 60.3342 39.2973ZM78.5943 39.2817C77.6225 39.8442 77.6225 40.4848 78.4062 40.5004C79.7541 40.3442 81.3529 40.2348 82.45 38.5786C82.8376 37.7985 83.0616 36.9478 83.1083 36.0786C83.3056 32.3439 83.0584 28.599 82.3717 24.9223C82.3403 24.6098 82.1992 23.8754 82.2463 23.7817C82.3403 23.5629 82.7792 23.7973 82.9359 23.5473C83.1553 23.3129 81.7917 21.5629 81.3058 20.8129C81.1491 20.4692 81.0864 20.2504 80.7886 20.8442C80.4729 21.5054 80.3742 22.2489 80.5065 22.9692C81.2275 27.8129 81.7604 31.4379 81.8701 35.7192C81.8074 36.1254 81.7917 36.3442 81.6036 36.8598C81.1804 37.3911 80.7102 38.0786 80.2714 38.4067C79.8325 38.7192 78.8921 39.0317 78.5943 39.2817Z" fill="white"/>
<path fill-rule="evenodd" clip-rule="evenodd" d="M79.315 34.9534C79.315 33.8128 79.3306 32.844 79.2993 31.9846C79.2892 31.2568 79.1291 30.5389 78.8291 29.8753C78.547 29.2346 78.7194 28.719 78.5783 28.0315C78.4529 27.344 78.4843 26.3128 78.2962 25.5159C78.2335 25.2034 78.0767 24.1878 78.1238 24.0784C78.2021 23.8596 78.4999 24.0784 78.6567 23.8284C78.8761 23.594 77.873 21.0159 77.3714 20.2815C77.199 19.9534 76.8542 20.0628 76.4623 20.594C76.0705 20.9534 76.2115 21.7503 76.3683 22.5159C77.3244 27.5628 78.0611 32.1409 77.9043 36.9378C77.8416 37.344 79.315 35.719 79.315 34.9534ZM72.152 28.7034C71.5407 28.6721 70.2712 27.5003 69.895 26.8284C69.8334 26.6642 69.8072 26.4889 69.818 26.3139C69.8288 26.139 69.8764 25.9682 69.9577 25.8128C70.1928 25.6565 70.5376 25.5003 70.8041 25.6565C70.8041 25.6565 71.0705 26.0315 71.0235 26.0784C71.337 26.2346 71.4937 26.1565 71.5251 26.0159C71.5407 25.7815 71.431 25.6409 71.431 25.3909C71.5721 24.6721 72.3715 24.5628 72.6849 25.0159C72.9044 25.2971 72.9984 25.8753 73.0141 26.2659C73.0141 26.469 72.7006 26.2346 72.4969 26.2659C72.3244 26.3284 72.2774 26.5471 72.2617 26.7346C72.2304 27.2503 72.1677 28.0784 72.152 28.6878V28.7034ZM60.8982 36.2034C61.055 34.6721 60.8355 31.9378 60.8198 31.0315C60.736 28.7008 60.5425 26.3754 60.2399 24.0628C60.0518 22.7503 60.7728 24.2034 60.6788 23.4378C60.4437 22.1409 59.7227 21.2503 58.8606 20.0784C58.5942 19.6878 58.5942 19.6096 58.171 20.1721C57.7008 21.219 58.1083 21.9534 58.2337 22.7815C58.8449 25.469 59.2054 27.9378 59.3779 30.3909C59.5583 32.9392 59.5793 35.4962 59.4405 38.0471C59.9108 38.0628 60.6318 37.3128 60.8982 36.2034Z" fill="white"/>
<path fill-rule="evenodd" clip-rule="evenodd" d="M81.3996 33.7504C80.3181 31.9379 78.7037 30.0004 78.2649 29.2661C76.8115 27.2427 75.2849 25.2727 73.6881 23.3598C72.3558 21.9536 74.3151 23.1254 73.4373 22.0317C72.7007 21.2348 72.4969 20.9692 71.8543 20.4848C71.5408 20.2817 71.3527 19.8911 71.2273 20.5629C71.1774 21.1449 71.1669 21.7296 71.196 22.3129C71.196 22.5786 71.4781 23.0942 71.7289 23.4067C74.9734 27.3911 78.5313 31.4536 81.384 36.5629C81.7915 36.3598 81.6504 34.0629 81.384 33.7504H81.3996Z" fill="white"/>
<path fill-rule="evenodd" clip-rule="evenodd" d="M32.5911 30.4218C32.5127 30.5625 32.3403 30.7343 32.403 30.9062C32.5127 31.0625 32.6224 31.1093 32.8105 31.1093C32.9829 31.1093 33.2337 31.1562 33.2807 31.0625C33.3748 30.9531 33.4375 30.75 33.3748 30.5468C33.1867 30.0781 32.6851 30.2656 32.5911 30.4218Z" fill="#1BA400"/>
<path fill-rule="evenodd" clip-rule="evenodd" d="M68.8919 56.6413C70.3339 56.7038 71.2743 56.7194 72.5439 56.86L74.0486 56.7038C75.71 56.5475 75.7727 59.0632 75.7727 59.0632C75.7727 60.5475 75.1928 60.6257 74.4561 60.7819C74.0329 60.8444 73.8291 60.5319 73.594 60.2194C73.2395 60.3327 72.862 60.3542 72.4969 60.2819C71.8856 60.2507 71.29 60.2507 70.6944 60.2038C70.0674 60.1569 69.7226 60.2819 69.08 60.2194C68.9546 60.4225 68.7665 60.7038 68.3903 60.6257C68.0768 60.5788 67.685 59.6882 67.7947 58.985C68.0298 58.485 67.9514 58.6569 67.9514 58.4382C62.0581 58.2819 56.1177 58.0163 50.3497 58.0944C45.8357 58.11 41.3843 58.2975 36.9173 58.485C34.5348 58.4538 32.7167 58.0788 31.4628 56.2507C31.5882 56.2507 37.5442 56.5788 39.284 56.4694C42.4971 56.4382 45.4438 56.1725 48.7197 56.0788C55.1773 56.1882 61.5879 56.1882 68.0455 56.6413C67.4185 56.2194 67.4185 55.235 68.359 54.985C68.4373 54.9225 68.4844 55.4694 68.6254 55.4538C69.3934 55.4069 69.0486 56.4382 68.8919 56.6413ZM42.936 21.1413C41.9642 23.9225 43.5003 26.985 44.5661 26.6882C45.3498 27.0007 45.82 25.5319 46.1335 23.9382C46.3686 23.485 46.5253 23.4382 46.635 23.6725C46.6037 25.7975 46.7918 26.2819 47.3404 26.9225C48.5629 27.86 49.5817 27.0476 49.6601 26.9694L50.6005 26.0163C50.8199 25.7819 51.1021 25.7819 51.3999 25.9694C51.6977 26.235 51.6507 26.6882 52.2776 27.0007C52.8105 27.2194 53.9234 27.0632 54.1898 26.61C54.5346 26.0007 54.6287 25.7975 54.7854 25.5788C55.0362 25.2507 55.4594 25.3913 55.4594 25.5007C55.4124 25.6882 55.1616 25.86 55.334 26.2038C55.6475 26.4225 55.7102 26.2819 55.8826 26.235C56.5095 25.9225 56.9798 24.5788 56.9798 24.5788C56.9954 24.0788 56.7133 24.1101 56.5252 24.2351L56.0393 24.5632C55.7259 24.61 55.1459 24.8132 54.8481 24.36C54.5503 23.8288 54.5503 23.0632 54.3309 22.5163C54.3309 22.4851 53.9234 21.6569 54.2995 21.61C54.4876 21.6413 54.8795 21.7507 54.9422 21.4226C55.1303 21.0944 54.5346 20.1725 54.1115 19.7038C53.751 19.3132 53.2494 19.2663 52.7635 19.6725C52.4187 19.985 52.4657 20.3288 52.403 20.6569C52.3435 20.8921 52.341 21.1379 52.3955 21.3743C52.45 21.6106 52.56 21.8306 52.7165 22.0163C53.0613 22.6725 53.6726 23.5319 53.4688 24.7507C53.4688 24.7507 53.1083 25.3132 52.4814 25.235C52.2149 25.1882 51.7917 25.0788 51.5723 23.3913C51.3999 22.1413 51.6036 20.36 51.0707 19.5319C50.867 19.0163 50.7259 18.5319 50.2557 19.3913C50.1303 19.735 49.5817 20.2507 49.9736 21.2975C50.3444 22.2409 50.4527 23.2666 50.287 24.2663C50.0519 24.61 50.0049 24.7194 49.7071 25.0475C49.2996 25.5163 48.845 25.3913 48.5002 25.2194C48.1867 25.0163 47.936 24.9069 47.7792 24.2038C47.8106 23.11 47.8733 21.3132 47.6695 20.9382C47.3717 20.3444 46.8858 20.5632 46.6821 20.7507C45.7497 21.7832 45.1254 23.055 44.8796 24.4225C44.5974 25.3288 44.2996 25.0632 44.0959 24.7038C43.5943 24.2351 43.5473 20.5319 42.936 21.1413Z" fill="white"/>
<path fill-rule="evenodd" clip-rule="evenodd" d="M45.8828 27.2032C46.3373 26.8907 46.1336 26.672 46.7919 27.3282C47.6416 28.827 48.1349 30.5001 48.2339 32.2188C48.2025 32.6251 48.4847 32.8751 48.6257 32.7813C48.6884 31.8438 50.9925 30.5313 53.1084 30.3438C53.4219 30.2657 53.2652 29.6563 53.3122 29.3438C53.1868 28.172 53.9705 27.1095 55.0677 27.0313C56.5724 27.2501 57.0739 28.047 57.1053 29.2501C56.9328 31.5938 54.4877 31.9845 53.1241 32.172C52.9203 32.2501 52.8263 32.3438 53.1241 32.4532L58.8607 32.4845L59.1585 32.6407C59.1899 32.797 59.0645 32.672 58.8451 33.047C58.5295 33.5996 58.332 34.2114 58.2651 34.8438C56.5567 35.4063 54.7855 35.6251 52.9987 35.8595C52.3718 36.172 52.0583 36.5938 52.1837 37.0626C52.4031 37.5782 53.7824 38.1095 53.7824 38.1251C54.0489 38.2813 54.3467 38.672 53.704 39.4688C50.9141 39.3438 48.7354 38.1563 47.9831 36.4845C47.7637 36.3126 47.5129 36.4845 47.3561 36.7032C46.259 38.1095 45.1932 39.3595 43.328 40.047C42.2308 40.3282 41.0866 39.8751 40.5537 39.1563C40.1932 38.7345 40.2089 38.2813 40.0835 38.1876C39.4722 38.4532 34.2998 40.6407 34.9581 39.6095C36.212 38.2813 38.4064 37.2813 40.3186 35.9688C40.4597 35.5157 40.7104 34.0157 41.4628 33.5313C41.5098 33.5313 41.3531 34.4063 41.3687 34.7813C41.3687 35.0938 41.3374 35.2032 41.4001 35.1251C41.5412 35.047 43.8609 33.2188 44.0646 32.6563C44.2841 32.3438 44.1117 31.5313 44.1117 31.5001C43.6728 30.3751 43.0615 30.2813 42.8421 29.7188C42.6383 28.9845 42.7324 28.1407 43.1556 27.8907C43.5317 27.5626 43.9706 27.5938 44.3938 27.9688C44.864 28.3907 45.2715 29.2188 45.3969 29.8282C45.3185 30.0626 44.77 29.672 44.6132 29.7813C44.9149 30.1269 45.1155 30.5485 45.1932 31.0001C45.5066 32.2813 45.4126 32.7813 45.0991 33.6095C44.0646 35.7813 42.748 36.422 41.5882 37.2345C41.5568 37.2345 41.5411 37.7813 41.9643 38.0782C42.1211 38.2345 42.7324 38.3126 43.4377 38.0782C44.9445 37.244 46.163 35.9749 46.9329 34.4376C47.0661 33.2678 46.9377 32.0832 46.5568 30.9688C46.1022 29.922 45.5693 28.4376 45.5693 28.4063C45.5536 27.7501 45.6007 27.5313 45.8828 27.2032ZM30.8673 21.172C31.5256 21.4845 32.7795 21.3438 32.7168 20.2813L32.6854 19.797C32.56 19.4845 32.1839 19.5626 32.1055 19.8751C32.0742 19.9845 32.1525 20.1563 32.0585 20.2032C31.9958 20.2657 31.792 20.2345 31.792 19.9376C31.792 19.8438 31.7293 19.7501 31.6823 19.6876C31.651 19.6563 31.6196 19.6563 31.5412 19.6563C31.4472 19.6563 31.4472 19.672 31.4002 19.7501C31.3845 19.8282 31.3532 19.9063 31.3532 20.0001C31.3532 20.1095 31.2905 20.1407 31.2278 20.1563C31.1337 20.1563 31.1494 20.1563 31.071 20.1251C31.0397 20.0782 30.9927 20.0626 30.9927 19.9688L30.9456 19.7188C30.9143 19.672 30.8516 19.6407 30.7889 19.6251C30.4284 19.6251 30.3971 20.047 30.4284 20.2032C30.3971 20.2345 30.3814 20.9688 30.8673 21.172Z" fill="white"/>
<path fill-rule="evenodd" clip-rule="evenodd" d="M50.2244 29.3284C50.8827 29.6409 52.4658 29.469 52.0739 28.4534L52.0426 27.9534C51.9015 27.6409 51.541 27.719 51.4626 28.0472C51.4313 28.1409 51.5097 28.3128 51.3999 28.3597C51.3529 28.4222 51.1335 28.3909 51.1492 28.1097C51.1492 28.0159 51.0865 27.9065 51.0394 27.844C50.9924 27.8284 50.9767 27.8128 50.8827 27.8128C50.8043 27.8128 50.8043 27.844 50.7573 27.9222C50.726 28.0003 50.7103 28.0784 50.7103 28.1722C50.6946 28.2659 50.6476 28.2972 50.5692 28.3284C50.4909 28.3284 50.5065 28.3284 50.4438 28.2815C50.3968 28.2347 50.3498 28.219 50.3498 28.1409L50.3028 27.8909C50.2714 27.844 50.2087 27.8128 50.146 27.7972C49.7855 27.7972 49.7542 28.2034 49.7699 28.3597C49.7542 28.3909 49.7385 29.1409 50.2401 29.3284H50.2244ZM61.5096 25.9534C62.1679 26.2659 63.4061 26.1253 63.3591 25.0784L63.3277 24.5784C63.1867 24.2659 62.8262 24.344 62.7478 24.6565C62.7164 24.7659 62.7948 24.9378 62.6851 25.0003C62.6381 25.0472 62.4186 25.0159 62.4343 24.719C62.4343 24.6253 62.3716 24.5315 62.3246 24.469C62.2776 24.4378 62.2619 24.4378 62.1679 24.4378C62.0895 24.4378 62.0895 24.469 62.0425 24.5472L61.9954 24.7815C61.9798 24.8909 61.9327 24.9378 61.8544 24.9378C61.776 24.9378 61.7917 24.9378 61.729 24.9065C61.682 24.8597 61.6349 24.844 61.6349 24.7659C61.6349 24.6878 61.6193 24.5628 61.5879 24.5003C61.5566 24.4534 61.4939 24.4378 61.4312 24.4222C61.0707 24.4222 61.0393 24.8284 61.055 24.9847C61.0393 25.0159 61.0237 25.7503 61.5252 25.9534H61.5096ZM67.3559 34.4378C66.2117 35.7347 66.7133 37.8753 66.9797 38.344C67.3559 39.094 67.6537 39.5784 68.3904 39.9534C69.0643 40.4378 69.5973 40.1409 69.8794 39.7972C70.5534 39.094 70.569 37.2972 70.8825 36.9534C71.1019 36.2972 71.6662 36.4065 71.9327 36.7034C72.182 37.0562 72.5161 37.3409 72.9044 37.5315C73.5314 38.0784 74.2837 38.1878 75.0361 37.6878C75.5376 37.3909 75.8668 37.0315 76.1646 36.2972C76.4781 35.4222 76.3213 31.3597 76.243 28.9534L75.5847 25.594C75.5847 25.5628 75.5063 24.0003 75.4279 23.6409C75.4279 23.4847 75.3809 23.4378 75.5376 23.4534C75.71 23.6097 75.7257 23.6097 75.8511 23.6565C76.0079 23.6878 76.1646 23.3909 76.0549 23.1409L74.4875 20.2347C74.3621 20.1097 74.1897 19.9847 73.9859 20.2659C73.8657 20.3744 73.77 20.5071 73.7052 20.6553C73.6403 20.8034 73.6078 20.9637 73.6098 21.1253C73.6568 21.8128 73.7665 22.5159 73.8135 23.2034L74.4405 26.7347C74.6442 29.2347 74.6912 31.2972 74.895 33.8128C74.8637 34.8753 74.5345 35.7972 74.221 35.9378C74.221 35.9378 73.7508 36.2034 73.4373 35.9065C73.2022 35.8128 72.2775 34.3597 72.2775 34.3597C71.8073 33.9378 71.4938 34.0472 71.1646 34.3597C70.2242 35.2659 69.8167 36.9222 69.1741 38.0784C69.0173 38.344 68.5471 38.5472 68.0455 38.0628C66.7603 36.2972 67.5126 33.7972 67.3559 34.4378ZM61.8074 19.7972C62.403 20.0315 62.8105 21.2347 62.6851 21.8284C62.5597 22.5315 62.2462 23.3128 62.0268 23.219C61.776 23.1253 62.1835 22.5003 61.9484 21.844C61.823 21.4065 61.008 20.6253 61.102 20.4065C60.9453 19.9222 61.4469 19.7034 61.8074 19.7815V19.7972Z" fill="white"/>
<path fill-rule="evenodd" clip-rule="evenodd" d="M69.268 35.156C69.3777 33.7185 69.174 32.8435 69.1426 31.9998C69.1113 31.156 68.1865 24.7185 67.9984 24.0935C67.7633 22.8748 68.8918 23.9373 68.7665 23.2185C68.3746 22.3435 67.4185 21.0466 67.1207 20.281C66.9326 19.9685 67.011 19.656 66.6035 20.2029C66.2526 21.1617 66.1292 22.1885 66.243 23.2029C67.2148 28.2498 68.2022 32.4373 68.0455 37.2341C68.5157 37.2341 69.0329 36.1873 69.268 35.156ZM79.362 21.8279C79.9105 22.0935 80.224 23.5935 80.1613 24.0154C80.0516 24.7966 79.7695 25.6404 79.5657 25.531C79.3306 25.4373 79.6127 24.3748 79.503 24.0466C79.3776 23.5779 78.641 22.7341 78.7193 22.4841C78.5626 21.9529 79.0328 21.7341 79.362 21.8279ZM39.284 32.4373C39.8012 32.6404 40.1147 33.7341 40.0677 34.0466C39.9423 34.6248 39.6758 35.2498 39.4721 35.156C39.2683 35.0935 39.5191 34.3123 39.4251 34.0623C39.378 33.4841 38.657 33.1716 38.6727 32.9216C38.5473 32.4529 38.9862 32.3748 39.2997 32.4373H39.284Z" fill="white"/>
<path fill-rule="evenodd" clip-rule="evenodd" d="M51.7605 34.0939C52.4188 34.1251 52.7479 34.6564 52.1366 34.8751C51.5097 35.0782 50.9298 35.2501 50.9141 36.1251C51.1492 37.3751 50.6006 36.9376 50.2871 36.7814C49.911 36.5001 48.8451 35.8439 48.6884 34.4376C48.6727 34.1095 48.9392 33.8126 49.3624 33.8126C49.9893 33.9845 50.9298 34.0001 51.7605 34.0939Z" fill="#1B9D00"/>
<path fill-rule="evenodd" clip-rule="evenodd" d="M25.5065 19.4376C26.2589 19.6564 26.3059 20.7814 26.2589 21.1095C26.1492 21.7032 25.8827 22.3439 25.6946 22.2657C25.4752 22.1876 25.6946 21.3751 25.5849 21.1251C25.4752 20.7814 24.8326 20.1251 24.8952 19.9376C24.7542 19.547 25.2087 19.3595 25.5065 19.4376ZM40.5377 24.6876C39.9421 25.0001 39.7227 25.9376 40.0832 26.5001C40.428 26.9689 40.9609 26.797 41.0236 26.797C41.6035 26.8595 41.9484 25.7189 41.9484 25.7189C41.9484 25.7189 41.964 25.4064 41.2901 26.0157C40.9923 26.0626 40.9766 25.9532 40.8982 25.797C40.8265 25.4995 40.854 25.1868 40.9766 24.9064C41.0863 24.6251 40.8669 24.5001 40.5377 24.6876ZM44.9264 19.0001C44.6129 19.2032 44.033 19.8126 44.0173 20.5001C44.0016 20.8907 43.9233 20.8907 44.1741 21.1251C44.3778 21.4064 44.5502 21.3907 44.9264 21.1876C45.0201 21.1288 45.1006 21.0512 45.1626 20.9597C45.2247 20.8683 45.267 20.765 45.2869 20.6564C45.3809 20.2189 44.8167 20.8751 44.754 20.3751C44.6286 19.9064 44.9891 19.7189 45.3339 19.2814C45.3339 18.9689 45.3339 18.7657 44.9107 19.0001H44.9264ZM48.4373 19.6251C48.2992 20.1941 48.2152 20.7748 48.1866 21.3595C48.0925 21.797 48.6568 21.9845 48.8919 21.422C49.2681 20.4064 49.268 19.9689 49.2994 19.547C49.1897 18.8751 48.7351 18.8907 48.4373 19.6251ZM70.6942 30.922C70.7569 30.8439 73.8289 28.672 73.8289 28.672C74.1424 28.5626 74.064 29.797 73.923 29.7814C72.9702 30.6967 71.8744 31.4514 70.6785 32.0157C70.5218 32.1251 70.3807 31.1876 70.6785 30.922H70.6942ZM73.4684 30.8907C74.017 31.1564 74.2365 32.7345 74.1738 33.1564C74.1738 34.0001 73.6565 34.6564 73.4371 34.5626C73.2177 34.4532 73.4684 33.5157 73.3587 33.1876C73.2333 32.7189 72.7788 31.8595 72.8572 31.6095C72.7004 31.0782 73.1393 30.797 73.4841 30.8907H73.4684ZM55.2868 37.672C55.541 37.3761 55.8366 37.1183 56.1645 36.9064C56.478 36.7501 56.7601 37.0314 56.7445 37.0157C56.7915 37.3282 56.5564 37.5939 56.6347 38.0001C56.6974 38.1564 56.7445 38.3439 57.0423 38.2814C57.5282 37.8907 57.9827 37.8595 58.4529 37.8439C58.8448 37.8595 58.8604 38.5001 58.6097 38.5001C57.7162 38.6876 57.3244 38.9376 56.6818 39.172C56.3683 39.3595 56.1175 39.1251 56.1175 39.1095C56.1175 39.0939 55.9451 38.9376 56.0548 38.5314C56.0862 38.2189 55.9608 38.0314 55.6786 38.0626C55.4906 38.1876 55.3025 38.2501 55.2084 38.0157C55.1614 37.8595 55.1457 37.7657 55.2868 37.672ZM76.6972 38.5157C76.8226 38.672 76.9167 38.8282 76.6816 39.1095L76.1016 39.6095C76.0076 39.7657 75.9449 40.047 76.2584 40.1251C76.8226 40.2814 78.1392 39.422 78.1392 39.4064C78.3587 39.2501 78.296 38.9376 78.2646 38.9376C78.1392 38.797 77.8571 38.8907 77.669 38.8595C77.575 38.8595 77.2772 38.8282 77.4182 38.547C77.5235 38.4089 77.608 38.2563 77.669 38.0939C77.7474 37.9064 77.669 37.7814 77.3555 37.672C77.0264 37.6095 76.8853 37.6407 76.5248 37.672C76.3367 37.7032 76.2741 37.797 76.227 38.0314C76.2427 38.3907 76.4621 38.3751 76.6972 38.5001V38.5157Z" fill="white"/>
<path fill-rule="evenodd" clip-rule="evenodd" d="M55.397 29.6412C55.3186 29.7975 55.0365 29.7975 54.7701 29.6412C54.5036 29.485 54.3469 29.235 54.4409 29.0944C54.5349 28.9537 54.8014 28.9537 55.0679 29.0944C55.3343 29.235 55.4754 29.5006 55.397 29.6412ZM41.4473 21.2662C41.2906 21.3131 41.0711 21.1725 40.9771 20.9537C40.883 20.735 40.9301 20.5475 41.0868 20.5006C41.2435 20.4537 41.4473 20.61 41.557 20.8131C41.6667 21.0162 41.604 21.235 41.4316 21.2819L41.4473 21.2662Z" fill="#259F00"/>
<path fill-rule="evenodd" clip-rule="evenodd" d="M69.0486 58.5939C70.522 58.6564 71.9013 58.5939 73.3589 58.672C73.6254 58.9064 73.4373 59.4532 73.2649 59.422L72.0423 59.3751C72.0266 58.9064 70.8354 58.9845 70.8668 59.3907C70.2242 59.4689 69.6442 59.3751 68.9859 59.3439C68.7978 59.1095 68.8292 58.6876 69.0486 58.5939Z" fill="#209000"/>
</g>
<defs>
<clipPath id="clip0_152542_2594">
<rect width="107" height="80" fill="white"/>
</clipPath>
</defs>
</svg>
