<svg width="107" height="80" viewBox="0 0 107 80" fill="none" xmlns="http://www.w3.org/2000/svg">
<g clip-path="url(#clip0_152542_2599)">
<path fill-rule="evenodd" clip-rule="evenodd" d="M3.05176e-05 0H152.475V6.16667H3.05176e-05V0ZM3.05176e-05 12.3167H152.475V18.4833H3.05176e-05V12.3167ZM3.05176e-05 24.6167H152.475V30.7833H3.05176e-05V24.6167ZM3.05176e-05 36.9167H152.475V43.0833H3.05176e-05V36.9167ZM3.05176e-05 49.25H152.475V55.3833H3.05176e-05V49.25ZM3.05176e-05 61.5333H152.475V67.7H3.05176e-05V61.5333ZM3.05176e-05 73.8333H152.475V80H3.05176e-05V73.8333Z" fill="#BD3D44"/>
<path fill-rule="evenodd" clip-rule="evenodd" d="M-0.000213623 6.16675H152.475V12.3167H-0.000213623V6.16675ZM-0.000213623 18.4667H152.475V24.6167H-0.000213623V18.4667ZM-0.000213623 30.7667H152.475V36.9334H-0.000213623V30.7667ZM-0.000213623 43.0834H152.475V49.2501H-0.000213623V43.0834ZM-0.000213623 55.3834H152.475V61.5501H-0.000213623V55.3834ZM-0.000213623 67.6834H152.475V73.8501H-0.000213623V67.6834Z" fill="white"/>
<path fill-rule="evenodd" clip-rule="evenodd" d="M3.05176e-05 0H60.99V43.0833H3.05176e-05V0Z" fill="#192F5D"/>
<path fill-rule="evenodd" clip-rule="evenodd" d="M5.08206 1.83313L5.6505 3.5498H7.42268L5.98487 4.5998L6.53659 6.31646L5.08206 5.2498L3.64425 6.2998L4.17925 4.5998L2.72472 3.5498H4.54706L5.08206 1.83313ZM15.2471 1.83313L15.7988 3.5498H17.6044L16.1499 4.5998L16.6849 6.31646L15.2471 5.2498L13.7925 6.2998L14.3442 4.5998L12.9064 3.5498H14.6786L15.2471 1.83313ZM25.4121 1.83313L25.9638 3.5498H27.7527L26.3149 4.5998L26.8666 6.31646L25.4121 5.2498L23.9575 6.2998L24.5092 4.5998L23.0547 3.5498H24.8603L25.4121 1.83313ZM35.5771 1.83313L36.1288 3.5498H37.9344L36.4799 4.5998L37.0316 6.31646L35.5771 5.2498L34.1225 6.2998L34.691 4.5998L33.2197 3.5498H35.0086L35.5771 1.83313ZM45.7421 1.83313L46.2938 3.5498H48.0827L46.6449 4.5998L47.1966 6.31646L45.7421 5.2498L44.2875 6.2998L44.8392 4.5998L43.4014 3.5498H45.1903L45.7421 1.83313ZM55.9071 1.83313L56.4588 3.5498H58.2644L56.7932 4.5998L57.3616 6.31646L55.9071 5.2498L54.4525 6.2998L55.021 4.5998L53.5497 3.5498H55.3553L55.9071 1.83313ZM10.1646 6.16646L10.7163 7.86646H12.5386L11.0841 8.8998L11.6191 10.6165L10.198 9.56646L8.74347 10.6165L9.26175 8.8998L7.85737 7.86646H9.64628L10.1646 6.16646ZM20.3296 6.16646L20.898 7.86646H22.6869L21.2157 8.8998L21.7841 10.6165L20.3296 9.56646L18.875 10.6165L19.4267 8.8998L17.9722 7.86646H19.7778L20.3296 6.16646ZM30.4946 6.16646L31.0463 7.86646H32.8519L31.3974 8.8998L31.9491 10.6165L30.4946 9.56646L29.04 10.6165L29.5917 8.8998L28.1539 7.86646H29.9261L30.4946 6.16646ZM40.6596 6.16646L41.228 7.86646H43.0169L41.5457 8.8998L42.1141 10.6165L40.6596 9.56646L39.2217 10.6165L39.7567 8.8998L38.3022 7.86646H40.1246L40.6596 6.16646ZM50.8246 6.16646L51.3763 7.86646H53.1819L51.7274 8.8998L52.2791 10.6165L50.8246 9.56646L49.37 10.6165L49.9217 8.8998L48.4839 7.86646H50.2728L50.8246 6.16646ZM5.08206 10.4331L5.6505 12.1665H7.42268L5.98487 13.2165L6.53659 14.9165L5.08206 13.8665L3.64425 14.9165L4.17925 13.2165L2.72472 12.1665H4.54706L5.08206 10.4331ZM15.2471 10.4331L15.7988 12.1665H17.6044L16.1499 13.2165L16.6849 14.9165L15.2471 13.8665L13.7925 14.9165L14.3442 13.1998L12.9064 12.1498H14.6786L15.2471 10.4331ZM25.4121 10.4331L25.9638 12.1498H27.7527L26.3149 13.1998L26.8666 14.8998L25.4121 13.8498L23.9575 14.8998L24.5092 13.1831L23.0547 12.1331H24.8603L25.4121 10.4331ZM35.5771 10.4331L36.1288 12.1498H37.9344L36.4799 13.1998L37.0316 14.8998L35.5771 13.8498L34.1225 14.8998L34.691 13.1831L33.2197 12.1331H35.0086L35.5771 10.4331ZM45.7421 10.4331L46.2938 12.1498H48.0827L46.6449 13.1998L47.1966 14.8998L45.7421 13.8498L44.2875 14.8998L44.8392 13.1831L43.4014 12.1331H45.1903L45.7421 10.4331ZM55.9071 10.4331L56.4588 12.1498H58.2644L56.7932 13.1998L57.3616 14.8998L55.9071 13.8498L54.4525 14.8998L55.021 13.1831L53.5497 12.1331H55.3553L55.9071 10.4331ZM10.1646 14.7665L10.7163 16.4665H12.5386L11.0841 17.5165L11.6358 19.2331L10.1813 18.1665L8.72675 19.2165L9.27847 17.5165L7.84065 16.4665H9.62956L10.1646 14.7665ZM20.3296 14.7665L20.898 16.4665H22.6869L21.2157 17.5165L21.7841 19.2331L20.3296 18.1665L18.875 19.2165L19.4267 17.5165L17.9722 16.4665H19.7778L20.3296 14.7665ZM30.4946 14.7665L31.0463 16.4665H32.8519L31.3974 17.5165L31.9491 19.2331L30.4946 18.1665L29.04 19.2165L29.5917 17.5165L28.1539 16.4665H29.9261L30.4946 14.7665ZM40.6596 14.7665L41.228 16.4665H43.0169L41.5624 17.5165L42.1141 19.2331L40.6596 18.1665L39.2217 19.2165L39.7567 17.5165L38.3022 16.4665H40.1246L40.6596 14.7665ZM50.8246 14.7665L51.3763 16.4665H53.1819L51.7274 17.5165L52.2791 19.2331L50.8246 18.1665L49.37 19.2165L49.9217 17.5165L48.4839 16.4665H50.2728L50.8246 14.7665ZM5.08206 19.0831L5.6505 20.7831H7.42268L5.98487 21.8331L6.53659 23.5498L5.08206 22.4831L3.64425 23.5331L4.17925 21.8331L2.72472 20.7831H4.54706L5.08206 19.0831ZM15.2471 19.0831L15.7988 20.7831H17.6044L16.1499 21.8331L16.6849 23.5331L15.2471 22.4831L13.7925 23.5331L14.3442 21.8331L12.9064 20.7831H14.6786L15.2471 19.0831ZM25.4121 19.0831L25.9638 20.7831H27.7527L26.3149 21.8331L26.8666 23.5498L25.4121 22.4831L23.9575 23.5331L24.5092 21.8331L23.0547 20.7831H24.8603L25.4121 19.0831ZM35.5771 19.0831L36.1288 20.7831H37.9344L36.4799 21.8331L37.0316 23.5498L35.5771 22.4831L34.1225 23.5331L34.691 21.8331L33.2197 20.7831H35.0086L35.5771 19.0831ZM45.7421 19.0831L46.2938 20.7831H48.0827L46.6449 21.8331L47.1966 23.5498L45.7421 22.4831L44.2875 23.5331L44.8392 21.8331L43.4014 20.7831H45.1903L45.7421 19.0831ZM55.9071 19.0831L56.4588 20.7831H58.2644L56.7932 21.8331L57.3616 23.5498L55.9071 22.4831L54.4525 23.5331L55.0042 21.8331L53.533 20.7831H55.3386L55.9071 19.0831ZM10.1646 23.3831L10.7163 25.0998H12.5386L11.0841 26.1331L11.6358 27.8498L10.1813 26.7831L8.72675 27.8498L9.27847 26.1331L7.84065 25.0831H9.62956L10.1646 23.3831ZM20.3296 23.3831L20.898 25.0998H22.6869L21.2157 26.1331L21.7841 27.8498L20.3296 26.7831L18.875 27.8498L19.4267 26.1331L17.9722 25.0831H19.7778L20.3296 23.3831ZM30.4946 23.3831L31.0463 25.0998H32.8519L31.3974 26.1331L31.9491 27.8498L30.4946 26.7831L29.04 27.8498L29.5917 26.1331L28.1539 25.0831H29.9261L30.4946 23.3831ZM40.6596 23.3831L41.228 25.0998H43.0169L41.5624 26.1331L42.1141 27.8498L40.6596 26.7831L39.2217 27.8498L39.7567 26.1331L38.3022 25.0831H40.1246L40.6596 23.3831ZM50.8246 23.3831L51.3763 25.0998H53.1819L51.7274 26.1331L52.2791 27.8498L50.8246 26.7831L49.37 27.8498L49.9217 26.1331L48.4839 25.0831H50.2728L50.8246 23.3831ZM5.08206 27.6831L5.6505 29.3998H7.42268L5.98487 30.4498L6.53659 32.1331L5.08206 31.0998L3.64425 32.1331L4.17925 30.4331L2.72472 29.3831H4.54706L5.08206 27.6831ZM15.2471 27.6831L15.7988 29.3998H17.6044L16.1499 30.4498L16.7016 32.1331L15.2471 31.0998L13.7925 32.1331L14.361 30.4331L12.9064 29.3831H14.6786L15.2471 27.6831ZM25.4121 27.6831L25.9638 29.3998H27.7527L26.3149 30.4498L26.8666 32.1331L25.4121 31.0998L23.9575 32.1331L24.5092 30.4331L23.0547 29.3831H24.8603L25.4121 27.6831ZM35.5771 27.6831L36.1288 29.3998H37.9344L36.4799 30.4498L37.0316 32.1331L35.5771 31.0998L34.1225 32.1331L34.691 30.4331L33.2197 29.3831H35.0086L35.5771 27.6831ZM45.7421 27.6831L46.2938 29.3998H48.0827L46.6449 30.4498L47.1966 32.1331L45.7421 31.0998L44.2875 32.1331L44.8392 30.4331L43.4014 29.3831H45.1903L45.7421 27.6831ZM55.9071 27.6831L56.4588 29.3998H58.2644L56.7932 30.4498L57.3616 32.1331L55.9071 31.0998L54.4525 32.1331L55.021 30.4331L53.5497 29.3831H55.3553L55.9071 27.6831ZM10.1646 31.9998L10.7163 33.6998H12.5386L11.0841 34.7498L11.6358 36.4665L10.1813 35.3998L8.72675 36.4498L9.27847 34.7498L7.84065 33.6998H9.62956L10.1646 31.9998ZM20.3296 31.9998L20.898 33.6998H22.6869L21.2157 34.7498L21.7841 36.4665L20.3296 35.3998L18.875 36.4498L19.4267 34.7498L17.9722 33.6998H19.7778L20.3296 31.9998ZM30.4946 31.9998L31.0463 33.6998H32.8519L31.3974 34.7498L31.9491 36.4665L30.4946 35.3998L29.04 36.4498L29.5917 34.7498L28.1539 33.6998H29.9261L30.4946 31.9998ZM40.6596 31.9998L41.228 33.6998H43.0169L41.5624 34.7498L42.1141 36.4665L40.6596 35.3998L39.2217 36.4498L39.7567 34.7498L38.3022 33.6998H40.1246L40.6596 31.9998ZM50.8246 31.9998L51.3763 33.6998H53.1819L51.7274 34.7498L52.2791 36.4665L50.8246 35.3998L49.37 36.4498L49.9217 34.7498L48.4839 33.6998H50.2728L50.8246 31.9998ZM5.08206 36.3165L5.6505 38.0165H7.42268L5.98487 39.0665L6.53659 40.7665L5.08206 39.7165L3.64425 40.7665L4.17925 39.0498L2.72472 37.9998H4.54706L5.08206 36.3165ZM15.2471 36.3165L15.7988 38.0165H17.6044L16.1499 39.0665L16.7016 40.7665L15.2471 39.7165L13.7925 40.7665L14.361 39.0498L12.9064 37.9998H14.6786L15.2471 36.3165ZM25.4121 36.3165L25.9638 38.0165H27.7527L26.3483 39.0665L26.9 40.7665L25.4455 39.7165L23.991 40.7665L24.5427 39.0498L23.0882 37.9998H24.8938L25.4121 36.3165ZM35.5771 36.3165L36.1288 38.0165H37.9344L36.4799 39.0665L37.0316 40.7665L35.5771 39.7165L34.1225 40.7665L34.691 39.0498L33.2197 37.9998H35.0086L35.5771 36.3165ZM45.7421 36.3165L46.2938 38.0165H48.0827L46.6449 39.0665L47.1966 40.7665L45.7421 39.7165L44.2875 40.7665L44.8392 39.0498L43.4014 37.9998H45.1903L45.7421 36.3165ZM55.9071 36.3165L56.4588 38.0165H58.2644L56.7932 39.0665L57.3616 40.7665L55.9071 39.7165L54.4525 40.7665L55.021 39.0498L53.5497 37.9998H55.3553L55.9071 36.3165Z" fill="white"/>
</g>
<defs>
<clipPath id="clip0_152542_2599">
<rect width="107" height="80" fill="white"/>
</clipPath>
</defs>
</svg>
