<svg width="107" height="80" viewBox="0 0 107 80" fill="none" xmlns="http://www.w3.org/2000/svg">
<g clip-path="url(#clip0_152542_2598)">
<path d="M-0.000366211 39.9999H107V79.9999H-0.000366211V39.9999Z" fill="#00AB39"/>
<path d="M0 0H107V40H0V0Z" fill="white"/>
<path d="M70.0509 11.7999H70.0342H70.0509ZM70.0342 11.7999C63.4119 15.3527 57.1519 19.5391 51.3426 24.2999C48.5004 26.7833 49.3029 28.7499 49.1859 30.9666C49.2862 32.4666 48.8682 33.8666 47.9487 34.6999L41.629 35.9666L41.0271 34.2333C41.211 33.3333 41.9466 32.8999 43.5182 33.4499C43.6352 32.3166 42.699 31.8499 41.629 31.4499C41.2445 31.1499 40.7931 30.9499 40.8432 29.9499C40.676 27.6999 44.2873 30.1166 44.3207 30.1166C44.3542 30.1166 44.187 27.8333 42.5318 27.3833C41.629 27.0666 41.2445 26.1166 41.5956 25.4166C42.3145 23.9666 43.6854 25.5166 44.722 25.5833C44.6885 24.6333 44.421 23.9666 43.6018 23.2166C43.1671 22.9333 42.0971 22.7333 42.0637 22.2833C42.047 21.6833 43.0668 21.4166 44.4879 21.5833C44.187 20.7333 43.234 20.1833 41.9299 19.7833L41.1609 18.4333C40.7931 17.7666 40.6259 17.7333 41.4785 16.4666C42.2309 15.9666 43.2507 15.2666 44.0198 14.7833L43.1838 14.6833C43.2841 13.7666 43.3009 13.4499 43.5182 11.9333C42.6823 13.0499 41.6792 12.8499 40.7429 13.2999C40.7429 13.2999 38.1348 13.7666 37.2821 14.8833L30.6949 14.5499C29.2906 14.7333 28.1035 15.1333 27.8695 16.4833C24.6762 16.8166 21.3324 16.5333 18.8915 19.5666C20.5634 19.4999 22.0012 19.0999 23.8737 19.3333C23.8737 19.3333 25.462 19.3666 25.7796 21.0499C25.8131 21.1166 26.3313 21.1166 26.3313 21.1166L26.9332 21.5833L27.1673 20.9499L27.7023 21.3166L27.8695 20.6166L28.4045 20.9833L28.4379 20.1499L29.1401 20.6499V19.5333C29.1401 19.5333 31.7482 19.5333 32.5507 21.1999C32.5842 21.2166 25.2446 22.5333 18.1559 21.9166L20.1956 20.9166C17.6209 20.3833 15.1799 19.9166 12.9062 18.1333C13.7588 21.3666 18.206 25.1499 19.1256 25.1333L18.2562 23.5666L25.9468 23.8999C26.231 24.7499 26.114 25.6999 26.7827 26.4499C26.7827 26.4499 26.3648 27.8499 27.3177 28.4166C27.3512 28.4833 28.4379 25.5833 28.4379 25.5833C28.4379 25.5833 28.7723 26.3666 29.1067 26.8833C29.6082 24.3833 32.3501 23.9666 32.3501 23.9666L32.9185 25.2999C32.0659 25.4333 30.9959 27.1666 31.581 28.1333C30.9959 28.1333 29.976 29.8166 30.2937 30.7333C29.8088 31.2166 28.6218 31.8499 28.906 33.8666C27.9698 34.0666 27.4013 35.7833 27.7023 37.6166C26.231 38.9666 26.5988 41.4499 27.9029 42.4666C27.3679 42.9666 27.0335 43.3166 27.0335 43.9166C26.5152 43.7333 26.0304 43.8833 25.8131 44.2166C25.1777 43.5666 24.2749 43.0166 23.6396 43.6166C23.4724 42.8499 22.4693 42.0166 21.3826 42.1166C21.4273 41.6367 21.3009 41.1565 21.0257 40.7603C20.7506 40.3641 20.3442 40.0772 19.8779 39.9499C19.8779 39.9499 19.6271 36.1833 18.4902 34.9499C18.3732 34.2833 18.5571 33.8166 19.4934 33.2499C20.4463 32.7499 20.647 32.3666 20.5634 30.9333C20.9479 29.9833 21.2321 29.0166 20.0618 28.3666C20.0952 29.4999 19.7609 30.0333 19.2927 30.5333C18.741 30.4666 18.5571 31.0999 18.1893 31.3666C17.671 30.6833 19.276 29.5999 18.089 28.0499C18.0221 27.9833 17.2531 26.0499 15.3638 26.0833C16.2499 26.5999 16.6345 27.4833 16.6345 28.3999C15.9377 29.936 15.8306 31.6737 16.3335 33.2833C15.5477 32.1166 15.0963 29.8833 14.4443 29.4999C13.8759 29.3833 13.6084 28.0499 11.3848 28.4333C12.3377 28.6833 12.6554 29.4166 12.8895 30.0666C12.321 30.3666 12.6052 31.1666 13.0399 31.7166C12.9563 32.9999 13.7254 33.7499 14.879 34.2166L14.3106 39.4999C13.8592 39.4499 13.1402 41.2333 12.8727 41.2833C12.4213 41.5666 11.6356 42.3166 12.5384 42.5333C12.2709 43.4833 12.0201 44.0666 10.5823 44.2666C10.5823 44.2666 12.087 45.1666 13.3576 43.6333C14.6951 43.5999 14.2604 41.9999 14.9124 41.2999C14.9124 41.2499 15.297 41.0166 15.832 39.5999C16.066 40.8666 17.3701 44.7333 20.2959 46.6499C22.8538 49.3833 24.9771 51.9666 24.9437 55.5999C25.9259 54.5231 26.6316 53.2249 27.0001 51.8166C28.6681 51.3177 30.411 51.1147 32.1495 51.2166C31.8485 51.8666 31.4974 52.4833 31.9321 52.8833C30.6949 53.3166 30.4274 54.2166 30.929 55.0999C29.6249 55.9833 29.5413 56.5499 29.5246 58.0166C27.1004 61.0999 25.6124 60.9999 23.2217 60.1833C22.4526 59.7333 21.2154 59.0833 20.6637 59.4333C19.6438 58.7333 18.1559 58.6333 17.9051 60.1999C18.6909 59.5499 19.1423 59.6833 19.7609 60.2999C19.6438 60.6166 19.5435 60.9166 19.9949 61.0999L19.3931 61.7666C18.2896 61.5999 16.7849 61.5999 16.4004 63.2166C16.9688 62.7333 18.2395 62.6333 19.2426 63.0833L19.8277 63.2833L19.8946 64.0499C19.8946 64.0499 18.3899 63.8166 17.9887 66.2666C19.3931 64.7666 20.3962 65.1499 20.3962 65.1499C20.9479 65.9499 22.9542 65.8333 24.4087 64.5166C26.4317 63.3833 27.0335 65.0166 28.3376 63.9499C29.4243 63.1499 30.7117 63.6833 31.5977 64.6166C32.6176 64.9999 33.6876 65.3166 34.5235 64.6166C34.5235 64.6166 35.5601 63.9666 36.5799 65.0166C36.5799 63.8499 35.744 63.1999 34.6071 63.1833L34.2727 62.8499C33.186 62.6166 31.9823 62.7166 31.0293 62.1833C31.3989 60.5007 32.2127 58.9471 33.3867 57.6833C34.9415 56.0166 36.0951 55.2499 38.0679 52.6999C37.9843 54.1499 39.0877 55.7499 39.6729 57.1999C39.6729 57.1999 40.8432 55.3499 41.0104 53.8166C41.0606 53.8166 42.4984 53.0833 43.1002 52.4333C44.4043 53.2499 46.5109 51.7999 47.8818 50.5999C48.7177 50.9333 49.3698 50.8999 50.3395 50.5999C49.5537 52.1999 50.7909 53.6833 52.7637 54.2999C52.9309 55.6999 54.3687 55.9999 56.5254 55.9999C56.6257 56.8333 57.9131 56.9499 57.9131 56.9499C57.0771 57.3166 56.6759 57.6999 56.6926 58.5499C55.8567 58.5499 55.2381 58.7666 55.0207 59.7166C53.8671 59.7499 52.6968 59.8333 51.7104 60.3833C50.6571 60.2333 49.3698 59.7999 48.5506 58.9499C48.1326 58.5999 48.0156 58.0833 47.2799 57.8833C46.8118 57.3333 46.2434 57.4499 46.0595 57.9833C45.5746 57.5999 43.7523 57.4333 43.4346 59.1499C44.304 58.5333 45.0563 58.2999 45.6081 59.0666C45.3071 59.5833 46.3102 59.8999 47.1796 60.0999C47.7982 60.1333 48.8849 60.6999 49.2193 61.6333C48.7504 61.7686 48.2575 61.7999 47.7751 61.725C47.2928 61.6502 46.8327 61.471 46.4273 61.1999C46.1265 60.9499 45.7534 60.8021 45.3625 60.7781C44.9715 60.7541 44.5831 60.8552 44.2538 61.0666C43.5182 60.5999 41.7962 61.4833 41.7293 62.8833C42.4482 62.2166 43.117 61.8833 43.7857 62.3166C43.4513 62.3833 43.5684 62.4166 43.6185 62.6166L45.2904 63.5833C44.4545 63.7999 43.6854 64.1333 44.0532 65.6666C44.0532 65.6666 44.722 64.3333 46.2267 64.8333C46.2601 64.7833 46.444 65.2999 46.8787 64.9499C47.5307 64.2166 49.0187 63.8833 50.3395 63.7499C51.3927 63.6333 52.446 63.3166 53.3488 63.9166C54.1848 63.4999 55.0876 63.2166 56.0238 63.8833C57.1273 64.2166 57.9298 65.5166 59.3174 64.9333C60.0196 64.4333 60.8723 64.4333 61.7417 65.3999C61.7417 64.1666 60.8221 63.7499 59.5181 63.4833L58.6152 62.9499C57.7793 62.8166 56.9434 62.9666 56.0907 62.5666C58.0898 62.0886 59.9729 61.2173 61.6295 60.0038C63.2861 58.7903 64.6827 57.259 65.7374 55.4999L67.8273 56.2333C68.3288 56.2666 68.3623 56.4333 69.3821 56.7333C69.4156 55.2499 68.7635 53.7166 66.0718 53.5666L62.5609 52.2333C61.7918 51.4333 61.4574 49.7499 62.4104 48.7666C63.3467 47.9333 63.5138 48.0333 64.1324 47.0166C64.8848 46.9499 65.587 47.7166 66.2724 47.7166C66.6068 48.6999 68.5127 49.5499 69.7165 49.2666C70.4688 49.9333 71.8899 50.2999 73.4782 49.7666C73.9307 50.1875 74.5012 50.4609 75.1136 50.5502C75.7259 50.6395 76.3511 50.5406 76.9056 50.2666C77.2734 50.6333 78.0424 50.9333 78.9118 50.7333C78.9954 50.7333 79.3799 51.6999 80.3329 52.0499C79.9149 52.4499 80.1657 54.2166 80.6171 54.8666C80.2938 55.5261 80.2399 56.2849 80.4667 56.9833C79.497 57.5999 79.2963 58.0666 79.731 59.1166C78.4604 61.1666 76.939 61.3999 75.5012 60.7833L73.9463 59.7833L72.3079 58.1833C72.0237 57.9166 71.4385 57.8499 71.3215 58.4166C71.3215 58.4166 69.2149 57.9499 69.031 59.7333C69.9171 58.8833 71.1543 59.6333 71.1543 59.6666C71.1543 59.6999 70.8534 59.8999 71.0874 60.2333C71.1376 60.1833 72.6423 60.7833 73.9631 61.3499C74.682 61.6333 74.8492 61.7166 75.1668 61.8833C74.7676 61.7009 74.3664 61.5231 73.9631 61.3499C73.383 61.0833 72.7606 60.9197 72.124 60.8666C71.3884 60.7999 70.5859 60.6999 70.2181 61.2666C69.4156 61.5999 68.1449 61.8833 68.2118 63.3833C68.7468 62.4833 69.4992 62.5333 70.4521 62.6166L70.3853 62.8166C71.4218 63.2833 71.2212 62.6833 72.1909 62.5999C73.0615 62.5868 73.9276 62.7279 74.7488 63.0166C73.9965 63.2333 72.9599 63.1333 72.4751 63.6833C72.3748 63.8499 72.0571 63.7833 72.2076 64.2166C72.2076 64.2166 70.7029 64.1833 70.3184 66.2166C71.8231 65.2666 72.9767 65.2999 72.9934 65.2999L73.4782 65.3999L75.3173 64.1833C75.3674 64.1833 77.0895 63.4166 77.8753 64.2833C78.5774 64.6166 79.3131 64.6499 80.0487 64.2166C81.4531 63.5999 82.7738 63.5499 84.0612 64.4166L85.2482 65.1166L85.7498 64.7833C85.7498 64.7833 87.0873 64.4166 88.057 65.5999C87.6557 63.5499 86.1845 63.4833 86.1845 63.4833L85.8501 63.1833L83.777 62.3666C83.4593 61.6166 82.707 61.0333 83.4593 60.1333C84.2451 56.2833 85.1646 53.3999 83.6599 49.4999C85.0643 50.0999 86.1176 51.9666 87.8731 51.3166C87.8731 49.7499 82.0884 46.7666 77.6746 44.3833C84.9306 43.9999 93.6243 38.6833 90.2806 31.9166L91.8521 27.0166C92.6045 28.5166 94.1092 29.6499 95.4634 30.1333C94.3432 28.0166 93.7079 21.5333 94.3432 17.0666C91.3857 20.606 88.1966 23.9467 84.7968 27.0666C86.4687 27.4666 87.9567 27.1833 89.5784 26.9833L88.2074 29.8166C83.7602 27.1999 78.544 29.1499 78.5106 32.6166C78.661 36.6499 83.6599 37.2333 86.5523 35.8166C85.9838 39.4999 77.4907 38.1499 77.4907 38.1499C74.4813 37.1166 71.6224 37.2833 68.4626 37.3166C69.1146 35.2999 72.7593 33.4999 75.5513 34.2999C71.6559 29.9333 76.1031 24.5166 81.4698 22.8666C75.6182 20.9333 80.6506 16.4833 85.0309 13.2999C85.0309 13.2999 72.4417 18.5833 71.2881 18.5666C67.7103 18.2999 68.6799 14.0666 70.0509 11.7999H70.0342ZM30.511 16.8666C30.812 16.8666 31.1463 16.8999 31.4306 16.9666C31.999 17.1166 32.6845 17.1833 32.6845 17.3666C32.417 17.7999 31.7649 18.3166 31.1296 18.2999C30.4943 18.2666 30.1265 17.8833 29.9259 16.9333C29.9927 16.8999 30.2268 16.8666 30.511 16.8666ZM83.5095 31.7666C84.3454 31.7666 85.3318 32.0999 86.2848 33.1333C85.8334 34.4666 81.8042 35.1333 81.5367 33.1666C81.4531 32.5666 82.3057 31.7833 83.5095 31.7666Z" fill="#D21034" stroke="black" stroke-width="0.146398"/>
<path d="M34.6741 28.533L35.2927 29.4164M35.2592 29.4331C35.2592 29.4331 35.2592 30.633 35.51 30.6497M34.9583 31.2997L35.5936 32.3497M33.8382 32.6164C33.8716 32.6164 34.6239 33.4831 34.6239 33.4831M35.276 32.8164C35.276 32.8497 35.9782 34.1664 36.0283 34.1664M34.3564 33.7331C34.3564 33.7331 34.5905 35.3331 34.8078 35.2831M33.3032 36.6664L34.0053 37.7497M34.6239 35.5331C34.6239 35.5331 35.0085 37.0497 35.3094 36.9164M35.6271 34.6164C35.6438 34.6497 36.346 35.6331 36.5299 35.4997M36.3627 35.8831L37.0314 37.2164M35.2592 36.9164L35.811 38.4831M33.9719 37.7164C33.9719 37.7164 34.4735 39.3997 34.9249 39.1331M33.788 39.9664C33.788 39.9664 33.8214 40.8497 34.2561 40.8997M34.5571 39.5164C34.5571 39.5497 35.0085 40.1497 35.0085 40.1497M35.8444 38.4664L36.1955 39.0497M37.0147 37.3831L37.5664 38.0664M34.44 29.4497C34.4567 30.1997 35.6438 29.1831 36.1119 28.5497M33.9385 32.0497C33.9385 32.0497 35.2258 31.1331 36.2289 29.7497M33.5038 34.2331C34.4233 33.9831 36.1119 31.9497 36.4463 30.8664M33.3199 36.2497C33.5707 36.3664 36.7138 34.0831 36.7974 32.4331M33.2363 37.9997C33.2363 37.9831 36.1119 37.2664 37.2989 34.1164M33.1025 40.3831C33.1025 40.3831 37.7002 37.6331 37.951 35.6164M68.9475 44.9997C68.9475 44.9997 68.6466 47.3664 66.2725 47.7331M69.6999 49.2331C69.7166 49.1997 71.9736 46.7331 71.3885 45.9831M74.9161 46.8497C74.9161 46.8497 74.8827 48.5664 73.4783 49.7497M77.7249 47.3497C77.7249 47.3497 77.775 49.4164 76.8889 50.2497M80.2996 48.5831C80.2996 48.5831 79.2964 50.5331 78.9454 50.7331M80.2661 52.0331C80.2661 52.0331 81.5702 52.3664 81.9882 51.4997M80.6005 54.8497C80.6005 54.8497 81.8043 55.0664 82.3727 53.9164M80.4668 57.0331C80.4668 57.0331 81.4532 57.8664 82.1219 56.7664M66.4063 41.0331C66.4063 41.0331 66.2893 45.2497 72.2244 46.0997C78.8618 47.9331 82.0049 46.9664 82.3894 54.3831C82.1386 57.2164 81.7875 60.3831 79.7144 59.1664M60.0866 44.9164C60.0866 44.9164 61.0396 46.5997 62.1764 46.4831C63.6811 46.0497 64.2328 46.9664 64.2328 46.9664M56.0407 46.5997C56.0407 46.5997 58.5485 47.8164 60.6717 45.8497M56.3249 44.8497C56.5422 47.7664 52.9644 49.4331 51.5433 49.1497M56.4921 55.9831C56.5088 55.9831 58.4314 54.8497 58.0469 54.0497M52.6802 54.2997C52.7303 54.2331 55.9069 53.9331 56.4921 52.7997M51.2089 49.6331C51.2089 49.6331 55.7063 49.6664 56.0072 50.4831M57.1775 46.9831C57.1775 46.9831 52.7972 54.4664 60.8891 54.4664M52.5297 46.8831C52.5297 46.8831 51.5935 49.6664 50.256 50.6164M47.8819 45.9164C47.8819 45.9164 49.5036 49.0497 47.8819 50.5997M43.6353 46.7997C43.6521 46.8497 44.1536 51.2497 43.0502 52.4997M41.5121 46.9331C41.5121 46.9331 41.6793 49.7331 40.8433 50.7331C40.0074 51.7331 41.0439 53.7997 41.0439 53.7997M30.9291 55.1331C30.9291 55.1331 31.531 56.1831 32.3502 55.8164M31.9322 52.8497C31.9322 52.8497 33.2697 53.4331 33.7211 53.2164M33.3867 48.1497C33.3867 48.1497 31.4139 48.6997 32.1663 51.0331C33.3032 51.9497 34.4066 51.7997 34.4066 51.7997M29.4913 58.0331C29.4746 58.0331 29.7253 59.8664 30.996 58.4831C31.8821 56.6164 34.6741 51.3831 35.3261 49.5831M36.6302 48.7331C36.6302 48.7331 35.276 47.6831 35.3261 49.1497C35.2927 50.0664 35.7441 50.2831 35.7441 50.2831C35.7942 50.9497 36.3794 51.8831 36.8475 51.0331C37.0482 50.1997 36.7138 49.8331 36.7138 49.8331M37.4996 48.3331C36.2791 48.2664 35.6103 50.9497 37.9677 49.2664M38.7702 47.4331C38.7702 47.4331 38.4692 47.8497 37.9844 47.3997C37.7336 46.9664 36.8475 49.3997 38.4024 49.4831C38.6866 48.7664 39.5392 48.5664 39.5392 48.5664M40.2749 46.2664C40.2749 46.2664 39.5727 46.5997 39.3219 46.5497C38.486 46.7331 38.6532 48.6831 39.7064 48.5664C40.0742 48.1497 40.4588 47.5664 40.4588 47.5664M33.7211 43.7331C33.6877 43.7331 30.9625 48.0164 35.2425 49.1497M68.3457 37.3164C68.3457 37.3164 66.6738 38.7164 68.2286 40.9831C63.0458 40.8997 60.2872 43.2831 60.0699 44.8831C53.4827 44.4164 54.6864 46.3497 52.5464 46.9831C49.6875 44.5997 45.4911 45.9331 45.7586 48.3164C43.8527 45.6331 40.9102 46.9331 40.5424 47.5997C40.1913 48.2664 40.325 44.2997 40.325 44.2997C40.325 44.2997 38.4024 45.1664 37.0816 46.7331V43.4164C35.4766 43.7497 33.9217 43.7497 32.2666 43.7164M27.9364 42.4997C27.9364 42.4997 30.3272 43.8331 33.2864 42.0331M27.7525 37.7164C27.7525 37.7164 29.5916 39.3831 33.1025 38.8497M28.9228 33.8997C28.9228 33.8997 29.3241 35.2497 33.3199 35.3331M30.2603 30.7664C30.2603 30.7664 31.765 32.5997 33.8047 32.3164M31.5477 28.1497C31.5477 28.1497 32.1328 29.1497 34.3564 29.3164M32.8517 25.233C32.8517 25.233 34.0221 26.4997 35.3596 26.283M39.79 14.883C39.79 14.883 40.3083 14.383 41.1777 14.633M39.4222 17.5997C39.4222 17.5997 37.8172 17.5497 37.9175 16.933C38.0513 16.1997 39.6228 15.683 39.6228 15.683C39.6228 15.683 41.7127 14.3497 42.0303 13.883M32.5675 21.2164L34.6072 25.0997L35.5769 23.6331L36.0785 24.6331L36.9144 23.1831L38.3522 24.0997L37.8172 22.3164L39.021 22.233C39.021 22.233 38.6866 21.383 37.6166 21.1997C37.9008 20.983 38.9039 20.3164 38.9039 20.3164C38.9039 20.3164 38.3355 19.6497 37.4327 19.633C37.7336 19.3164 38.1349 18.5497 38.1014 18.5497L37.2153 18.3497C37.2153 18.3497 39.255 19.0164 40.8266 18.083M36.9478 14.9497C36.9646 14.9664 36.8308 15.7497 36.3961 16.1997M29.09 17.083C29.09 17.083 30.3439 16.7497 31.2802 16.933C32.2164 17.133 33.4703 17.4664 33.4703 17.4664C33.4703 17.4664 34.975 17.2664 35.4599 16.9164M25.9636 17.9164C25.9636 17.9164 25.7964 18.5164 25.7296 18.9164C25.7296 19.1997 24.81 19.583 24.81 19.583M26.5321 16.683C26.5321 16.683 27.3346 17.683 27.368 18.2664C27.3847 18.833 26.7661 19.2664 26.7661 19.2664M18.2228 23.4997L17.3869 22.1664L18.1392 21.8997M33.2697 42.0664C32.601 41.1997 33.7713 28.0331 36.2289 24.5997C35.3763 30.7997 38.2352 37.1331 38.9541 37.0997M25.7463 20.933C25.7463 20.933 26.8832 21.3497 29.2071 19.4997M32.3669 23.9664L34.0388 23.983M84.2452 13.6497C84.2452 13.6497 56.375 26.6164 55.9738 27.3164C60.6718 25.883 80.6339 22.5664 81.1188 22.8497C79.9485 23.1331 55.723 28.6831 54.5861 30.0164C60.6383 29.8164 73.2944 31.9497 75.2839 34.0164C70.9705 33.0497 58.1138 31.1664 54.1682 31.9997C57.0438 32.6831 68.0782 39.7997 68.0782 40.9331C66.4063 39.3497 53.1483 33.8997 52.63 34.4331C55.6728 36.2497 59.9696 42.9997 59.9696 44.6497C59.0835 43.2497 51.4096 35.0331 50.9582 35.5664C51.7774 36.6831 53.3824 46.3831 52.5632 46.8331C52.5632 45.6664 49.5872 37.1664 49.3364 36.9331C48.7346 37.0997 44.9394 47.2664 45.6917 48.2331C45.1902 44.8331 45.7753 37.7331 46.6949 38.0164C45.023 38.2664 39.7232 45.2497 40.2916 46.3497C40.4588 44.5997 40.6928 43.4497 43.7022 37.6664C40.3585 37.8664 33.4703 42.1831 32.3 43.7331C33.2363 40.9831 39.0711 36.3331 41.6291 35.9997M53.6666 25.8831C56.6091 24.2497 65.7041 20.933 71.7897 18.483M47.9488 34.6497C47.9488 34.6497 49.955 34.6164 51.9613 29.1831C53.9341 21.7497 69.633 13.4664 69.9507 11.9164M21.3994 42.1331C21.3994 42.1331 20.9313 43.1331 20.3628 43.3997M23.6564 43.6331C23.6564 43.6331 23.0378 44.8331 22.8874 45.3997M25.8132 44.2331C25.8132 44.2331 26.3147 45.8664 25.8967 46.6331M19.8111 39.9497C18.2396 40.8331 20.7139 46.4497 28.1872 46.9831M26.9835 43.9497C26.9835 43.9497 26.7828 44.9497 28.1872 46.9497C27.786 49.1831 29.8925 50.9331 30.7285 51.2164M26.3816 23.8497L26.6157 23.2497L26.8664 23.9164L27.2844 23.8997L27.5519 23.233L27.786 23.8997H28.1872L28.438 23.1664L28.8225 23.8664H29.1569L29.4077 23.033L29.9092 23.6331L30.1099 23.5664L30.2771 22.6997L30.7953 23.2997L30.9625 23.2164L31.1966 22.3831L31.6146 22.9997L31.8319 22.9331L32.0325 22.2164L32.4338 22.8831M25.9135 23.9164L29.0566 23.8664C30.0597 23.8664 31.6982 22.483 33.5205 22.9164M19.3263 30.5831C19.3263 30.5831 19.8446 31.7164 20.5635 31.0831M18.1225 31.3331C18.1225 31.3331 17.1194 34.0331 18.3232 34.6664M16.6847 28.3664C16.6847 28.3664 16.6847 28.9997 18.0222 28.033M12.5886 42.4831C12.5886 42.4831 13.6419 42.8164 13.4747 43.5997M12.9732 30.1331C12.9732 30.1331 13.6419 30.4497 14.2772 29.4664M19.995 61.0831C21.0149 61.0164 21.2489 61.4831 22.1685 61.4831C23.2719 61.5164 24.3252 61.0831 25.6794 60.6997M34.5571 63.1997C34.5236 63.1997 34.0555 64.1664 34.4735 64.6497M19.8446 63.2831C19.8446 63.2831 21.483 61.9497 22.3524 62.7664C23.1716 63.0497 23.623 62.9997 23.623 62.9997M20.6972 59.4497C20.6972 59.4497 21.0985 60.4831 19.761 60.3331M19.3597 61.8331C19.3597 61.8331 20.2124 62.3664 19.2427 63.0831M19.878 64.0497C19.878 64.0497 21.0483 64.2164 20.3628 65.1664M56.7094 58.5164C57.8964 59.4664 57.4116 60.0331 61.1566 57.5331M55.0041 59.6997C55.0041 59.6997 56.7596 61.5997 58.0469 59.2997M51.6436 60.3831L49.2528 61.6331M44.9728 63.3831C44.9728 63.3831 46.4274 62.1497 47.0961 62.7997C47.7816 63.4664 50.6572 62.2331 50.6572 62.2331M46.0596 57.9997C46.0596 57.9997 46.5611 58.9997 45.5914 59.1164M44.1703 61.0997C44.1703 61.0997 44.6719 62.0331 43.7022 62.2664M45.2905 63.6164C45.2905 63.6164 46.7952 63.6997 46.2602 64.8331M59.3677 63.4164C59.3677 63.4164 58.5318 64.1164 59.1503 64.9164M71.355 58.4164C71.355 58.4164 72.308 58.8831 71.1711 59.6664M70.2182 61.3164C70.2182 61.3164 70.9371 62.0664 70.4522 62.6831M72.2244 64.1831C72.2244 64.1831 73.2108 64.4664 73.0938 65.2831M86.101 63.4497C86.101 63.4497 85.265 64.0664 85.7164 64.8497M71.3885 39.3831C73.3613 39.1497 76.2035 43.5497 77.658 44.3997M86.335 33.1664C86.335 33.1664 87.3382 34.0497 86.4521 36.1664M88.1908 29.7997C88.475 30.0164 89.545 30.5997 90.2639 31.9331M90.9494 23.233L89.5618 26.983M92.5043 23.0497C92.5043 23.0497 92.2368 26.3831 91.8355 27.0497M57.8463 56.9331C57.8463 56.9331 61.0228 57.2664 61.19 57.4997C61.5578 57.1164 64.4 54.7997 60.9058 54.4831C60.7448 55.174 60.3557 55.7911 59.801 56.2354C59.2462 56.6796 58.5578 56.9253 57.8463 56.9331V56.9331ZM86.2682 33.1331C85.8168 34.4664 81.7875 35.1331 81.52 33.1664C81.3696 32.1664 83.8941 30.6164 86.2682 33.1331Z" stroke="black" stroke-width="0.146398" stroke-linejoin="round"/>
<path d="M30.4773 16.8832L32.0321 17.1666C32.0321 17.1666 30.9454 18.6332 30.4773 16.8832Z" fill="black" stroke="black" stroke-width="0.146398" stroke-linejoin="round"/>
</g>
<defs>
<clipPath id="clip0_152542_2598">
<rect width="107" height="80" fill="white"/>
</clipPath>
</defs>
</svg>
